<ttFont>
        <CharString name=".notdef">
          0 600 863 rmoveto
          -11 0 -10 5 -8 11 -125 214 -63 110 0 6 0 25 12 12 24 0 rrcurveto
          365 hlineto
          23 0 12 -12 0 -25 0 -6 -63 -110 -125 -215 -7 -10 -10 -5 -14 0 rrcurveto
          184 -707 rmoveto
          -365 hlineto
          -24 0 -12 12 0 24 0 8 63 110 125 213 8 11 10 6 11 0 13 0 11 -6 7 -11 125 -213 63 -110 0 -8 0 -24 -12 -12 -23 0 rrcurveto
          -485 253 rmoveto
          -25 0 -13 11 0 22 rrcurveto
          515 vlineto
          0 23 13 11 25 0 13 0 10 -5 8 -9 121 -176 61 -92 0 -8 0 -8 -61 -93 -121 -177 -8 -9 -10 -5 -13 0 rrcurveto
          603 hmoveto
          -11 0 -10 5 -9 9 -121 177 -60 93 0 8 0 7 60 92 121 177 9 9 10 5 11 0 26 0 13 -11 0 -23 rrcurveto
          -515 vlineto
          0 -22 -13 -11 -26 0 rrcurveto
          76 -414 rmoveto
          33 0 27 12 21 23 21 23 10 25 0 27 rrcurveto
          1187 vlineto
          0 30 -10 26 -21 23 -21 23 -27 11 -33 0 rrcurveto
          -756 hlineto
          -32 0 -27 -11 -21 -22 -21 -22 -10 -27 0 -31 rrcurveto
          -1187 vlineto
          0 -27 10 -25 21 -23 21 -23 27 -12 32 0 rrcurveto
          endchar
        </CharString>
        <CharString name="A">
          0 766 512 rmoveto
          -332 hlineto
          -12 0 -9 4 -7 8 -7 7 -3 9 0 9 0 4 56 183 112 364 6 18 12 9 18 0 18 0 12 -9 6 -18 112 -364 56 -183 0 -4 0 -9 -3 -9 -7 -7 -7 -8 -9 -4 -12 0 rrcurveto
          283 -542 rmoveto
          26 0 22 9 18 19 17 19 9 21 0 24 0 9 -1 10 -3 9 rrcurveto
          -379 1220 rlineto
          -12 36 -20 29 -29 22 -29 22 -33 11 -35 0 -35 0 -32 -11 -29 -22 -29 -22 -21 -29 -12 -36 rrcurveto
          -379 -1220 rlineto
          -3 -9 -1 -10 0 -9 0 -24 9 -21 18 -19 17 -19 22 -9 26 0 21 0 18 6 16 12 16 11 11 16 7 20 rrcurveto
          85 266 rlineto
          7 21 15 11 22 0 rrcurveto
          462 hlineto
          22 0 15 -11 7 -21 rrcurveto
          85 -266 rlineto
          7 -20 11 -16 16 -11 16 -12 18 -6 21 0 rrcurveto
          endchar
        </CharString>
        <CharString name="AE">
          0 1120 hmoveto
          44 0 35 36 0 43 0 44 -35 35 -44 0 rrcurveto
          -182 hlineto
          -22 0 -19 16 -5 22 rrcurveto
          -86 411 rlineto
          0 17 14 14 18 0 rrcurveto
          225 hlineto
          44 0 35 36 0 43 0 44 -35 35 -44 0 rrcurveto
          -256 hlineto
          -22 0 -19 16 -4 21 rrcurveto
          -84 377 rlineto
          0 17 14 15 18 0 rrcurveto
          348 hlineto
          43 0 36 35 0 44 -1 44 -35 35 -43 0 rrcurveto
          -619 hlineto
          -35 0 -31 -24 -10 -33 rrcurveto
          -353 -1218 rlineto
          -2 -9 -2 -9 0 -9 0 -52 42 -46 56 0 44 0 39 30 11 43 rrcurveto
          66 245 rlineto
          5 21 19 14 21 0 rrcurveto
          323 hlineto
          22 0 19 -16 5 -21 rrcurveto
          50 -252 rlineto
          8 -37 32 -27 38 0 rrcurveto
          -207 515 rmoveto
          -241 hlineto
          -18 0 -14 15 0 17 rrcurveto
          1 7 142 585 rlineto
          2 12 10 6 10 0 11 0 10 -6 2 -13 rrcurveto
          117 -592 rlineto
          0 -17 -14 -14 -18 0 rrcurveto
          endchar
        </CharString>
        <CharString name="Aacute">
          0 766 512 rmoveto
          -332 hlineto
          -12 0 -9 4 -7 8 -7 7 -3 9 0 9 0 4 56 183 112 364 6 18 12 9 18 0 18 0 12 -9 6 -18 112 -364 56 -183 0 -4 0 -9 -3 -9 -7 -7 -7 -8 -9 -4 -12 0 rrcurveto
          283 -542 rmoveto
          26 0 22 9 18 19 17 19 9 21 0 24 0 9 -1 10 -3 9 rrcurveto
          -379 1220 rlineto
          -12 36 -20 29 -29 22 -29 22 -33 11 -35 0 -35 0 -32 -11 -29 -22 -29 -22 -21 -29 -12 -36 rrcurveto
          -379 -1220 rlineto
          -3 -9 -1 -10 0 -9 0 -24 9 -21 18 -19 17 -19 22 -9 26 0 21 0 18 6 16 12 16 11 11 16 7 20 rrcurveto
          85 266 rlineto
          7 21 15 11 22 0 rrcurveto
          462 hlineto
          22 0 15 -11 7 -21 rrcurveto
          85 -266 rlineto
          7 -20 11 -16 16 -11 16 -12 18 -6 21 0 rrcurveto
          -588 1595 rmoveto
          8 0 8 2 8 3 rrcurveto
          283 109 rlineto
          35 14 21 33 0 35 0 16 -5 15 -8 15 -17 27 -29 15 -30 0 -15 0 -15 -4 -14 -8 rrcurveto
          -261 -153 rlineto
          -21 -12 -11 -21 0 -22 0 -10 3 -10 5 -10 11 -21 21 -13 23 0 rrcurveto
          endchar
        </CharString>
        <CharString name="Acircumflex">
          0 766 512 rmoveto
          -332 hlineto
          -12 0 -9 4 -7 8 -7 7 -3 9 0 9 0 4 56 183 112 364 6 18 12 9 18 0 18 0 12 -9 6 -18 112 -364 56 -183 0 -4 0 -9 -3 -9 -7 -7 -7 -8 -9 -4 -12 0 rrcurveto
          283 -542 rmoveto
          26 0 22 9 18 19 17 19 9 21 0 24 0 9 -1 10 -3 9 rrcurveto
          -379 1220 rlineto
          -12 36 -20 29 -29 22 -29 22 -33 11 -35 0 -35 0 -32 -11 -29 -22 -29 -22 -21 -29 -12 -36 rrcurveto
          -379 -1220 rlineto
          -3 -9 -1 -10 0 -9 0 -24 9 -21 18 -19 17 -19 22 -9 26 0 21 0 18 6 16 12 16 11 11 16 7 20 rrcurveto
          85 266 rlineto
          7 21 15 11 22 0 rrcurveto
          462 hlineto
          22 0 15 -11 7 -21 rrcurveto
          85 -266 rlineto
          7 -20 11 -16 16 -11 16 -12 18 -6 21 0 rrcurveto
          -696 1605 rmoveto
          12 0 13 4 11 7 rrcurveto
          176 113 rlineto
          11 7 12 4 13 0 12 0 12 -4 11 -7 rrcurveto
          178 -113 rlineto
          11 -7 12 -3 12 0 19 0 18 8 13 15 11 13 6 15 0 15 0 19 -9 19 -15 13 rrcurveto
          -176 144 rlineto
          -32 27 -41 15 -42 0 -41 0 -41 -15 -32 -26 rrcurveto
          -177 -144 rlineto
          -16 -13 -8 -19 0 -19 0 -16 6 -16 11 -13 13 -15 18 -8 19 0 rrcurveto
          endchar
        </CharString>
        <CharString name="Adieresis">
          0 766 512 rmoveto
          -332 hlineto
          -12 0 -9 4 -7 8 -7 7 -3 9 0 9 0 4 56 183 112 364 6 18 12 9 18 0 18 0 12 -9 6 -18 112 -364 56 -183 0 -4 0 -9 -3 -9 -7 -7 -7 -8 -9 -4 -12 0 rrcurveto
          283 -542 rmoveto
          26 0 22 9 18 19 17 19 9 21 0 24 0 9 -1 10 -3 9 rrcurveto
          -379 1220 rlineto
          -12 36 -20 29 -29 22 -29 22 -33 11 -35 0 -35 0 -32 -11 -29 -22 -29 -22 -21 -29 -12 -36 rrcurveto
          -379 -1220 rlineto
          -3 -9 -1 -10 0 -9 0 -24 9 -21 18 -19 17 -19 22 -9 26 0 21 0 18 6 16 12 16 11 11 16 7 20 rrcurveto
          85 266 rlineto
          7 21 15 11 22 0 rrcurveto
          462 hlineto
          22 0 15 -11 7 -21 rrcurveto
          85 -266 rlineto
          7 -20 11 -16 16 -11 16 -12 18 -6 21 0 rrcurveto
          -664 1603 rmoveto
          34 0 28 12 23 22 23 23 12 28 0 33 0 34 -12 29 -23 22 -23 23 -28 11 -34 0 -35 0 -29 -11 -23 -23 -23 -22 -12 -29 0 -34 0 -33 12 -28 23 -23 23 -22 29 -12 35 0 rrcurveto
          431 hmoveto
          35 0 29 12 23 22 23 23 12 28 0 33 0 34 -12 29 -23 22 -23 23 -29 11 -35 0 -34 0 -28 -11 -23 -23 -24 -22 -11 -29 0 -34 0 -33 11 -28 24 -23 23 -22 28 -12 34 0 rrcurveto
          endchar
        </CharString>
        <CharString name="Agrave">
          0 766 512 rmoveto
          -332 hlineto
          -12 0 -9 4 -7 8 -7 7 -3 9 0 9 0 4 56 183 112 364 6 18 12 9 18 0 18 0 12 -9 6 -18 112 -364 56 -183 0 -4 0 -9 -3 -9 -7 -7 -7 -8 -9 -4 -12 0 rrcurveto
          283 -542 rmoveto
          26 0 22 9 18 19 17 19 9 21 0 24 0 9 -1 10 -3 9 rrcurveto
          -379 1220 rlineto
          -12 36 -20 29 -29 22 -29 22 -33 11 -35 0 -35 0 -32 -11 -29 -22 -29 -22 -21 -29 -12 -36 rrcurveto
          -379 -1220 rlineto
          -3 -9 -1 -10 0 -9 0 -24 9 -21 18 -19 17 -19 22 -9 26 0 21 0 18 6 16 12 16 11 11 16 7 20 rrcurveto
          85 266 rlineto
          7 21 15 11 22 0 rrcurveto
          462 hlineto
          22 0 15 -11 7 -21 rrcurveto
          85 -266 rlineto
          7 -20 11 -16 16 -11 16 -12 18 -6 21 0 rrcurveto
          -288 1595 rmoveto
          22 0 22 13 11 21 5 10 3 10 0 10 0 22 -12 21 -20 12 rrcurveto
          -261 153 rlineto
          -14 8 -15 4 -15 0 -30 0 -29 -15 -17 -27 -9 -15 -4 -15 0 -16 0 -35 21 -33 35 -14 rrcurveto
          283 -109 rlineto
          8 -3 8 -2 8 0 rrcurveto
          endchar
        </CharString>
        <CharString name="Aring">
          0 766 512 rmoveto
          -332 hlineto
          -12 0 -9 4 -7 8 -7 7 -3 9 0 9 0 4 56 183 112 364 6 18 12 9 18 0 18 0 12 -9 6 -18 112 -364 56 -183 0 -4 0 -9 -3 -9 -7 -7 -7 -8 -9 -4 -12 0 rrcurveto
          283 -542 rmoveto
          26 0 22 9 18 19 17 19 9 21 0 24 0 9 -1 10 -3 9 rrcurveto
          -379 1220 rlineto
          -12 36 -20 29 -29 22 -29 22 -33 11 -35 0 -35 0 -32 -11 -29 -22 -29 -22 -21 -29 -12 -36 rrcurveto
          -379 -1220 rlineto
          -3 -9 -1 -10 0 -9 0 -24 9 -21 18 -19 17 -19 22 -9 26 0 21 0 18 6 16 12 16 11 11 16 7 20 rrcurveto
          85 266 rlineto
          7 21 15 11 22 0 rrcurveto
          462 hlineto
          22 0 15 -11 7 -21 rrcurveto
          85 -266 rlineto
          7 -20 11 -16 16 -11 16 -12 18 -6 21 0 rrcurveto
          -448 1980 rmoveto
          -69 0 -57 -22 -44 -42 -44 -43 -23 -52 0 -62 0 -60 23 -51 44 -43 44 -43 57 -21 69 0 70 0 57 21 44 43 44 43 22 51 0 60 0 62 -22 52 -44 43 -44 42 -57 22 -70 0 rrcurveto
          -106 vmoveto
          34 0 26 -10 19 -21 20 -20 9 -28 0 -36 0 -35 -9 -28 -20 -20 -19 -21 -26 -10 -34 0 -32 0 -26 10 -20 21 -19 20 -10 28 0 35 0 36 10 28 19 20 20 21 26 10 32 0 rrcurveto
          endchar
        </CharString>
        <CharString name="Atilde">
          0 766 512 rmoveto
          -332 hlineto
          -12 0 -9 4 -7 8 -7 7 -3 9 0 9 0 4 56 183 112 364 6 18 12 9 18 0 18 0 12 -9 6 -18 112 -364 56 -183 0 -4 0 -9 -3 -9 -7 -7 -7 -8 -9 -4 -12 0 rrcurveto
          283 -542 rmoveto
          26 0 22 9 18 19 17 19 9 21 0 24 0 9 -1 10 -3 9 rrcurveto
          -379 1220 rlineto
          -12 36 -20 29 -29 22 -29 22 -33 11 -35 0 -35 0 -32 -11 -29 -22 -29 -22 -21 -29 -12 -36 rrcurveto
          -379 -1220 rlineto
          -3 -9 -1 -10 0 -9 0 -24 9 -21 18 -19 17 -19 22 -9 26 0 21 0 18 6 16 12 16 11 11 16 7 20 rrcurveto
          85 266 rlineto
          7 21 15 11 22 0 rrcurveto
          462 hlineto
          22 0 15 -11 7 -21 rrcurveto
          85 -266 rlineto
          7 -20 11 -16 16 -11 16 -12 18 -6 21 0 rrcurveto
          -330 1620 rmoveto
          77 0 63 38 50 76 7 12 4 13 0 12 0 25 -13 28 -27 9 -10 5 -10 2 -11 0 -20 0 -19 -9 -13 -16 -7 -9 -8 -8 -7 -6 -17 -15 -18 -7 -21 0 -25 0 -24 8 -21 17 rrcurveto
          -22 16 -23 16 -26 16 -26 16 -33 8 -38 0 -52 0 -45 -18 -37 -35 -20 -20 -18 -21 -16 -23 -8 -12 -4 -13 0 -13 0 -25 13 -23 24 -12 10 -5 10 -2 10 0 21 0 20 9 13 18 rrcurveto
          19 23 rlineto
          16 16 20 8 24 0 25 0 23 -9 22 -16 23 -16 24 -17 26 -16 27 -17 31 -8 37 0 rrcurveto
          endchar
        </CharString>
        <CharString name="B">
          0 638 180 rmoveto
          -225 hlineto
          -12 0 -10 4 -8 9 -8 8 -4 10 0 12 rrcurveto
          368 vlineto
          0 12 4 10 8 8 8 8 10 4 12 0 rrcurveto
          226 1 rlineto
          77 -4 62 -23 46 -41 46 -42 23 -47 0 -53 0 -66 -25 -57 -49 -48 -50 -49 -60 -24 -71 0 rrcurveto
          634 vmoveto
          -225 hlineto
          -12 0 -10 4 -8 8 -8 8 -4 10 0 12 rrcurveto
          321 vlineto
          0 12 4 10 8 8 8 8 10 4 12 0 rrcurveto
          225 hlineto
          55 0 47 -17 40 -35 40 -35 20 -44 0 -55 0 -54 -20 -50 -41 -46 -41 -46 -47 -23 -53 0 rrcurveto
          -1 -814 rmoveto
          79 0 73 19 66 38 66 38 53 51 39 64 39 64 20 71 0 78 0 124 -51 92 -103 62 -1 0 -5 2 -7 5 -12 7 -6 8 0 7 0 8 7 9 15 10 39 29 29 39 19 49 rrcurveto
          16 43 8 53 0 64 0 57 -17 56 -33 57 -34 56 -46 47 -57 37 -58 37 -65 19 -73 0 rrcurveto
          -353 hlineto
          -26 0 -22 -9 -18 -19 -19 -19 -9 -22 0 -25 rrcurveto
          -1212 vlineto
          0 -26 9 -22 19 -18 18 -19 22 -9 26 0 rrcurveto
          endchar
        </CharString>
        <CharString name="C">
          0 726 -30 rmoveto
          95 0 85 13 75 26 45 15 23 28 0 43 0 35 -10 26 -20 17 -12 11 -17 5 -22 0 -9 0 -8 -2 -7 -4 -45 -23 -70 -11 -96 0 -115 3 -93 48 -70 95 -70 94 -35 135 0 175 rrcurveto
          0 179 38 136 77 95 76 94 89 48 103 3 111 0 71 -8 31 -17 10 -5 9 -3 7 0 18 0 16 6 13 12 20 17 10 23 0 28 0 82 -108 41 -215 0 -168 0 -135 -66 -102 -133 rrcurveto
          -97 -133 -51 -180 -3 -227 0 -210 50 -174 101 -138 102 -133 135 -66 168 0 rrcurveto
          endchar
        </CharString>
        <CharString name="Ccedilla">
          0 726 -30 rmoveto
          95 0 85 13 75 26 45 15 23 28 0 43 0 35 -10 26 -20 17 -12 11 -17 5 -22 0 -9 0 -8 -2 -7 -4 -45 -23 -70 -11 -96 0 -115 3 -93 48 -70 95 -70 94 -35 135 0 175 rrcurveto
          0 179 38 136 77 95 76 94 89 48 103 3 111 0 71 -8 31 -17 10 -5 9 -3 7 0 18 0 16 6 13 12 20 17 10 23 0 28 0 82 -108 41 -215 0 -168 0 -135 -66 -102 -133 rrcurveto
          -97 -133 -51 -180 -3 -227 0 -210 50 -174 101 -138 102 -133 135 -66 168 0 rrcurveto
          -148 -467 rmoveto
          71 0 61 17 51 35 51 36 26 51 0 68 0 43 -15 38 -31 35 -27 30 -43 20 -58 8 -11 2 -9 9 0 12 rrcurveto
          59 vlineto
          0 37 -30 30 -37 0 -34 0 -29 -27 -3 -34 rrcurveto
          -11 -140 rlineto
          0 -20 15 -17 21 -1 38 -2 30 -5 24 -8 32 -11 16 -22 0 -35 0 -30 -11 -20 -22 -13 -23 -12 -29 -6 -35 0 -32 0 -30 4 -29 9 -6 2 -7 1 -6 0 -22 0 -21 -12 -11 -20 rrcurveto
          -5 -10 -2 -10 0 -10 0 -25 15 -24 27 -9 rrcurveto
          30 -9 rlineto
          39 -9 40 -5 42 0 rrcurveto
          endchar
        </CharString>
        <CharString name="D">
          0 445 180 rmoveto
          -32 hlineto
          -12 0 -10 4 -8 9 -9 8 -4 10 0 12 rrcurveto
          954 vlineto
          0 12 4 10 9 8 8 8 10 4 12 0 51 0 49 -1 46 -3 45 -3 43 -8 40 -14 39 -14 36 -23 32 -32 29 -29 21 -37 13 -45 13 -46 9 -53 4 -60 4 -61 2 -66 0 -72 rrcurveto
          0 -168 -35 -121 -69 -73 -70 -73 -113 -37 -157 0 rrcurveto
          -180 vmoveto
          143 0 118 22 92 43 92 43 68 70 45 96 44 95 22 126 0 157 rrcurveto
          136 vlineto
          0 143 -22 117 -43 90 -43 90 -65 66 -86 43 -87 42 -108 21 -131 0 rrcurveto
          -200 hlineto
          -26 0 -22 -9 -18 -19 -19 -19 -9 -22 0 -25 rrcurveto
          -1212 vlineto
          0 -26 9 -22 19 -18 18 -19 22 -9 26 0 rrcurveto
          endchar
        </CharString>
        <CharString name="E">
          0 968 hmoveto
          25 0 21 9 18 18 17 17 9 21 0 25 0 25 -9 21 -17 18 -18 17 -21 9 -25 0 rrcurveto
          -525 hlineto
          -12 0 -10 4 -8 9 -9 8 -4 10 0 11 rrcurveto
          346 vlineto
          0 12 4 10 9 8 8 8 10 4 12 0 rrcurveto
          468 hlineto
          25 0 21 9 18 18 17 17 9 21 0 25 0 25 -9 21 -17 18 -18 17 -21 9 -25 0 rrcurveto
          -468 hlineto
          -12 0 -10 4 -8 9 -9 8 -4 10 0 12 rrcurveto
          344 vlineto
          0 12 4 10 9 9 8 8 10 4 12 0 rrcurveto
          525 hlineto
          25 0 21 9 18 18 17 17 9 21 0 25 0 25 -9 21 -17 18 -18 17 -21 9 -25 0 rrcurveto
          -654 hlineto
          -26 0 -22 -9 -18 -18 -19 -19 -9 -22 0 -25 rrcurveto
          -1214 vlineto
          0 -25 9 -22 19 -18 18 -19 22 -9 26 0 rrcurveto
          endchar
        </CharString>
        <CharString name="Eacute">
          0 968 hmoveto
          25 0 21 9 18 18 17 17 9 21 0 25 0 25 -9 21 -17 18 -18 17 -21 9 -25 0 rrcurveto
          -525 hlineto
          -12 0 -10 4 -8 9 -9 8 -4 10 0 11 rrcurveto
          346 vlineto
          0 12 4 10 9 8 8 8 10 4 12 0 rrcurveto
          468 hlineto
          25 0 21 9 18 18 17 17 9 21 0 25 0 25 -9 21 -17 18 -18 17 -21 9 -25 0 rrcurveto
          -468 hlineto
          -12 0 -10 4 -8 9 -9 8 -4 10 0 12 rrcurveto
          344 vlineto
          0 12 4 10 9 9 8 8 10 4 12 0 rrcurveto
          525 hlineto
          25 0 21 9 18 18 17 17 9 21 0 25 0 25 -9 21 -17 18 -18 17 -21 9 -25 0 rrcurveto
          -654 hlineto
          -26 0 -22 -9 -18 -18 -19 -19 -9 -22 0 -25 rrcurveto
          -1214 vlineto
          0 -25 9 -22 19 -18 18 -19 22 -9 26 0 rrcurveto
          147 1565 rmoveto
          8 0 8 2 8 3 rrcurveto
          283 109 rlineto
          35 14 21 33 0 35 0 16 -5 15 -8 15 -17 27 -29 15 -30 0 -15 0 -15 -4 -14 -8 rrcurveto
          -261 -153 rlineto
          -21 -12 -11 -21 0 -22 0 -10 3 -10 5 -10 11 -21 21 -13 23 0 rrcurveto
          endchar
        </CharString>
        <CharString name="Ecircumflex">
          0 968 hmoveto
          25 0 21 9 18 18 17 17 9 21 0 25 0 25 -9 21 -17 18 -18 17 -21 9 -25 0 rrcurveto
          -525 hlineto
          -12 0 -10 4 -8 9 -9 8 -4 10 0 11 rrcurveto
          346 vlineto
          0 12 4 10 9 8 8 8 10 4 12 0 rrcurveto
          468 hlineto
          25 0 21 9 18 18 17 17 9 21 0 25 0 25 -9 21 -17 18 -18 17 -21 9 -25 0 rrcurveto
          -468 hlineto
          -12 0 -10 4 -8 9 -9 8 -4 10 0 12 rrcurveto
          344 vlineto
          0 12 4 10 9 9 8 8 10 4 12 0 rrcurveto
          525 hlineto
          25 0 21 9 18 18 17 17 9 21 0 25 0 25 -9 21 -17 18 -18 17 -21 9 -25 0 rrcurveto
          -654 hlineto
          -26 0 -22 -9 -18 -18 -19 -19 -9 -22 0 -25 rrcurveto
          -1214 vlineto
          0 -25 9 -22 19 -18 18 -19 22 -9 26 0 rrcurveto
          39 1575 rmoveto
          12 0 13 4 11 7 rrcurveto
          176 113 rlineto
          11 7 12 4 13 0 12 0 12 -4 11 -7 rrcurveto
          178 -113 rlineto
          11 -7 12 -3 12 0 19 0 18 8 13 15 11 13 6 15 0 15 0 19 -9 19 -15 13 rrcurveto
          -176 144 rlineto
          -32 27 -41 15 -42 0 -41 0 -41 -15 -32 -26 rrcurveto
          -177 -144 rlineto
          -16 -13 -8 -19 0 -19 0 -16 6 -16 11 -13 13 -15 18 -8 19 0 rrcurveto
          endchar
        </CharString>
        <CharString name="Edieresis">
          0 968 hmoveto
          25 0 21 9 18 18 17 17 9 21 0 25 0 25 -9 21 -17 18 -18 17 -21 9 -25 0 rrcurveto
          -525 hlineto
          -12 0 -10 4 -8 9 -9 8 -4 10 0 11 rrcurveto
          346 vlineto
          0 12 4 10 9 8 8 8 10 4 12 0 rrcurveto
          468 hlineto
          25 0 21 9 18 18 17 17 9 21 0 25 0 25 -9 21 -17 18 -18 17 -21 9 -25 0 rrcurveto
          -468 hlineto
          -12 0 -10 4 -8 9 -9 8 -4 10 0 12 rrcurveto
          344 vlineto
          0 12 4 10 9 9 8 8 10 4 12 0 rrcurveto
          525 hlineto
          25 0 21 9 18 18 17 17 9 21 0 25 0 25 -9 21 -17 18 -18 17 -21 9 -25 0 rrcurveto
          -654 hlineto
          -26 0 -22 -9 -18 -18 -19 -19 -9 -22 0 -25 rrcurveto
          -1214 vlineto
          0 -25 9 -22 19 -18 18 -19 22 -9 26 0 rrcurveto
          71 1573 rmoveto
          34 0 28 12 23 22 23 23 12 28 0 33 0 34 -12 29 -23 22 -23 23 -28 11 -34 0 -35 0 -29 -11 -23 -23 -23 -22 -12 -29 0 -34 0 -33 12 -28 23 -23 23 -22 29 -12 35 0 rrcurveto
          431 hmoveto
          35 0 29 12 23 22 23 23 12 28 0 33 0 34 -12 29 -23 22 -23 23 -29 11 -35 0 -34 0 -28 -11 -23 -23 -24 -22 -11 -29 0 -34 0 -33 11 -28 24 -23 23 -22 28 -12 34 0 rrcurveto
          endchar
        </CharString>
        <CharString name="Egrave">
          0 968 hmoveto
          25 0 21 9 18 18 17 17 9 21 0 25 0 25 -9 21 -17 18 -18 17 -21 9 -25 0 rrcurveto
          -525 hlineto
          -12 0 -10 4 -8 9 -9 8 -4 10 0 11 rrcurveto
          346 vlineto
          0 12 4 10 9 8 8 8 10 4 12 0 rrcurveto
          468 hlineto
          25 0 21 9 18 18 17 17 9 21 0 25 0 25 -9 21 -17 18 -18 17 -21 9 -25 0 rrcurveto
          -468 hlineto
          -12 0 -10 4 -8 9 -9 8 -4 10 0 12 rrcurveto
          344 vlineto
          0 12 4 10 9 9 8 8 10 4 12 0 rrcurveto
          525 hlineto
          25 0 21 9 18 18 17 17 9 21 0 25 0 25 -9 21 -17 18 -18 17 -21 9 -25 0 rrcurveto
          -654 hlineto
          -26 0 -22 -9 -18 -18 -19 -19 -9 -22 0 -25 rrcurveto
          -1214 vlineto
          0 -25 9 -22 19 -18 18 -19 22 -9 26 0 rrcurveto
          447 1565 rmoveto
          22 0 22 13 11 21 5 10 3 10 0 10 0 22 -12 21 -20 12 rrcurveto
          -261 153 rlineto
          -14 8 -15 4 -15 0 -30 0 -29 -15 -17 -27 -9 -15 -4 -15 0 -16 0 -35 21 -33 35 -14 rrcurveto
          283 -109 rlineto
          8 -3 8 -2 8 0 rrcurveto
          endchar
        </CharString>
        <CharString name="Eth">
          0 445 180 rmoveto
          -32 hlineto
          -12 0 -10 4 -8 9 -9 8 -4 10 0 12 rrcurveto
          954 vlineto
          0 12 4 10 9 8 8 8 10 4 12 0 51 0 49 -1 46 -3 45 -3 43 -8 40 -14 39 -14 36 -23 32 -32 29 -29 21 -37 13 -45 13 -46 9 -53 4 -60 4 -61 2 -66 0 -72 rrcurveto
          0 -168 -35 -121 -69 -73 -70 -73 -113 -37 -157 0 rrcurveto
          -180 vmoveto
          143 0 118 22 92 43 92 43 68 70 45 96 44 95 22 126 0 157 rrcurveto
          136 vlineto
          0 143 -22 117 -43 90 -43 90 -65 66 -86 43 -87 42 -108 21 -131 0 rrcurveto
          -200 hlineto
          -26 0 -22 -9 -18 -19 -19 -19 -9 -22 0 -25 rrcurveto
          -1212 vlineto
          0 -26 9 -22 19 -18 18 -19 22 -9 26 0 rrcurveto
          276 610 rmoveto
          25 0 21 9 18 18 17 17 9 21 0 25 0 25 -9 21 -17 18 -18 17 -21 9 -25 0 rrcurveto
          -430 hlineto
          -25 0 -21 -9 -17 -17 -18 -18 -9 -21 0 -25 0 -25 9 -21 18 -17 17 -18 21 -9 25 0 rrcurveto
          endchar
        </CharString>
        <CharString name="F">
          0 310 -30 rmoveto
          25 0 21 9 18 18 17 17 9 21 0 25 rrcurveto
          508 vlineto
          0 12 4 10 9 8 8 8 10 4 12 0 rrcurveto
          460 hlineto
          25 0 21 9 18 18 17 17 9 21 0 25 0 25 -9 21 -17 18 -18 17 -21 9 -25 0 rrcurveto
          -460 hlineto
          -12 0 -10 4 -8 9 -9 8 -4 10 0 12 rrcurveto
          344 vlineto
          0 12 4 10 9 9 8 8 10 4 12 0 rrcurveto
          537 hlineto
          25 0 21 9 18 18 17 17 9 21 0 25 0 25 -9 21 -17 18 -18 17 -21 9 -25 0 rrcurveto
          -666 hlineto
          -26 0 -22 -9 -18 -18 -19 -19 -9 -22 0 -25 rrcurveto
          -1247 vlineto
          0 -25 9 -21 18 -17 17 -18 21 -9 25 0 rrcurveto
          endchar
        </CharString>
        <CharString name="G">
          0 606 -30 rmoveto
          146 0 122 55 99 110 24 28 12 34 0 40 rrcurveto
          448 vlineto
          0 14 -4 12 -8 9 -9 9 -10 4 -13 0 rrcurveto
          -319 hlineto
          -21 0 -20 -7 -17 -15 -17 -15 -9 -21 0 -26 0 -31 10 -24 19 -17 19 -18 20 -9 21 0 rrcurveto
          150 hlineto
          27 0 13 -14 0 -28 rrcurveto
          -238 vlineto
          0 -23 -9 -18 -17 -14 -56 -43 -63 -21 -70 0 -108 0 -79 42 -50 85 -51 85 -26 113 -3 142 rrcurveto
          167 vlineto
          0 72 9 70 18 67 41 171 91 85 142 0 113 0 76 -69 39 -138 12 -43 29 -22 46 0 23 0 19 9 17 17 17 17 8 22 0 27 0 7 -2 10 -4 13 -57 220 -131 110 -205 0 rrcurveto
          -127 0 -96 -33 -66 -66 -124 -122 -64 -183 -3 -243 rrcurveto
          -165 vlineto
          2 -107 19 -103 35 -100 35 -100 51 -81 69 -63 68 -63 88 -31 109 0 rrcurveto
          endchar
        </CharString>
        <CharString name="H">
          0 950 -30 rmoveto
          25 0 21 9 18 18 17 17 9 21 0 25 rrcurveto
          1280 vlineto
          0 25 -9 21 -17 18 -18 17 -21 9 -25 0 -25 0 -21 -9 -17 -17 -18 -18 -9 -21 0 -25 rrcurveto
          -507 vlineto
          0 -12 -4 -10 -8 -8 -9 -9 -10 -4 -12 0 rrcurveto
          -434 hlineto
          -12 0 -10 4 -8 9 -8 8 -4 10 0 12 rrcurveto
          507 vlineto
          0 25 -9 21 -18 18 -18 17 -21 9 -25 0 -25 0 -21 -9 -17 -17 -18 -18 -9 -21 0 -25 rrcurveto
          -1280 vlineto
          0 -25 9 -21 18 -17 17 -18 21 -9 25 0 25 0 21 9 18 18 18 17 9 21 0 25 rrcurveto
          508 vlineto
          0 12 4 10 8 8 8 8 10 4 12 0 rrcurveto
          434 hlineto
          12 0 10 -4 9 -8 8 -8 4 -10 0 -12 rrcurveto
          -508 vlineto
          0 -25 9 -21 18 -17 17 -18 21 -9 25 0 rrcurveto
          endchar
        </CharString>
        <CharString name="I">
          0 920 hmoveto
          25 0 21 9 18 18 17 17 9 21 0 25 0 25 -9 21 -17 18 -18 17 -21 9 -25 0 rrcurveto
          -188 hlineto
          -11 0 -10 4 -8 9 -9 8 -4 10 0 12 rrcurveto
          954 vlineto
          0 12 4 10 9 8 8 8 10 4 11 0 rrcurveto
          188 hlineto
          25 0 21 9 18 18 17 17 9 21 0 25 0 25 -9 21 -17 18 -18 18 -21 9 -25 0 rrcurveto
          -640 hlineto
          -25 0 -21 -9 -17 -18 -18 -18 -9 -21 0 -25 0 -25 9 -21 18 -17 17 -18 21 -9 25 0 rrcurveto
          187 hlineto
          12 0 10 -4 9 -8 8 -8 4 -10 0 -12 rrcurveto
          -954 vlineto
          0 -12 -4 -10 -8 -8 -9 -9 -10 -4 -12 0 rrcurveto
          -187 hlineto
          -25 0 -21 -9 -17 -17 -18 -18 -9 -21 0 -25 0 -25 9 -21 18 -17 17 -18 21 -9 25 0 rrcurveto
          endchar
        </CharString>
        <CharString name="Iacute">
          0 920 hmoveto
          25 0 21 9 18 18 17 17 9 21 0 25 0 25 -9 21 -17 18 -18 17 -21 9 -25 0 rrcurveto
          -188 hlineto
          -11 0 -10 4 -8 9 -9 8 -4 10 0 12 rrcurveto
          954 vlineto
          0 12 4 10 9 8 8 8 10 4 11 0 rrcurveto
          188 hlineto
          25 0 21 9 18 18 17 17 9 21 0 25 0 25 -9 21 -17 18 -18 18 -21 9 -25 0 rrcurveto
          -640 hlineto
          -25 0 -21 -9 -17 -18 -18 -18 -9 -21 0 -25 0 -25 9 -21 18 -17 17 -18 21 -9 25 0 rrcurveto
          187 hlineto
          12 0 10 -4 9 -8 8 -8 4 -10 0 -12 rrcurveto
          -954 vlineto
          0 -12 -4 -10 -8 -8 -9 -9 -10 -4 -12 0 rrcurveto
          -187 hlineto
          -25 0 -21 -9 -17 -17 -18 -18 -9 -21 0 -25 0 -25 9 -21 18 -17 17 -18 21 -9 25 0 rrcurveto
          181 1565 rmoveto
          8 0 8 2 8 3 rrcurveto
          283 109 rlineto
          35 14 21 33 0 35 0 16 -5 15 -8 15 -17 27 -29 15 -30 0 -15 0 -15 -4 -14 -8 rrcurveto
          -261 -153 rlineto
          -21 -12 -11 -21 0 -22 0 -10 3 -10 5 -10 11 -21 21 -13 23 0 rrcurveto
          endchar
        </CharString>
        <CharString name="Icircumflex">
          0 920 hmoveto
          25 0 21 9 18 18 17 17 9 21 0 25 0 25 -9 21 -17 18 -18 17 -21 9 -25 0 rrcurveto
          -188 hlineto
          -11 0 -10 4 -8 9 -9 8 -4 10 0 12 rrcurveto
          954 vlineto
          0 12 4 10 9 8 8 8 10 4 11 0 rrcurveto
          188 hlineto
          25 0 21 9 18 18 17 17 9 21 0 25 0 25 -9 21 -17 18 -18 18 -21 9 -25 0 rrcurveto
          -640 hlineto
          -25 0 -21 -9 -17 -18 -18 -18 -9 -21 0 -25 0 -25 9 -21 18 -17 17 -18 21 -9 25 0 rrcurveto
          187 hlineto
          12 0 10 -4 9 -8 8 -8 4 -10 0 -12 rrcurveto
          -954 vlineto
          0 -12 -4 -10 -8 -8 -9 -9 -10 -4 -12 0 rrcurveto
          -187 hlineto
          -25 0 -21 -9 -17 -17 -18 -18 -9 -21 0 -25 0 -25 9 -21 18 -17 17 -18 21 -9 25 0 rrcurveto
          73 1575 rmoveto
          12 0 13 4 11 7 rrcurveto
          176 113 rlineto
          11 7 12 4 13 0 12 0 12 -4 11 -7 rrcurveto
          178 -113 rlineto
          11 -7 12 -3 12 0 19 0 18 8 13 15 11 13 6 15 0 15 0 19 -9 19 -15 13 rrcurveto
          -176 144 rlineto
          -32 27 -41 15 -42 0 -41 0 -41 -15 -32 -26 rrcurveto
          -177 -144 rlineto
          -16 -13 -8 -19 0 -19 0 -16 6 -16 11 -13 13 -15 18 -8 19 0 rrcurveto
          endchar
        </CharString>
        <CharString name="Idieresis">
          0 920 hmoveto
          25 0 21 9 18 18 17 17 9 21 0 25 0 25 -9 21 -17 18 -18 17 -21 9 -25 0 rrcurveto
          -188 hlineto
          -11 0 -10 4 -8 9 -9 8 -4 10 0 12 rrcurveto
          954 vlineto
          0 12 4 10 9 8 8 8 10 4 11 0 rrcurveto
          188 hlineto
          25 0 21 9 18 18 17 17 9 21 0 25 0 25 -9 21 -17 18 -18 18 -21 9 -25 0 rrcurveto
          -640 hlineto
          -25 0 -21 -9 -17 -18 -18 -18 -9 -21 0 -25 0 -25 9 -21 18 -17 17 -18 21 -9 25 0 rrcurveto
          187 hlineto
          12 0 10 -4 9 -8 8 -8 4 -10 0 -12 rrcurveto
          -954 vlineto
          0 -12 -4 -10 -8 -8 -9 -9 -10 -4 -12 0 rrcurveto
          -187 hlineto
          -25 0 -21 -9 -17 -17 -18 -18 -9 -21 0 -25 0 -25 9 -21 18 -17 17 -18 21 -9 25 0 rrcurveto
          105 1573 rmoveto
          34 0 28 12 23 22 23 23 12 28 0 33 0 34 -12 29 -23 22 -23 23 -28 11 -34 0 -35 0 -29 -11 -23 -23 -23 -22 -12 -29 0 -34 0 -33 12 -28 23 -23 23 -22 29 -12 35 0 rrcurveto
          431 hmoveto
          35 0 29 12 23 22 23 23 12 28 0 33 0 34 -12 29 -23 22 -23 23 -29 11 -35 0 -34 0 -28 -11 -23 -23 -24 -22 -11 -29 0 -34 0 -33 11 -28 24 -23 23 -22 28 -12 34 0 rrcurveto
          endchar
        </CharString>
        <CharString name="Igrave">
          0 920 hmoveto
          25 0 21 9 18 18 17 17 9 21 0 25 0 25 -9 21 -17 18 -18 17 -21 9 -25 0 rrcurveto
          -188 hlineto
          -11 0 -10 4 -8 9 -9 8 -4 10 0 12 rrcurveto
          954 vlineto
          0 12 4 10 9 8 8 8 10 4 11 0 rrcurveto
          188 hlineto
          25 0 21 9 18 18 17 17 9 21 0 25 0 25 -9 21 -17 18 -18 18 -21 9 -25 0 rrcurveto
          -640 hlineto
          -25 0 -21 -9 -17 -18 -18 -18 -9 -21 0 -25 0 -25 9 -21 18 -17 17 -18 21 -9 25 0 rrcurveto
          187 hlineto
          12 0 10 -4 9 -8 8 -8 4 -10 0 -12 rrcurveto
          -954 vlineto
          0 -12 -4 -10 -8 -8 -9 -9 -10 -4 -12 0 rrcurveto
          -187 hlineto
          -25 0 -21 -9 -17 -17 -18 -18 -9 -21 0 -25 0 -25 9 -21 18 -17 17 -18 21 -9 25 0 rrcurveto
          481 1565 rmoveto
          22 0 22 13 11 21 5 10 3 10 0 10 0 22 -12 21 -20 12 rrcurveto
          -261 153 rlineto
          -14 8 -15 4 -15 0 -30 0 -29 -15 -17 -27 -9 -15 -4 -15 0 -16 0 -35 21 -33 35 -14 rrcurveto
          283 -109 rlineto
          8 -3 8 -2 8 0 rrcurveto
          endchar
        </CharString>
        <CharString name="J">
          0 590 -30 rmoveto
          76 0 69 17 63 34 62 34 49 47 37 59 36 59 18 66 0 75 rrcurveto
          947 vlineto
          0 25 -9 21 -18 19 -19 18 -22 9 -26 0 rrcurveto
          -413 hlineto
          -25 0 -21 -9 -17 -17 -18 -18 -9 -21 0 -25 0 -24 9 -21 18 -18 17 -19 21 -9 25 0 rrcurveto
          285 hlineto
          12 0 10 -4 8 -7 8 -8 4 -10 0 -12 rrcurveto
          -817 vlineto
          0 -57 -20 -50 -41 -42 -27 -27 -30 -18 -31 -9 -31 -9 -40 -4 -47 0 -63 0 -52 15 -39 29 -39 29 -26 37 -13 45 -17 43 -30 21 -41 0 -26 0 -22 -9 -17 -18 -17 -19 -9 -21 0 -25 rrcurveto
          2 -63 34 -62 66 -61 48 -47 52 -31 55 -15 55 -15 64 -8 72 0 rrcurveto
          endchar
        </CharString>
        <CharString name="K">
          0 1002 -30 rmoveto
          25 0 22 9 17 18 17 18 9 21 0 23 0 15 -4 14 -8 15 rrcurveto
          -413 682 rlineto
          -4 7 -2 6 0 7 0 10 3 9 7 9 rrcurveto
          330 451 rlineto
          13 18 6 18 0 19 0 23 -8 21 -17 19 -17 19 -21 9 -26 0 -28 0 -24 -11 -19 -23 rrcurveto
          -403 -544 rlineto
          -17 -24 -14 -12 -12 0 -11 0 -9 4 -5 8 -6 7 -3 17 0 27 rrcurveto
          461 vlineto
          0 25 -9 22 -17 17 -18 17 -21 9 -25 0 -25 0 -21 -9 -17 -17 -18 -17 -9 -22 0 -25 rrcurveto
          -1281 vlineto
          0 -24 9 -21 18 -17 17 -18 21 -9 25 0 25 0 21 9 18 18 17 17 9 21 0 24 rrcurveto
          362 vlineto
          0 21 6 19 13 17 rrcurveto
          91 130 rlineto
          10 11 11 5 13 0 15 0 12 -7 10 -15 rrcurveto
          361 -586 rlineto
          19 -31 27 -15 34 0 rrcurveto
          endchar
        </CharString>
        <CharString name="L">
          0 982 hmoveto
          24 0 21 9 17 18 17 17 9 21 0 24 -1 26 -8 22 -17 17 -17 17 -22 9 -27 0 rrcurveto
          -461 hlineto
          -25 0 -20 9 -17 17 -17 17 -8 21 0 25 rrcurveto
          1069 vlineto
          0 24 -8 21 -15 19 -16 18 -22 9 -28 1 -27 0 -22 -9 -17 -17 -17 -18 -8 -21 0 -25 rrcurveto
          -1201 vlineto
          0 -39 14 -32 27 -27 27 -27 32 -14 39 0 rrcurveto
          endchar
        </CharString>
        <CharString name="M">
          0 968 -30 rmoveto
          24 0 21 9 19 18 18 17 9 22 0 25 rrcurveto
          1260 vlineto
          0 29 -11 26 -21 22 -22 21 -26 11 -30 0 -22 0 -20 -6 -18 -11 -18 -12 -13 -16 -9 -21 rrcurveto
          -211 -550 rlineto
          -4 -10 -5 -8 -5 -7 -5 -7 -9 -3 -11 0 -18 0 -13 12 -8 23 rrcurveto
          -212 550 rlineto
          -8 21 -13 16 -18 12 -19 11 -20 6 -22 0 -29 0 -25 -11 -21 -21 -21 -22 -11 -26 0 -29 rrcurveto
          -1260 vlineto
          0 -25 9 -22 18 -17 17 -18 21 -9 25 0 24 0 21 9 18 18 18 17 9 22 0 25 rrcurveto
          833 vlineto
          0 14 7 7 13 0 7 0 6 -4 4 -8 rrcurveto
          132 -348 rlineto
          9 -23 15 -17 20 -12 20 -12 21 -6 23 0 23 0 22 6 21 13 20 13 14 17 9 21 rrcurveto
          132 348 rlineto
          5 8 6 4 7 0 5 0 5 -2 5 -3 4 -4 2 -5 0 -7 rrcurveto
          -833 vlineto
          0 -25 9 -22 18 -17 17 -18 21 -9 25 0 rrcurveto
          endchar
        </CharString>
        <CharString name="N">
          0 941 -30 rmoveto
          29 0 26 11 22 21 21 21 11 26 0 31 rrcurveto
          1260 vlineto
          0 25 -9 22 -17 17 -18 17 -21 9 -25 0 -25 0 -21 -9 -17 -17 -18 -17 -9 -22 0 -25 rrcurveto
          -880 vlineto
          0 -14 -7 -7 -13 0 -7 0 -6 4 -4 8 rrcurveto
          -474 916 rlineto
          -25 42 -33 21 -41 0 -30 0 -26 -11 -21 -21 -22 -22 -11 -26 0 -29 rrcurveto
          -1260 vlineto
          0 -25 9 -22 18 -17 17 -18 21 -9 25 0 25 0 22 9 18 18 17 17 9 22 0 25 rrcurveto
          880 vlineto
          0 13 6 7 13 0 7 0 6 -4 5 -7 rrcurveto
          473 -916 rlineto
          25 -43 33 -21 42 0 rrcurveto
          endchar
        </CharString>
        <CharString name="Ntilde">
          0 941 -30 rmoveto
          29 0 26 11 22 21 21 21 11 26 0 31 rrcurveto
          1260 vlineto
          0 25 -9 22 -17 17 -18 17 -21 9 -25 0 -25 0 -21 -9 -17 -17 -18 -17 -9 -22 0 -25 rrcurveto
          -880 vlineto
          0 -14 -7 -7 -13 0 -7 0 -6 4 -4 8 rrcurveto
          -474 916 rlineto
          -25 42 -33 21 -41 0 -30 0 -26 -11 -21 -21 -22 -22 -11 -26 0 -29 rrcurveto
          -1260 vlineto
          0 -25 9 -22 18 -17 17 -18 21 -9 25 0 25 0 22 9 18 18 17 17 9 22 0 25 rrcurveto
          880 vlineto
          0 13 6 7 13 0 7 0 6 -4 5 -7 rrcurveto
          473 -916 rlineto
          25 -43 33 -21 42 0 rrcurveto
          -222 1620 rmoveto
          77 0 63 38 50 76 7 12 4 13 0 12 0 25 -13 28 -27 9 -10 5 -10 2 -11 0 -20 0 -19 -9 -13 -16 -7 -9 -8 -8 -7 -6 -17 -15 -18 -7 -21 0 -25 0 -24 8 -21 17 rrcurveto
          -22 16 -23 16 -26 16 -26 16 -33 8 -38 0 -52 0 -45 -18 -37 -35 -20 -20 -18 -21 -16 -23 -8 -12 -4 -13 0 -13 0 -25 13 -23 24 -12 10 -5 10 -2 10 0 21 0 20 9 13 18 rrcurveto
          19 23 rlineto
          16 16 20 8 24 0 25 0 23 -9 22 -16 23 -16 24 -17 26 -16 27 -17 31 -8 37 0 rrcurveto
          endchar
        </CharString>
        <CharString name="O">
          0 600 150 rmoveto
          -105 0 -76 62 -45 125 -36 97 -18 121 0 145 0 145 18 121 36 97 45 125 76 62 105 0 105 0 75 -63 47 -126 35 -98 18 -120 0 -143 0 -142 -18 -120 -35 -98 -45 -127 -76 -63 -106 0 rrcurveto
          -180 vmoveto
          146 0 110 57 76 113 85 128 43 187 0 245 0 61 -3 64 -7 67 -7 67 -13 66 -19 63 -19 63 -27 58 -34 51 -35 51 -44 42 -53 31 -54 31 -66 15 -78 0 -145 0 -110 -57 -75 -113 rrcurveto
          -87 -131 -44 -187 0 -242 0 -356 87 -228 174 -99 54 -31 66 -16 79 0 rrcurveto
          endchar
        </CharString>
        <CharString name="Oacute">
          0 600 150 rmoveto
          -105 0 -76 62 -45 125 -36 97 -18 121 0 145 0 145 18 121 36 97 45 125 76 62 105 0 105 0 75 -63 47 -126 35 -98 18 -120 0 -143 0 -142 -18 -120 -35 -98 -45 -127 -76 -63 -106 0 rrcurveto
          -180 vmoveto
          146 0 110 57 76 113 85 128 43 187 0 245 0 61 -3 64 -7 67 -7 67 -13 66 -19 63 -19 63 -27 58 -34 51 -35 51 -44 42 -53 31 -54 31 -66 15 -78 0 -145 0 -110 -57 -75 -113 rrcurveto
          -87 -131 -44 -187 0 -242 0 -356 87 -228 174 -99 54 -31 66 -16 79 0 rrcurveto
          -139 1595 rmoveto
          8 0 8 2 8 3 rrcurveto
          283 109 rlineto
          35 14 21 33 0 35 0 16 -5 15 -8 15 -17 27 -29 15 -30 0 -15 0 -15 -4 -14 -8 rrcurveto
          -261 -153 rlineto
          -21 -12 -11 -21 0 -22 0 -10 3 -10 5 -10 11 -21 21 -13 23 0 rrcurveto
          endchar
        </CharString>
        <CharString name="Ocircumflex">
          0 600 150 rmoveto
          -105 0 -76 62 -45 125 -36 97 -18 121 0 145 0 145 18 121 36 97 45 125 76 62 105 0 105 0 75 -63 47 -126 35 -98 18 -120 0 -143 0 -142 -18 -120 -35 -98 -45 -127 -76 -63 -106 0 rrcurveto
          -180 vmoveto
          146 0 110 57 76 113 85 128 43 187 0 245 0 61 -3 64 -7 67 -7 67 -13 66 -19 63 -19 63 -27 58 -34 51 -35 51 -44 42 -53 31 -54 31 -66 15 -78 0 -145 0 -110 -57 -75 -113 rrcurveto
          -87 -131 -44 -187 0 -242 0 -356 87 -228 174 -99 54 -31 66 -16 79 0 rrcurveto
          -247 1605 rmoveto
          12 0 13 4 11 7 rrcurveto
          176 113 rlineto
          11 7 12 4 13 0 12 0 12 -4 11 -7 rrcurveto
          178 -113 rlineto
          11 -7 12 -3 12 0 19 0 18 8 13 15 11 13 6 15 0 15 0 19 -9 19 -15 13 rrcurveto
          -176 144 rlineto
          -32 27 -41 15 -42 0 -41 0 -41 -15 -32 -26 rrcurveto
          -177 -144 rlineto
          -16 -13 -8 -19 0 -19 0 -16 6 -16 11 -13 13 -15 18 -8 19 0 rrcurveto
          endchar
        </CharString>
        <CharString name="Odieresis">
          0 600 150 rmoveto
          -105 0 -76 62 -45 125 -36 97 -18 121 0 145 0 145 18 121 36 97 45 125 76 62 105 0 105 0 75 -63 47 -126 35 -98 18 -120 0 -143 0 -142 -18 -120 -35 -98 -45 -127 -76 -63 -106 0 rrcurveto
          -180 vmoveto
          146 0 110 57 76 113 85 128 43 187 0 245 0 61 -3 64 -7 67 -7 67 -13 66 -19 63 -19 63 -27 58 -34 51 -35 51 -44 42 -53 31 -54 31 -66 15 -78 0 -145 0 -110 -57 -75 -113 rrcurveto
          -87 -131 -44 -187 0 -242 0 -356 87 -228 174 -99 54 -31 66 -16 79 0 rrcurveto
          -215 1603 rmoveto
          34 0 28 12 23 22 23 23 12 28 0 33 0 34 -12 29 -23 22 -23 23 -28 11 -34 0 -35 0 -29 -11 -23 -23 -23 -22 -12 -29 0 -34 0 -33 12 -28 23 -23 23 -22 29 -12 35 0 rrcurveto
          431 hmoveto
          35 0 29 12 23 22 23 23 12 28 0 33 0 34 -12 29 -23 22 -23 23 -29 11 -35 0 -34 0 -28 -11 -23 -23 -24 -22 -11 -29 0 -34 0 -33 11 -28 24 -23 23 -22 28 -12 34 0 rrcurveto
          endchar
        </CharString>
        <CharString name="Ograve">
          0 600 150 rmoveto
          -105 0 -76 62 -45 125 -36 97 -18 121 0 145 0 145 18 121 36 97 45 125 76 62 105 0 105 0 75 -63 47 -126 35 -98 18 -120 0 -143 0 -142 -18 -120 -35 -98 -45 -127 -76 -63 -106 0 rrcurveto
          -180 vmoveto
          146 0 110 57 76 113 85 128 43 187 0 245 0 61 -3 64 -7 67 -7 67 -13 66 -19 63 -19 63 -27 58 -34 51 -35 51 -44 42 -53 31 -54 31 -66 15 -78 0 -145 0 -110 -57 -75 -113 rrcurveto
          -87 -131 -44 -187 0 -242 0 -356 87 -228 174 -99 54 -31 66 -16 79 0 rrcurveto
          161 1595 rmoveto
          22 0 22 13 11 21 5 10 3 10 0 10 0 22 -12 21 -20 12 rrcurveto
          -261 153 rlineto
          -14 8 -15 4 -15 0 -30 0 -29 -15 -17 -27 -9 -15 -4 -15 0 -16 0 -35 21 -33 35 -14 rrcurveto
          283 -109 rlineto
          8 -3 8 -2 8 0 rrcurveto
          endchar
        </CharString>
        <CharString name="Oslash">
          0 600 150 rmoveto
          -105 0 -76 62 -45 125 -36 97 -18 121 0 145 0 145 18 121 36 97 45 125 76 62 105 0 105 0 75 -63 47 -126 35 -98 18 -120 0 -143 0 -142 -18 -120 -35 -98 -45 -127 -76 -63 -106 0 rrcurveto
          -180 vmoveto
          146 0 110 57 76 113 85 128 43 187 0 245 0 61 -3 64 -7 67 -7 67 -13 66 -19 63 -19 63 -27 58 -34 51 -35 51 -44 42 -53 31 -54 31 -66 15 -78 0 -145 0 -110 -57 -75 -113 rrcurveto
          -87 -131 -44 -187 0 -242 0 -356 87 -228 174 -99 54 -31 66 -16 79 0 rrcurveto
          -360 -170 rmoveto
          17 0 16 5 15 10 15 9 12 13 7 17 rrcurveto
          720 1620 rlineto
          5 13 3 12 0 12 0 17 -5 16 -9 15 -17 27 -26 14 -33 0 -17 0 -16 -5 -15 -9 -15 -9 -12 -13 -7 -17 rrcurveto
          -720 -1620 rlineto
          -5 -13 -3 -12 0 -11 0 -17 5 -17 10 -15 17 -28 25 -14 33 0 rrcurveto
          endchar
        </CharString>
        <CharString name="Otilde">
          0 600 150 rmoveto
          -105 0 -76 62 -45 125 -36 97 -18 121 0 145 0 145 18 121 36 97 45 125 76 62 105 0 105 0 75 -63 47 -126 35 -98 18 -120 0 -143 0 -142 -18 -120 -35 -98 -45 -127 -76 -63 -106 0 rrcurveto
          -180 vmoveto
          146 0 110 57 76 113 85 128 43 187 0 245 0 61 -3 64 -7 67 -7 67 -13 66 -19 63 -19 63 -27 58 -34 51 -35 51 -44 42 -53 31 -54 31 -66 15 -78 0 -145 0 -110 -57 -75 -113 rrcurveto
          -87 -131 -44 -187 0 -242 0 -356 87 -228 174 -99 54 -31 66 -16 79 0 rrcurveto
          119 1620 rmoveto
          77 0 63 38 50 76 7 12 4 13 0 12 0 25 -13 28 -27 9 -10 5 -10 2 -11 0 -20 0 -19 -9 -13 -16 -7 -9 -8 -8 -7 -6 -17 -15 -18 -7 -21 0 -25 0 -24 8 -21 17 rrcurveto
          -22 16 -23 16 -26 16 -26 16 -33 8 -38 0 -52 0 -45 -18 -37 -35 -20 -20 -18 -21 -16 -23 -8 -12 -4 -13 0 -13 0 -25 13 -23 24 -12 10 -5 10 -2 10 0 21 0 20 9 13 18 rrcurveto
          19 23 rlineto
          16 16 20 8 24 0 25 0 23 -9 22 -16 23 -16 24 -17 26 -16 27 -17 31 -8 37 0 rrcurveto
          endchar
        </CharString>
        <CharString name="P">
          0 677 740 rmoveto
          -234 hlineto
          -12 0 -10 4 -8 9 -9 8 -4 10 0 12 rrcurveto
          394 vlineto
          0 12 4 10 9 8 8 8 10 4 12 0 rrcurveto
          234 hlineto
          37 0 34 -8 31 -17 31 -17 24 -26 19 -33 18 -33 9 -42 0 -50 0 -89 -20 -64 -40 -40 -40 -40 -48 -20 -55 0 rrcurveto
          -367 -770 rmoveto
          25 0 21 9 18 18 17 17 9 21 0 25 rrcurveto
          457 vlineto
          0 12 4 10 9 9 8 8 10 4 12 0 rrcurveto
          234 hlineto
          69 0 64 18 59 37 58 37 46 51 35 65 35 65 17 75 0 85 0 68 -9 57 -18 45 -19 45 -28 41 -37 37 -76 76 -91 38 -105 0 rrcurveto
          -363 hlineto
          -26 0 -22 -9 -18 -19 -19 -19 -9 -22 0 -25 rrcurveto
          -1246 vlineto
          0 -25 9 -21 18 -17 17 -18 21 -9 25 0 rrcurveto
          endchar
        </CharString>
        <CharString name="Q">
          0 600 150 rmoveto
          -105 0 -76 62 -45 125 -36 97 -18 121 0 145 0 145 18 121 36 97 45 125 76 62 105 0 105 0 75 -63 47 -126 35 -98 18 -120 0 -143 0 -142 -18 -120 -35 -98 -45 -127 -76 -63 -106 0 rrcurveto
          -180 vmoveto
          146 0 110 57 76 113 85 128 43 187 0 245 0 61 -3 64 -7 67 -7 67 -13 66 -19 63 -19 63 -27 58 -34 51 -35 51 -44 42 -53 31 -54 31 -66 15 -78 0 -145 0 -110 -57 -75 -113 rrcurveto
          -87 -131 -44 -187 0 -242 0 -356 87 -228 174 -99 54 -31 66 -16 79 0 rrcurveto
          386 -391 rmoveto
          25 0 21 9 18 19 18 19 9 20 0 23 0 18 -5 17 -11 16 -11 16 -15 11 -18 7 rrcurveto
          -390 142 rlineto
          -10 4 -10 2 -10 0 -25 0 -22 -9 -17 -19 -18 -19 -9 -20 0 -23 0 -18 6 -17 11 -15 11 -16 14 -12 17 -7 rrcurveto
          391 -142 rlineto
          10 -4 10 -2 10 0 rrcurveto
          endchar
        </CharString>
        <CharString name="R">
          0 638 750 rmoveto
          -224 hlineto
          -12 0 -10 4 -8 9 -9 8 -4 10 0 12 rrcurveto
          384 vlineto
          0 12 4 10 9 8 8 8 10 4 12 0 rrcurveto
          224 hlineto
          37 0 34 -8 31 -15 31 -16 24 -25 19 -33 18 -33 9 -43 0 -52 0 -52 -9 -44 -19 -36 -19 -37 -25 -27 -31 -19 -31 -19 -33 -10 -36 0 rrcurveto
          329 -780 rmoveto
          26 0 22 9 17 19 17 18 9 21 0 24 0 13 -4 14 -7 15 rrcurveto
          -281 441 rlineto
          -3 5 -2 7 0 7 0 18 8 13 17 9 44 19 40 28 35 36 35 36 29 44 21 52 21 52 10 59 0 65 0 73 -9 58 -19 43 -19 43 -28 39 -37 36 -75 76 -91 38 -105 0 rrcurveto
          -354 hlineto
          -25 0 -22 -9 -19 -19 -19 -19 -9 -22 0 -25 rrcurveto
          -1245 vlineto
          0 -26 9 -22 18 -17 18 -17 22 -9 26 0 23 0 21 9 18 18 17 17 9 22 0 25 rrcurveto
          466 vlineto
          0 12 4 10 9 9 8 8 10 4 12 0 rrcurveto
          109 hlineto
          15 0 12 -7 9 -15 rrcurveto
          330 -532 rlineto
          20 -31 26 -15 32 0 rrcurveto
          endchar
        </CharString>
        <CharString name="S">
          0 610 -30 rmoveto
          82 0 69 14 57 29 57 29 51 43 46 57 45 57 23 71 0 85 0 139 -71 113 -142 86 -52 31 -71 31 -89 31 -159 53 -80 86 -2 117 0 66 23 52 45 37 45 37 56 18 68 0 rrcurveto
          58 0 52 -11 45 -23 45 -23 29 -30 14 -37 17 -49 29 -24 40 0 51 0 26 29 0 59 0 9 -1 10 -3 11 -17 74 -44 61 -71 49 -71 49 -93 24 -114 0 -75 0 -66 -15 -59 -29 rrcurveto
          -59 -30 -50 -45 -39 -60 -40 -60 -20 -77 0 -93 0 -186 129 -139 258 -91 41 -14 42 -18 43 -21 101 -48 51 -61 0 -73 0 -83 -36 -60 -71 -39 -45 -23 -48 -12 -50 0 -106 3 -94 52 -82 101 rrcurveto
          -25 32 -27 16 -28 0 -25 0 -21 -9 -15 -19 -16 -19 -8 -23 0 -29 0 -12 2 -11 5 -9 27 -61 56 -58 84 -55 83 -55 91 -27 99 0 rrcurveto
          endchar
        </CharString>
        <CharString name="T">
          0 600 -30 rmoveto
          25 0 21 9 18 18 17 17 9 21 0 25 rrcurveto
          1117 vlineto
          0 12 4 10 9 9 8 8 10 4 12 0 rrcurveto
          247 hlineto
          25 0 21 9 18 17 17 17 9 21 0 25 0 25 -9 21 -17 18 -18 18 -21 9 -25 0 rrcurveto
          -760 hlineto
          -25 0 -21 -9 -17 -18 -18 -18 -9 -21 0 -25 0 -25 9 -21 18 -17 17 -17 21 -9 25 0 rrcurveto
          247 hlineto
          14 0 11 -4 7 -8 7 -9 4 -10 0 -12 rrcurveto
          -1117 vlineto
          0 -25 9 -21 18 -17 17 -18 21 -9 25 0 rrcurveto
          endchar
        </CharString>
        <CharString name="Thorn">
          0 677 440 rmoveto
          -234 hlineto
          -12 0 -10 4 -8 9 -9 8 -4 10 0 12 rrcurveto
          494 vlineto
          0 12 4 10 9 8 8 8 10 4 12 0 rrcurveto
          234 hlineto
          37 0 34 -10 31 -20 31 -21 26 -27 22 -33 21 -33 11 -59 0 -83 0 -102 -20 -74 -40 -47 -40 -47 -51 -23 -62 0 rrcurveto
          -277 -380 rmoveto
          157 vlineto
          0 12 4 10 9 9 8 8 10 4 12 0 rrcurveto
          234 hlineto
          76 0 66 18 55 37 55 37 46 54 38 72 38 71 19 85 0 99 0 84 -11 70 -21 56 -22 56 -30 48 -37 39 -76 76 -91 38 -105 0 rrcurveto
          -277 140 hlineto
          0 25 -9 21 -17 18 -18 17 -21 9 -25 0 -25 0 -21 -9 -17 -17 -18 -18 -9 -21 0 -25 rrcurveto
          -1280 vlineto
          0 -25 9 -21 18 -17 17 -18 21 -9 25 0 25 0 21 9 18 18 17 17 9 21 0 25 rrcurveto
          endchar
        </CharString>
        <CharString name="U">
          0 599 -30 rmoveto
          92 0 79 22 66 44 65 44 51 62 35 80 35 79 18 93 0 107 rrcurveto
          843 vlineto
          0 25 -9 21 -17 18 -18 17 -21 9 -25 0 -25 0 -21 -9 -18 -17 -18 -18 -9 -21 0 -25 rrcurveto
          -843 vlineto
          0 -66 -10 -59 -19 -52 -19 -53 -29 -41 -39 -30 -39 -30 -48 -15 -57 0 -57 0 -48 16 -38 31 -39 31 -29 41 -19 53 -19 52 -10 58 0 64 rrcurveto
          843 vlineto
          0 25 -9 21 -17 18 -18 17 -21 9 -25 0 -25 0 -21 -9 -17 -17 -18 -18 -9 -21 0 -25 rrcurveto
          -843 vlineto
          0 -107 18 -93 35 -79 35 -80 50 -62 66 -44 65 -44 79 -22 91 0 rrcurveto
          endchar
        </CharString>
        <CharString name="Uacute">
          0 599 -30 rmoveto
          92 0 79 22 66 44 65 44 51 62 35 80 35 79 18 93 0 107 rrcurveto
          843 vlineto
          0 25 -9 21 -17 18 -18 17 -21 9 -25 0 -25 0 -21 -9 -18 -17 -18 -18 -9 -21 0 -25 rrcurveto
          -843 vlineto
          0 -66 -10 -59 -19 -52 -19 -53 -29 -41 -39 -30 -39 -30 -48 -15 -57 0 -57 0 -48 16 -38 31 -39 31 -29 41 -19 53 -19 52 -10 58 0 64 rrcurveto
          843 vlineto
          0 25 -9 21 -17 18 -18 17 -21 9 -25 0 -25 0 -21 -9 -17 -17 -18 -18 -9 -21 0 -25 rrcurveto
          -843 vlineto
          0 -107 18 -93 35 -79 35 -80 50 -62 66 -44 65 -44 79 -22 91 0 rrcurveto
          -138 1595 rmoveto
          8 0 8 2 8 3 rrcurveto
          283 109 rlineto
          35 14 21 33 0 35 0 16 -5 15 -8 15 -17 27 -29 15 -30 0 -15 0 -15 -4 -14 -8 rrcurveto
          -261 -153 rlineto
          -21 -12 -11 -21 0 -22 0 -10 3 -10 5 -10 11 -21 21 -13 23 0 rrcurveto
          endchar
        </CharString>
        <CharString name="Ucircumflex">
          0 599 -30 rmoveto
          92 0 79 22 66 44 65 44 51 62 35 80 35 79 18 93 0 107 rrcurveto
          843 vlineto
          0 25 -9 21 -17 18 -18 17 -21 9 -25 0 -25 0 -21 -9 -18 -17 -18 -18 -9 -21 0 -25 rrcurveto
          -843 vlineto
          0 -66 -10 -59 -19 -52 -19 -53 -29 -41 -39 -30 -39 -30 -48 -15 -57 0 -57 0 -48 16 -38 31 -39 31 -29 41 -19 53 -19 52 -10 58 0 64 rrcurveto
          843 vlineto
          0 25 -9 21 -17 18 -18 17 -21 9 -25 0 -25 0 -21 -9 -17 -17 -18 -18 -9 -21 0 -25 rrcurveto
          -843 vlineto
          0 -107 18 -93 35 -79 35 -80 50 -62 66 -44 65 -44 79 -22 91 0 rrcurveto
          -214 1603 rmoveto
          34 0 28 12 23 22 23 23 12 28 0 33 0 34 -12 29 -23 22 -23 23 -28 11 -34 0 -35 0 -29 -11 -23 -23 -23 -22 -12 -29 0 -34 0 -33 12 -28 23 -23 23 -22 29 -12 35 0 rrcurveto
          431 hmoveto
          35 0 29 12 23 22 23 23 12 28 0 33 0 34 -12 29 -23 22 -23 23 -29 11 -35 0 -34 0 -28 -11 -23 -23 -24 -22 -11 -29 0 -34 0 -33 11 -28 24 -23 23 -22 28 -12 34 0 rrcurveto
          endchar
        </CharString>
        <CharString name="Udieresis">
          0 599 -30 rmoveto
          92 0 79 22 66 44 65 44 51 62 35 80 35 79 18 93 0 107 rrcurveto
          843 vlineto
          0 25 -9 21 -17 18 -18 17 -21 9 -25 0 -25 0 -21 -9 -18 -17 -18 -18 -9 -21 0 -25 rrcurveto
          -843 vlineto
          0 -66 -10 -59 -19 -52 -19 -53 -29 -41 -39 -30 -39 -30 -48 -15 -57 0 -57 0 -48 16 -38 31 -39 31 -29 41 -19 53 -19 52 -10 58 0 64 rrcurveto
          843 vlineto
          0 25 -9 21 -17 18 -18 17 -21 9 -25 0 -25 0 -21 -9 -17 -17 -18 -18 -9 -21 0 -25 rrcurveto
          -843 vlineto
          0 -107 18 -93 35 -79 35 -80 50 -62 66 -44 65 -44 79 -22 91 0 rrcurveto
          -246 1605 rmoveto
          12 0 13 4 11 7 rrcurveto
          176 113 rlineto
          11 7 12 4 13 0 12 0 12 -4 11 -7 rrcurveto
          178 -113 rlineto
          11 -7 12 -3 12 0 19 0 18 8 13 15 11 13 6 15 0 15 0 19 -9 19 -15 13 rrcurveto
          -176 144 rlineto
          -32 27 -41 15 -42 0 -41 0 -41 -15 -32 -26 rrcurveto
          -177 -144 rlineto
          -16 -13 -8 -19 0 -19 0 -16 6 -16 11 -13 13 -15 18 -8 19 0 rrcurveto
          endchar
        </CharString>
        <CharString name="Ugrave">
          0 599 -30 rmoveto
          92 0 79 22 66 44 65 44 51 62 35 80 35 79 18 93 0 107 rrcurveto
          843 vlineto
          0 25 -9 21 -17 18 -18 17 -21 9 -25 0 -25 0 -21 -9 -18 -17 -18 -18 -9 -21 0 -25 rrcurveto
          -843 vlineto
          0 -66 -10 -59 -19 -52 -19 -53 -29 -41 -39 -30 -39 -30 -48 -15 -57 0 -57 0 -48 16 -38 31 -39 31 -29 41 -19 53 -19 52 -10 58 0 64 rrcurveto
          843 vlineto
          0 25 -9 21 -17 18 -18 17 -21 9 -25 0 -25 0 -21 -9 -17 -17 -18 -18 -9 -21 0 -25 rrcurveto
          -843 vlineto
          0 -107 18 -93 35 -79 35 -80 50 -62 66 -44 65 -44 79 -22 91 0 rrcurveto
          162 1595 rmoveto
          22 0 22 13 11 21 5 10 3 10 0 10 0 22 -12 21 -20 12 rrcurveto
          -261 153 rlineto
          -14 8 -15 4 -15 0 -30 0 -29 -15 -17 -27 -9 -15 -4 -15 0 -16 0 -35 21 -33 35 -14 rrcurveto
          283 -109 rlineto
          8 -3 8 -2 8 0 rrcurveto
          endchar
        </CharString>
        <CharString name="V">
          0 600 -13 rmoveto
          26 0 23 8 21 17 21 17 14 21 8 26 rrcurveto
          355 1257 rlineto
          1 8 1 7 0 7 0 24 -8 21 -17 19 -17 19 -22 9 -26 0 -21 0 -18 -6 -16 -12 -17 -13 -11 -16 -5 -20 rrcurveto
          -272 -984 rlineto
          -1 -9 -7 -4 -12 0 -9 0 -6 4 -3 9 rrcurveto
          -274 984 rlineto
          -6 20 -11 16 -16 13 -16 12 -18 6 -20 0 -23 0 -20 -9 -19 -17 -19 -17 -10 -22 0 -25 0 -9 115 -427 231 -845 9 -29 15 -22 22 -15 22 -15 26 -8 30 0 rrcurveto
          endchar
        </CharString>
        <CharString name="W">
          0 906 -30 rmoveto
          29 0 26 10 21 20 21 19 11 25 2 30 rrcurveto
          68 1267 rlineto
          0 24 -9 21 -19 18 -19 17 -21 9 -25 0 -24 0 -21 -8 -17 -17 -18 -17 -10 -21 -2 -25 rrcurveto
          -40 -868 rlineto
          0 -13 -6 -6 -12 0 -9 0 -6 5 -3 9 rrcurveto
          -124 459 rlineto
          -7 21 -12 17 -19 13 -19 13 -20 6 -22 0 -22 0 -20 -6 -18 -13 -19 -13 -12 -17 -7 -20 rrcurveto
          -128 -460 rlineto
          -3 -9 -6 -5 -8 0 -10 0 -5 6 -1 13 rrcurveto
          -43 868 rlineto
          -1 25 -10 21 -17 17 -17 17 -21 8 -24 0 -25 0 -21 -8 -18 -17 -19 -17 -9 -21 0 -24 rrcurveto
          68 -1269 rlineto
          1 -30 12 -25 21 -19 21 -20 25 -10 29 0 23 0 21 7 19 13 19 13 13 18 9 23 rrcurveto
          188 635 rlineto
          3 9 5 4 7 0 7 0 5 -4 3 -9 rrcurveto
          188 -633 rlineto
          7 -23 14 -18 19 -14 19 -14 21 -7 23 0 rrcurveto
          endchar
        </CharString>
        <CharString name="X">
          0 961 -30 rmoveto
          27 0 22 10 17 19 17 19 8 22 0 24 0 15 -4 15 -7 15 rrcurveto
          -324 583 rlineto
          -3 6 -2 7 0 7 0 7 2 7 3 7 rrcurveto
          301 557 rlineto
          7 15 4 15 0 15 0 25 -8 22 -17 19 -17 19 -22 10 -27 0 -34 0 -27 -17 -21 -33 rrcurveto
          -238 -459 rlineto
          -4 -7 -5 -4 -6 0 -7 0 -5 4 -4 7 rrcurveto
          -238 459 rlineto
          -20 33 -28 17 -36 0 -26 0 -22 -10 -17 -19 -17 -19 -9 -22 0 -25 0 -15 4 -15 7 -15 rrcurveto
          301 -557 rlineto
          3 -7 2 -7 0 -7 0 -7 -2 -7 -3 -6 rrcurveto
          -324 -583 rlineto
          -8 -15 -4 -16 0 -15 0 -25 9 -21 18 -19 18 -19 22 -9 27 0 33 0 26 16 21 33 rrcurveto
          264 505 rlineto
          3 6 5 3 7 0 7 0 5 -3 3 -6 rrcurveto
          261 -505 rlineto
          21 -33 27 -16 34 0 rrcurveto
          endchar
        </CharString>
        <CharString name="Y">
          0 601 -30 rmoveto
          25 0 21 9 17 18 17 17 9 22 0 25 rrcurveto
          632 vlineto
          0 13 4 14 7 14 rrcurveto
          315 562 rlineto
          8 15 4 15 0 15 0 23 -8 21 -17 18 -17 18 -21 9 -25 0 -16 0 -15 -4 -15 -7 -15 -8 -12 -11 -8 -14 rrcurveto
          -226 -405 rlineto
          -9 -13 -12 -7 -14 0 -15 0 -12 7 -9 13 rrcurveto
          -222 405 rlineto
          -18 29 -28 15 -37 0 -25 0 -21 -9 -17 -18 -17 -18 -9 -20 0 -23 0 -15 4 -16 9 -15 rrcurveto
          317 -564 rlineto
          8 -13 4 -15 0 -17 rrcurveto
          -626 vlineto
          0 -25 9 -22 18 -17 17 -18 22 -9 25 0 rrcurveto
          endchar
        </CharString>
        <CharString name="Yacute">
          0 601 -30 rmoveto
          25 0 21 9 17 18 17 17 9 22 0 25 rrcurveto
          632 vlineto
          0 13 4 14 7 14 rrcurveto
          315 562 rlineto
          8 15 4 15 0 15 0 23 -8 21 -17 18 -17 18 -21 9 -25 0 -16 0 -15 -4 -15 -7 -15 -8 -12 -11 -8 -14 rrcurveto
          -226 -405 rlineto
          -9 -13 -12 -7 -14 0 -15 0 -12 7 -9 13 rrcurveto
          -222 405 rlineto
          -18 29 -28 15 -37 0 -25 0 -21 -9 -17 -18 -17 -18 -9 -20 0 -23 0 -15 4 -16 9 -15 rrcurveto
          317 -564 rlineto
          8 -13 4 -15 0 -17 rrcurveto
          -626 vlineto
          0 -25 9 -22 18 -17 17 -18 22 -9 25 0 rrcurveto
          -140 1595 rmoveto
          8 0 8 2 8 3 rrcurveto
          283 109 rlineto
          35 14 21 33 0 35 0 16 -5 15 -8 15 -17 27 -29 15 -30 0 -15 0 -15 -4 -14 -8 rrcurveto
          -261 -153 rlineto
          -21 -12 -11 -21 0 -22 0 -10 3 -10 5 -10 11 -21 21 -13 23 0 rrcurveto
          endchar
        </CharString>
        <CharString name="Z">
          0 940 hmoveto
          25 0 21 9 18 18 17 17 9 21 0 25 0 25 -9 22 -17 17 -18 17 -21 9 -25 0 rrcurveto
          -483 hlineto
          -13 0 -10 4 -7 9 -8 9 -4 10 0 12 0 7 2 8 4 7 rrcurveto
          591 944 rlineto
          12 22 6 24 0 25 0 39 -13 33 -27 27 -27 27 -33 13 -38 0 rrcurveto
          -631 hlineto
          -23 0 -21 -9 -18 -17 -19 -18 -9 -21 0 -25 0 -25 9 -22 19 -17 18 -18 21 -9 23 0 rrcurveto
          483 hlineto
          13 0 11 -4 8 -8 8 -9 4 -10 0 -11 0 -7 -2 -7 -3 -7 rrcurveto
          -592 -944 rlineto
          -13 -22 -7 -24 0 -25 0 -39 14 -33 28 -27 27 -28 33 -14 39 0 rrcurveto
          endchar
        </CharString>
        <CharString name="a">
          0 505 165 rmoveto
          -125 0 -63 82 0 163 1 93 13 82 25 69 24 69 36 55 47 40 47 39 53 20 60 0 70 0 52 -32 35 -65 23 -43 11 -46 0 -49 0 -117 -29 -109 -58 -99 -61 -99 -74 -51 -87 -2 rrcurveto
          476 -195 rmoveto
          22 0 17 5 13 10 22 17 11 24 0 31 0 15 -3 11 -5 7 -43 61 -23 116 -1 171 0 222 9 185 19 148 0 26 -8 19 -15 13 -22 19 -23 10 -23 0 -51 0 -29 -24 -8 -48 rrcurveto
          -3 -13 -6 -7 -9 0 -8 0 -7 3 -6 7 -45 53 -60 28 -75 1 -101 0 -87 -32 -73 -65 -74 -65 -56 -82 -38 -101 -38 -101 -19 -112 0 -121 0 -141 31 -107 62 -73 61 -73 90 -37 117 0 rrcurveto
          63 0 64 21 65 41 65 41 44 51 22 61 3 9 5 5 5 0 7 0 4 -3 2 -7 rrcurveto
          17 -61 rlineto
          28 -105 40 -53 51 0 rrcurveto
          endchar
        </CharString>
        <CharString name="a_alt">
          0 914 -30 rmoveto
          47 0 39 38 0 47 rrcurveto
          671 vlineto
          0 219 -153 135 -247 0 -113 0 -94 -27 -75 -55 -48 -34 -61 -50 0 -52 0 -53 35 -41 49 0 31 0 29 17 15 17 70 78 59 36 99 0 73 0 56 -18 40 -36 49 -47 10 -38 0 -100 rrcurveto
          0 -47 -15 -19 -57 0 -30 0 -28 8 -26 4 -41 6 -40 2 -41 0 -237 0 -176 -106 0 -234 0 -192 129 -129 235 0 93 0 77 20 59 40 59 40 24 36 19 30 rrcurveto
          -80 vlineto
          0 -47 39 -39 47 0 rrcurveto
          -374 148 rmoveto
          -150 0 -62 66 0 117 0 159 171 9 47 1 rrcurveto
          24 hlineto
          70 0 95 -8 49 -34 18 -13 22 -19 0 -33 rrcurveto
          -43 vlineto
          0 -122 -120 -80 -164 0 rrcurveto
          endchar
        </CharString>
        <CharString name="aacute">
          0 505 165 rmoveto
          -125 0 -63 82 0 163 1 93 13 82 25 69 24 69 36 55 47 40 47 39 53 20 60 0 70 0 52 -32 35 -65 23 -43 11 -46 0 -49 0 -117 -29 -109 -58 -99 -61 -99 -74 -51 -87 -2 rrcurveto
          476 -195 rmoveto
          22 0 17 5 13 10 22 17 11 24 0 31 0 15 -3 11 -5 7 -43 61 -23 116 -1 171 0 222 9 185 19 148 0 26 -8 19 -15 13 -22 19 -23 10 -23 0 -51 0 -29 -24 -8 -48 rrcurveto
          -3 -13 -6 -7 -9 0 -8 0 -7 3 -6 7 -45 53 -60 28 -75 1 -101 0 -87 -32 -73 -65 -74 -65 -56 -82 -38 -101 -38 -101 -19 -112 0 -121 0 -141 31 -107 62 -73 61 -73 90 -37 117 0 rrcurveto
          63 0 64 21 65 41 65 41 44 51 22 61 3 9 5 5 5 0 7 0 4 -3 2 -7 rrcurveto
          17 -61 rlineto
          28 -105 40 -53 51 0 rrcurveto
          -520 1295 rmoveto
          8 0 8 2 8 3 rrcurveto
          283 109 rlineto
          35 14 21 33 0 35 0 16 -5 15 -8 15 -17 27 -29 15 -30 0 -15 0 -15 -4 -14 -8 rrcurveto
          -261 -153 rlineto
          -21 -12 -11 -21 0 -22 0 -10 3 -10 5 -10 11 -21 21 -13 23 0 rrcurveto
          endchar
        </CharString>
        <CharString name="aacute_alt">
          0 461 1265 rmoveto
          8 0 8 2 8 3 rrcurveto
          283 109 rlineto
          35 14 21 33 0 35 0 16 -5 15 -8 15 -17 27 -29 15 -30 0 -15 0 -15 -4 -14 -8 rrcurveto
          -261 -153 rlineto
          -21 -12 -11 -21 0 -22 0 -10 3 -10 5 -10 11 -21 21 -13 23 0 rrcurveto
          453 -1295 rmoveto
          47 0 39 38 0 47 rrcurveto
          671 vlineto
          0 219 -153 135 -247 0 -113 0 -94 -27 -75 -55 -48 -34 -61 -50 0 -52 0 -53 35 -41 49 0 31 0 29 17 15 17 70 78 59 36 99 0 73 0 56 -18 40 -36 49 -47 10 -38 0 -100 rrcurveto
          0 -47 -15 -19 -57 0 -30 0 -28 8 -26 4 -41 6 -40 2 -41 0 -237 0 -176 -106 0 -234 0 -192 129 -129 235 0 93 0 77 20 59 40 59 40 24 36 19 30 rrcurveto
          -80 vlineto
          0 -47 39 -39 47 0 rrcurveto
          -374 148 rmoveto
          -150 0 -62 66 0 117 0 159 171 9 47 1 rrcurveto
          24 hlineto
          70 0 95 -8 49 -34 18 -13 22 -19 0 -33 rrcurveto
          -43 vlineto
          0 -122 -120 -80 -164 0 rrcurveto
          endchar
        </CharString>
        <CharString name="acircumflex">
          0 505 165 rmoveto
          -125 0 -63 82 0 163 1 93 13 82 25 69 24 69 36 55 47 40 47 39 53 20 60 0 70 0 52 -32 35 -65 23 -43 11 -46 0 -49 0 -117 -29 -109 -58 -99 -61 -99 -74 -51 -87 -2 rrcurveto
          476 -195 rmoveto
          22 0 17 5 13 10 22 17 11 24 0 31 0 15 -3 11 -5 7 -43 61 -23 116 -1 171 0 222 9 185 19 148 0 26 -8 19 -15 13 -22 19 -23 10 -23 0 -51 0 -29 -24 -8 -48 rrcurveto
          -3 -13 -6 -7 -9 0 -8 0 -7 3 -6 7 -45 53 -60 28 -75 1 -101 0 -87 -32 -73 -65 -74 -65 -56 -82 -38 -101 -38 -101 -19 -112 0 -121 0 -141 31 -107 62 -73 61 -73 90 -37 117 0 rrcurveto
          63 0 64 21 65 41 65 41 44 51 22 61 3 9 5 5 5 0 7 0 4 -3 2 -7 rrcurveto
          17 -61 rlineto
          28 -105 40 -53 51 0 rrcurveto
          -628 1305 rmoveto
          12 0 13 4 11 7 rrcurveto
          176 113 rlineto
          11 7 12 4 13 0 12 0 12 -4 11 -7 rrcurveto
          178 -113 rlineto
          11 -7 12 -3 12 0 19 0 18 8 13 15 11 13 6 15 0 15 0 19 -9 19 -15 13 rrcurveto
          -176 144 rlineto
          -32 27 -41 15 -42 0 -41 0 -41 -15 -32 -26 rrcurveto
          -177 -144 rlineto
          -16 -13 -8 -19 0 -19 0 -16 6 -16 11 -13 13 -15 18 -8 19 0 rrcurveto
          endchar
        </CharString>
        <CharString name="acircumflex_alt">
          0 353 1275 rmoveto
          12 0 13 4 11 7 rrcurveto
          176 113 rlineto
          11 7 12 4 13 0 12 0 12 -4 11 -7 rrcurveto
          178 -113 rlineto
          11 -7 12 -3 12 0 19 0 18 8 13 15 11 13 6 15 0 15 0 19 -9 19 -15 13 rrcurveto
          -176 144 rlineto
          -32 27 -41 15 -42 0 -41 0 -41 -15 -32 -26 rrcurveto
          -177 -144 rlineto
          -16 -13 -8 -19 0 -19 0 -16 6 -16 11 -13 13 -15 18 -8 19 0 rrcurveto
          561 -1305 rmoveto
          47 0 39 38 0 47 rrcurveto
          671 vlineto
          0 219 -153 135 -247 0 -113 0 -94 -27 -75 -55 -48 -34 -61 -50 0 -52 0 -53 35 -41 49 0 31 0 29 17 15 17 70 78 59 36 99 0 73 0 56 -18 40 -36 49 -47 10 -38 0 -100 rrcurveto
          0 -47 -15 -19 -57 0 -30 0 -28 8 -26 4 -41 6 -40 2 -41 0 -237 0 -176 -106 0 -234 0 -192 129 -129 235 0 93 0 77 20 59 40 59 40 24 36 19 30 rrcurveto
          -80 vlineto
          0 -47 39 -39 47 0 rrcurveto
          -374 148 rmoveto
          -150 0 -62 66 0 117 0 159 171 9 47 1 rrcurveto
          24 hlineto
          70 0 95 -8 49 -34 18 -13 22 -19 0 -33 rrcurveto
          -43 vlineto
          0 -122 -120 -80 -164 0 rrcurveto
          endchar
        </CharString>
        <CharString name="acute">
          0 770 1647 rmoveto
          -411 -236 60 -104 438 177 rlineto
          endchar
        </CharString>
        <CharString name="adieresis">
          0 505 165 rmoveto
          -125 0 -63 82 0 163 1 93 13 82 25 69 24 69 36 55 47 40 47 39 53 20 60 0 70 0 52 -32 35 -65 23 -43 11 -46 0 -49 0 -117 -29 -109 -58 -99 -61 -99 -74 -51 -87 -2 rrcurveto
          476 -195 rmoveto
          22 0 17 5 13 10 22 17 11 24 0 31 0 15 -3 11 -5 7 -43 61 -23 116 -1 171 0 222 9 185 19 148 0 26 -8 19 -15 13 -22 19 -23 10 -23 0 -51 0 -29 -24 -8 -48 rrcurveto
          -3 -13 -6 -7 -9 0 -8 0 -7 3 -6 7 -45 53 -60 28 -75 1 -101 0 -87 -32 -73 -65 -74 -65 -56 -82 -38 -101 -38 -101 -19 -112 0 -121 0 -141 31 -107 62 -73 61 -73 90 -37 117 0 rrcurveto
          63 0 64 21 65 41 65 41 44 51 22 61 3 9 5 5 5 0 7 0 4 -3 2 -7 rrcurveto
          17 -61 rlineto
          28 -105 40 -53 51 0 rrcurveto
          -596 1303 rmoveto
          34 0 28 12 23 22 23 23 12 28 0 33 0 34 -12 29 -23 22 -23 23 -28 11 -34 0 -35 0 -29 -11 -23 -23 -23 -22 -12 -29 0 -34 0 -33 12 -28 23 -23 23 -22 29 -12 35 0 rrcurveto
          431 hmoveto
          35 0 29 12 23 22 23 23 12 28 0 33 0 34 -12 29 -23 22 -23 23 -29 11 -35 0 -34 0 -28 -11 -23 -23 -24 -22 -11 -29 0 -34 0 -33 11 -28 24 -23 23 -22 28 -12 34 0 rrcurveto
          endchar
        </CharString>
        <CharString name="adieresis_alt">
          0 385 1273 rmoveto
          34 0 28 12 23 22 23 23 12 28 0 33 0 34 -12 29 -23 22 -23 23 -28 11 -34 0 -35 0 -29 -11 -23 -23 -23 -22 -12 -29 0 -34 0 -33 12 -28 23 -23 23 -22 29 -12 35 0 rrcurveto
          431 hmoveto
          35 0 29 12 23 22 23 23 12 28 0 33 0 34 -12 29 -23 22 -23 23 -29 11 -35 0 -34 0 -28 -11 -23 -23 -24 -22 -11 -29 0 -34 0 -33 11 -28 24 -23 23 -22 28 -12 34 0 rrcurveto
          98 -1303 rmoveto
          47 0 39 38 0 47 rrcurveto
          671 vlineto
          0 219 -153 135 -247 0 -113 0 -94 -27 -75 -55 -48 -34 -61 -50 0 -52 0 -53 35 -41 49 0 31 0 29 17 15 17 70 78 59 36 99 0 73 0 56 -18 40 -36 49 -47 10 -38 0 -100 rrcurveto
          0 -47 -15 -19 -57 0 -30 0 -28 8 -26 4 -41 6 -40 2 -41 0 -237 0 -176 -106 0 -234 0 -192 129 -129 235 0 93 0 77 20 59 40 59 40 24 36 19 30 rrcurveto
          -80 vlineto
          0 -47 39 -39 47 0 rrcurveto
          -374 148 rmoveto
          -150 0 -62 66 0 117 0 159 171 9 47 1 rrcurveto
          24 hlineto
          70 0 95 -8 49 -34 18 -13 22 -19 0 -33 rrcurveto
          -43 vlineto
          0 -122 -120 -80 -164 0 rrcurveto
          endchar
        </CharString>
        <CharString name="ae">
          0 881 -30 rmoveto
          56 0 49 10 44 20 21 10 21 11 21 13 21 13 11 24 0 24 0 19 -5 11 -11 17 -13 20 -21 11 -22 0 -12 0 -12 -3 -11 -7 -13 -8 -12 -6 -11 -6 -29 -13 -32 -7 -36 0 rrcurveto
          -65 0 -49 27 -33 55 -25 40 -18 58 -11 74 rrcurveto
          -1 12 rlineto
          0 39 30 33 38 0 rrcurveto
          364 hlineto
          37 0 31 31 0 40 rrcurveto
          24 vlineto
          0 164 -26 128 -51 93 -52 93 -84 46 -115 0 -62 0 -52 -15 -42 -31 -30 -22 -24 -28 -19 -33 -5 -8 -7 -4 -8 0 -7 0 -7 4 -4 7 -18 33 -23 28 -28 22 -39 32 -56 15 -73 0 rrcurveto
          -43 0 -43 -6 -44 -12 -22 -7 -23 -7 -22 -9 -28 -10 -17 -28 0 -29 0 -8 1 -9 3 -8 rrcurveto
          1 -1 rlineto
          10 -29 26 -18 28 0 8 0 8 2 8 3 14 6 13 4 12 4 28 8 31 4 33 0 55 0 43 -16 30 -33 34 -36 12 -53 0 -78 0 -40 -31 -32 -38 0 rrcurveto
          -16 hlineto
          -134 0 -101 -30 -68 -59 -69 -59 -34 -85 0 -110 0 -99 26 -79 52 -61 53 -60 70 -30 89 0 64 0 52 14 42 30 35 24 34 39 34 52 4 7 7 4 7 0 7 0 7 -4 4 -7 rrcurveto
          31 -48 35 -38 39 -26 47 -31 58 -16 68 0 rrcurveto
          63 629 rmoveto
          -194 hlineto
          -38 0 -31 33 0 39 rrcurveto
          1 9 rlineto
          9 81 15 59 21 37 28 49 40 24 54 0 63 0 42 -27 24 -56 17 -42 11 -56 6 -71 rrcurveto
          -6 vlineto
          0 -39 -30 -34 -38 0 rrcurveto
          -610 -485 rmoveto
          -40 0 -32 16 -25 34 -24 33 -12 48 0 64 0 63 17 50 33 38 37 40 60 16 92 0 36 0 30 -30 2 -38 1 -16 1 -16 2 -16 3 -29 3 -28 5 -27 rrcurveto
          1 -13 rlineto
          0 -13 -3 -12 -6 -11 -25 -47 -25 -36 -26 -26 -29 -29 -35 -15 -41 0 rrcurveto
          endchar
        </CharString>
        <CharString name="agrave">
          0 505 165 rmoveto
          -125 0 -63 82 0 163 1 93 13 82 25 69 24 69 36 55 47 40 47 39 53 20 60 0 70 0 52 -32 35 -65 23 -43 11 -46 0 -49 0 -117 -29 -109 -58 -99 -61 -99 -74 -51 -87 -2 rrcurveto
          476 -195 rmoveto
          22 0 17 5 13 10 22 17 11 24 0 31 0 15 -3 11 -5 7 -43 61 -23 116 -1 171 0 222 9 185 19 148 0 26 -8 19 -15 13 -22 19 -23 10 -23 0 -51 0 -29 -24 -8 -48 rrcurveto
          -3 -13 -6 -7 -9 0 -8 0 -7 3 -6 7 -45 53 -60 28 -75 1 -101 0 -87 -32 -73 -65 -74 -65 -56 -82 -38 -101 -38 -101 -19 -112 0 -121 0 -141 31 -107 62 -73 61 -73 90 -37 117 0 rrcurveto
          63 0 64 21 65 41 65 41 44 51 22 61 3 9 5 5 5 0 7 0 4 -3 2 -7 rrcurveto
          17 -61 rlineto
          28 -105 40 -53 51 0 rrcurveto
          -220 1295 rmoveto
          22 0 22 13 11 21 5 10 3 10 0 10 0 22 -12 21 -20 12 rrcurveto
          -261 153 rlineto
          -14 8 -15 4 -15 0 -30 0 -29 -15 -17 -27 -9 -15 -4 -15 0 -16 0 -35 21 -33 35 -14 rrcurveto
          283 -109 rlineto
          8 -3 8 -2 8 0 rrcurveto
          endchar
        </CharString>
        <CharString name="agrave_alt">
          0 761 1265 rmoveto
          22 0 22 13 11 21 5 10 3 10 0 10 0 22 -12 21 -20 12 rrcurveto
          -261 153 rlineto
          -14 8 -15 4 -15 0 -30 0 -29 -15 -17 -27 -9 -15 -4 -15 0 -16 0 -35 21 -33 35 -14 rrcurveto
          283 -109 rlineto
          8 -3 8 -2 8 0 rrcurveto
          153 -1295 rmoveto
          47 0 39 38 0 47 rrcurveto
          671 vlineto
          0 219 -153 135 -247 0 -113 0 -94 -27 -75 -55 -48 -34 -61 -50 0 -52 0 -53 35 -41 49 0 31 0 29 17 15 17 70 78 59 36 99 0 73 0 56 -18 40 -36 49 -47 10 -38 0 -100 rrcurveto
          0 -47 -15 -19 -57 0 -30 0 -28 8 -26 4 -41 6 -40 2 -41 0 -237 0 -176 -106 0 -234 0 -192 129 -129 235 0 93 0 77 20 59 40 59 40 24 36 19 30 rrcurveto
          -80 vlineto
          0 -47 39 -39 47 0 rrcurveto
          -374 148 rmoveto
          -150 0 -62 66 0 117 0 159 171 9 47 1 rrcurveto
          24 hlineto
          70 0 95 -8 49 -34 18 -13 22 -19 0 -33 rrcurveto
          -43 vlineto
          0 -122 -120 -80 -164 0 rrcurveto
          endchar
        </CharString>
        <CharString name="ampersand">
          0 1023 -30 rmoveto
          25 0 22 9 17 19 17 18 8 22 0 26 0 33 -17 48 -35 63 -34 -65 -36 -51 -39 -38 2 -56 24 -28 46 0 rrcurveto
          -323 445 rmoveto
          28 23 32 58 35 93 rrcurveto
          -281 277 rlineto
          -81 79 -41 72 0 66 0 48 14 40 29 32 29 31 39 16 51 0 39 0 34 -10 29 -19 29 -20 22 -27 17 -35 16 -35 27 -17 39 0 24 0 20 9 17 18 17 18 8 21 0 24 rrcurveto
          0 8 -3 13 -6 17 -28 71 -43 54 -59 36 -59 36 -69 18 -81 0 -92 0 -80 -31 -68 -63 -68 -63 -34 -85 0 -107 0 -109 56 -109 113 -108 rrcurveto
          142 -785 rmoveto
          91 0 90 32 89 65 88 64 72 86 55 109 55 108 28 97 0 87 0 21 -8 18 -15 17 -16 17 -21 8 -27 0 -43 0 -27 -30 -12 -59 -27 -121 -48 -101 -68 -81 -81 -94 -85 -47 -90 0 rrcurveto
          -129 0 -65 68 0 137 0 81 15 73 30 66 -48 42 -43 43 -39 45 -64 -95 -32 -116 0 -139 0 -113 33 -95 65 -77 65 -77 93 -39 119 0 rrcurveto
          endchar
        </CharString>
        <CharString name="ampersand_alt">
          0 776 315 rmoveto
          -3 -3 -2 -2 -2 -3 -81 -94 -85 -47 -90 0 -129 0 -65 68 0 137 0 94 38 107 76 119 rrcurveto
          463 -518 rmoveto
          29 -43 16 -41 3 -37 5 -55 26 -27 48 0 25 0 22 9 17 19 17 18 8 22 0 26 0 33 -14 49 -28 65 -23 52 -24 39 -23 27 54 107 27 96 0 86 0 21 -8 18 -15 17 rrcurveto
          -16 17 -21 8 -27 0 -43 0 -27 -30 -12 -59 -9 -42 -12 -40 -15 -37 rrcurveto
          -362 375 rlineto
          -81 79 -41 72 0 66 0 48 14 40 29 32 29 31 39 16 51 0 39 0 34 -10 29 -19 29 -20 22 -27 17 -35 16 -35 27 -17 39 0 24 0 20 9 17 18 17 18 8 21 0 24 rrcurveto
          0 8 -3 13 -6 17 -28 71 -43 54 -59 36 -59 36 -69 18 -81 0 -92 0 -80 -31 -68 -63 -68 -63 -34 -85 0 -107 0 -84 33 -84 67 -83 -109 -141 -55 -153 0 -165 0 -113 33 -95 65 -77 rrcurveto
          65 -77 93 -39 119 0 91 0 90 32 89 65 38 28 38 35 37 43 rrcurveto
          endchar
        </CharString>
        <CharString name="ampersand_ampersand">
          0 -117 -30 rmoveto
          25 0 22 9 17 19 17 18 8 22 0 26 0 33 -17 48 -35 63 -34 -65 -36 -51 -39 -38 2 -56 24 -28 46 0 rrcurveto
          757 445 rmoveto
          28 23 32 58 35 93 rrcurveto
          -281 277 rlineto
          -81 79 -41 72 0 66 0 48 14 40 29 32 29 31 39 16 51 0 39 0 34 -10 29 -19 29 -20 22 -27 17 -35 16 -35 27 -17 39 0 24 0 20 9 17 18 17 18 8 21 0 24 rrcurveto
          0 8 -3 13 -6 17 -28 71 -43 54 -59 36 -59 36 -69 18 -81 0 -92 0 -80 -31 -68 -63 -68 -63 -34 -85 0 -107 0 -109 56 -109 113 -108 rrcurveto
          142 -785 rmoveto
          91 0 90 32 89 65 88 64 72 86 55 109 55 108 28 97 0 87 0 21 -8 18 -15 17 -16 17 -21 8 -27 0 -43 0 -27 -30 -12 -59 -27 -121 -48 -101 -68 -81 -81 -94 -85 -47 -90 0 rrcurveto
          -129 0 -65 68 0 137 0 81 15 73 30 66 -48 42 -43 43 -39 45 -64 -95 -32 -116 0 -139 0 -113 33 -95 65 -77 65 -77 93 -39 119 0 rrcurveto
          510 hmoveto
          25 0 22 9 17 19 17 18 8 22 0 26 0 33 -17 48 -35 63 -34 -65 -36 -51 -39 -38 2 -56 24 -28 46 0 rrcurveto
          -1403 445 rmoveto
          28 23 32 58 35 93 rrcurveto
          -281 277 rlineto
          -81 79 -41 72 0 66 0 48 14 40 29 32 29 31 39 16 51 0 39 0 34 -10 29 -19 29 -20 22 -27 17 -35 16 -35 27 -17 39 0 24 0 20 9 17 18 17 18 8 21 0 24 rrcurveto
          0 8 -3 13 -6 17 -28 71 -43 54 -59 36 -59 36 -69 18 -81 0 -92 0 -80 -31 -68 -63 -68 -63 -34 -85 0 -107 0 -109 56 -109 113 -108 rrcurveto
          142 -785 rmoveto
          91 0 90 32 89 65 88 64 72 86 55 109 55 108 28 97 0 87 0 21 -8 18 -15 17 -16 17 -21 8 -27 0 -43 0 -27 -30 -12 -59 -27 -121 -48 -101 -68 -81 -81 -94 -85 -47 -90 0 rrcurveto
          -129 0 -65 68 0 137 0 81 15 73 30 66 -48 42 -43 43 -39 45 -64 -95 -32 -116 0 -139 0 -113 33 -95 65 -77 65 -77 93 -39 119 0 rrcurveto
          endchar
        </CharString>
        <CharString name="ampersand_ampersand_alt">
          0 716 315 rmoveto
          -3 -3 -2 -2 -2 -3 -81 -94 -85 -47 -90 0 -129 0 -65 68 0 137 0 94 38 107 76 119 rrcurveto
          463 -518 rmoveto
          29 -43 16 -41 3 -37 5 -55 26 -27 48 0 25 0 22 9 17 19 17 18 8 22 0 26 0 33 -14 49 -28 65 -23 52 -24 39 -23 27 54 107 27 96 0 86 0 21 -8 18 -15 17 rrcurveto
          -16 17 -21 8 -27 0 -43 0 -27 -30 -12 -59 -9 -42 -12 -40 -15 -37 rrcurveto
          -362 375 rlineto
          -81 79 -41 72 0 66 0 48 14 40 29 32 29 31 39 16 51 0 39 0 34 -10 29 -19 29 -20 22 -27 17 -35 16 -35 27 -17 39 0 24 0 20 9 17 18 17 18 8 21 0 24 rrcurveto
          0 8 -3 13 -6 17 -28 71 -43 54 -59 36 -59 36 -69 18 -81 0 -92 0 -80 -31 -68 -63 -68 -63 -34 -85 0 -107 0 -84 33 -84 67 -83 -109 -141 -55 -153 0 -165 0 -113 33 -95 65 -77 rrcurveto
          65 -77 93 -39 119 0 91 0 90 32 89 65 38 28 38 35 37 43 rrcurveto
          -1200 142 rmoveto
          -3 -3 -2 -2 -2 -3 -81 -94 -85 -47 -90 0 -129 0 -65 68 0 137 0 94 38 107 76 119 rrcurveto
          463 -518 rmoveto
          29 -43 16 -41 3 -37 5 -55 26 -27 48 0 25 0 22 9 17 19 17 18 8 22 0 26 0 33 -14 49 -28 65 -23 52 -24 39 -23 27 54 107 27 96 0 86 0 21 -8 18 -15 17 rrcurveto
          -16 17 -21 8 -27 0 -43 0 -27 -30 -12 -59 -9 -42 -12 -40 -15 -37 rrcurveto
          -362 375 rlineto
          -81 79 -41 72 0 66 0 48 14 40 29 32 29 31 39 16 51 0 39 0 34 -10 29 -19 29 -20 22 -27 17 -35 16 -35 27 -17 39 0 24 0 20 9 17 18 17 18 8 21 0 24 rrcurveto
          0 8 -3 13 -6 17 -28 71 -43 54 -59 36 -59 36 -69 18 -81 0 -92 0 -80 -31 -68 -63 -68 -63 -34 -85 0 -107 0 -84 33 -84 67 -83 -109 -141 -55 -153 0 -165 0 -113 33 -95 65 -77 rrcurveto
          65 -77 93 -39 119 0 91 0 90 32 89 65 38 28 38 35 37 43 rrcurveto
          endchar
        </CharString>
        <CharString name="aring">
          0 505 165 rmoveto
          -125 0 -63 82 0 163 1 93 13 82 25 69 24 69 36 55 47 40 47 39 53 20 60 0 70 0 52 -32 35 -65 23 -43 11 -46 0 -49 0 -117 -29 -109 -58 -99 -61 -99 -74 -51 -87 -2 rrcurveto
          476 -195 rmoveto
          22 0 17 5 13 10 22 17 11 24 0 31 0 15 -3 11 -5 7 -43 61 -23 116 -1 171 0 222 9 185 19 148 0 26 -8 19 -15 13 -22 19 -23 10 -23 0 -51 0 -29 -24 -8 -48 rrcurveto
          -3 -13 -6 -7 -9 0 -8 0 -7 3 -6 7 -45 53 -60 28 -75 1 -101 0 -87 -32 -73 -65 -74 -65 -56 -82 -38 -101 -38 -101 -19 -112 0 -121 0 -141 31 -107 62 -73 61 -73 90 -37 117 0 rrcurveto
          63 0 64 21 65 41 65 41 44 51 22 61 3 9 5 5 5 0 7 0 4 -3 2 -7 rrcurveto
          17 -61 rlineto
          28 -105 40 -53 51 0 rrcurveto
          -380 1680 rmoveto
          -69 0 -57 -22 -44 -42 -44 -43 -23 -52 0 -62 0 -60 23 -51 44 -43 44 -43 57 -21 69 0 70 0 57 21 44 43 44 43 22 51 0 60 0 62 -22 52 -44 43 -44 42 -57 22 -70 0 rrcurveto
          -106 vmoveto
          34 0 26 -10 19 -21 20 -20 9 -28 0 -36 0 -35 -9 -28 -20 -20 -19 -21 -26 -10 -34 0 -32 0 -26 10 -20 21 -19 20 -10 28 0 35 0 36 10 28 19 20 20 21 26 10 32 0 rrcurveto
          endchar
        </CharString>
        <CharString name="aring_alt">
          0 601 1650 rmoveto
          -69 0 -57 -22 -44 -42 -44 -43 -23 -52 0 -62 0 -60 23 -51 44 -43 44 -43 57 -21 69 0 70 0 57 21 44 43 44 43 22 51 0 60 0 62 -22 52 -44 43 -44 42 -57 22 -70 0 rrcurveto
          -106 vmoveto
          34 0 26 -10 19 -21 20 -20 9 -28 0 -36 0 -35 -9 -28 -20 -20 -19 -21 -26 -10 -34 0 -32 0 -26 10 -20 21 -19 20 -10 28 0 35 0 36 10 28 19 20 20 21 26 10 32 0 rrcurveto
          313 -1574 rmoveto
          47 0 39 38 0 47 rrcurveto
          671 vlineto
          0 219 -153 135 -247 0 -113 0 -94 -27 -75 -55 -48 -34 -61 -50 0 -52 0 -53 35 -41 49 0 31 0 29 17 15 17 70 78 59 36 99 0 73 0 56 -18 40 -36 49 -47 10 -38 0 -100 rrcurveto
          0 -47 -15 -19 -57 0 -30 0 -28 8 -26 4 -41 6 -40 2 -41 0 -237 0 -176 -106 0 -234 0 -192 129 -129 235 0 93 0 77 20 59 40 59 40 24 36 19 30 rrcurveto
          -80 vlineto
          0 -47 39 -39 47 0 rrcurveto
          -374 148 rmoveto
          -150 0 -62 66 0 117 0 159 171 9 47 1 rrcurveto
          24 hlineto
          70 0 95 -8 49 -34 18 -13 22 -19 0 -33 rrcurveto
          -43 vlineto
          0 -122 -120 -80 -164 0 rrcurveto
          endchar
        </CharString>
        <CharString name="asciicircum">
          0 940 570 rmoveto
          14 0 14 4 13 7 33 21 16 27 0 31 0 19 -4 15 -9 12 rrcurveto
          -337 519 rlineto
          -23 31 -26 15 -29 0 -32 0 -27 -15 -23 -31 rrcurveto
          -338 -517 rlineto
          -8 -16 -4 -16 0 -15 0 -29 14 -26 28 -21 17 -9 16 -5 16 0 31 0 25 15 21 29 rrcurveto
          237 380 rlineto
          7 9 8 4 9 0 9 0 8 -4 7 -9 rrcurveto
          238 -378 rlineto
          21 -31 27 -16 31 0 rrcurveto
          endchar
        </CharString>
        <CharString name="asciitilde">
          0 788 382 rmoveto
          82 0 65 33 49 65 43 60 22 76 0 92 0 24 -7 21 -14 19 -15 19 -21 9 -28 0 -44 0 -26 -27 -8 -53 -15 -100 -29 -50 -45 0 -25 0 -19 5 -14 10 -31 22 -32 34 -35 46 rrcurveto
          -68 87 -75 44 -81 0 -86 0 -68 -33 -50 -67 -41 -57 -21 -75 0 -93 0 -29 7 -22 15 -17 15 -17 19 -8 24 0 25 0 21 7 16 15 15 15 9 20 1 25 5 100 31 50 58 0 rrcurveto
          39 0 51 -40 63 -79 71 -87 75 -44 77 0 rrcurveto
          endchar
        </CharString>
        <CharString name="asciitilde_at">
          0 199 1016 rmoveto
          47 59 48 43 48 27 47 27 59 13 70 0 133 -3 108 -52 82 -99 90 -107 45 -188 0 -268 rrcurveto
          -33 vlineto
          1 -78 27 -39 54 0 59 0 30 25 3 49 3 75 1 62 0 47 0 263 -55 203 -111 142 -113 137 -148 69 -182 0 -213 -1 -163 -78 -114 -154 -114 -157 -80 -136 -46 -115 -48 -124 -63 -62 -79 0 rrcurveto
          -37 0 -29 7 -20 15 -31 22 -32 34 -35 46 -68 87 -75 44 -81 0 -86 0 -68 -33 -50 -67 -41 -57 -21 -75 0 -93 0 -29 7 -22 15 -17 15 -17 19 -8 24 0 25 0 21 7 16 15 rrcurveto
          15 15 9 20 1 25 5 100 31 50 58 0 39 0 51 -40 63 -79 71 -87 88 -44 104 0 77 0 67 24 55 47 65 59 51 69 37 79 53 117 73 119 93 120 rrcurveto
          727 -1046 rmoveto
          21 0 20 2 17 4 27 7 13 24 0 42 0 27 -6 19 -13 13 -15 15 -16 7 -17 0 -64 0 -44 2 -24 5 -56 12 -29 66 -2 120 -1 87 -1 89 -2 89 -3 89 -22 70 -43 52 rrcurveto
          -43 51 -66 26 -89 0 -155 -1 -110 -104 -65 -205 -27 -91 -13 -90 0 -89 0 -225 66 -113 133 0 138 3 69 38 0 75 0 16 -2 12 -3 9 -13 33 -18 16 -22 0 -11 0 -10 -3 -9 -5 rrcurveto
          -32 -18 -27 -9 -23 0 -48 0 -24 58 0 115 0 82 10 71 21 59 41 119 55 59 69 0 71 0 37 -50 3 -100 rrcurveto
          8 -240 rlineto
          5 -185 65 -108 126 -33 40 -9 51 -5 62 0 rrcurveto
          endchar
        </CharString>
        <CharString name="asciitilde_at_alt">
          0 359 137 rmoveto
          -65 0 -32 58 0 115 0 82 10 71 21 59 41 119 55 59 69 0 71 0 37 -50 3 -100 rrcurveto
          5 -213 rlineto
          0 -22 -9 -27 -18 -32 -44 -79 -63 -40 -81 0 rrcurveto
          550 779 rmoveto
          45 -109 22 -150 0 -189 0 -133 -9 -95 -17 -55 -13 -39 -27 -20 -42 0 -44 0 -33 18 -21 35 -20 33 -11 52 -1 71 -1 87 -1 89 -2 89 -3 89 -22 70 -43 52 -43 51 -66 26 -89 0 rrcurveto
          -155 -1 -110 -104 -65 -205 -27 -91 -13 -90 0 -89 0 -225 75 -113 150 0 145 0 106 52 66 105 25 -65 40 -42 53 -21 50 -19 46 -10 42 0 97 0 71 48 46 95 29 65 15 154 0 244 rrcurveto
          0 127 -13 114 -26 99 -27 105 -43 90 -57 73 -113 137 -148 69 -182 0 -213 -1 -163 -78 -114 -154 -114 -157 -80 -136 -46 -115 -48 -124 -63 -62 -79 0 -37 0 -29 7 -20 15 -31 22 -32 34 -35 46 rrcurveto
          -68 87 -75 44 -81 0 -86 0 -68 -33 -50 -67 -41 -57 -21 -75 0 -93 0 -29 7 -22 15 -17 15 -17 19 -8 24 0 25 0 21 7 16 15 15 15 9 20 1 25 5 100 31 50 58 0 rrcurveto
          39 0 51 -40 63 -79 71 -87 88 -44 104 0 77 0 67 24 55 47 65 59 51 69 37 79 53 117 73 119 93 120 47 59 48 43 48 27 47 27 59 13 70 0 133 -3 108 -52 82 -99 rrcurveto
          27 -31 22 -39 19 -45 rrcurveto
          endchar
        </CharString>
        <CharString name="asciitilde_at_alt_1">
          0 800 251 rmoveto
          -55 0 -48 26 -39 52 -32 43 -16 60 0 76 0 103 17 72 34 43 34 42 46 21 59 0 53 0 39 -19 25 -38 25 -39 13 -50 0 -61 rrcurveto
          -122 vlineto
          0 -139 -52 -69 -103 -1 rrcurveto
          -611 493 rmoveto
          52 141 50 106 47 73 81 127 99 64 115 0 137 0 96 -70 53 -141 22 -57 11 -45 0 -32 rrcurveto
          -7 vlineto
          -45 45 -58 22 -71 0 -69 0 -65 -25 -59 -49 -59 -50 -40 -78 -20 -106 -9 -50 -4 -51 0 -51 0 -151 33 -109 65 -68 72 -70 88 -35 103 0 129 0 91 54 51 107 33 71 17 100 0 129 rrcurveto
          323 vlineto
          -3 183 -53 146 -102 110 -83 90 -116 45 -148 0 -142 0 -122 -53 -101 -105 -67 -75 -63 -108 -59 -143 -37 -97 -59 -90 -81 -85 -76 -75 -82 -39 -86 -2 -57 0 -39 7 -20 15 -31 22 -32 34 -35 46 rrcurveto
          -68 87 -75 44 -81 0 -86 0 -68 -33 -50 -67 -41 -57 -21 -75 0 -93 0 -29 7 -22 15 -17 15 -17 19 -8 24 0 25 0 21 7 16 15 15 15 9 20 1 25 5 100 31 50 58 0 rrcurveto
          39 0 51 -40 63 -79 71 -87 98 -44 124 0 124 0 104 32 85 65 106 77 73 88 39 100 rrcurveto
          endchar
        </CharString>
        <CharString name="asterisk">
          0 600 101 rmoveto
          25 0 21 9 18 18 17 17 9 21 0 25 rrcurveto
          252 vlineto
          219 -121 rlineto
          15 -7 14 -4 15 0 25 0 22 9 18 18 17 17 9 21 0 24 0 31 -15 26 -30 21 rrcurveto
          -219 122 219 122 rlineto
          30 21 15 26 0 31 0 24 -9 21 -17 18 -18 17 -22 9 -25 0 -15 0 -14 -4 -15 -7 rrcurveto
          -219 -122 rlineto
          252 vlineto
          0 25 -9 21 -17 18 -18 17 -21 9 -25 0 -25 0 -21 -9 -17 -17 -18 -18 -9 -21 0 -25 rrcurveto
          -252 vlineto
          -219 122 rlineto
          -14 7 -15 4 -15 0 -25 0 -21 -9 -18 -17 -18 -18 -9 -21 0 -24 0 -34 15 -26 30 -18 rrcurveto
          219 -122 -219 -122 rlineto
          -30 -21 -15 -27 0 -31 0 -24 9 -21 18 -17 18 -18 21 -9 25 0 15 0 15 4 14 7 rrcurveto
          219 122 rlineto
          -252 vlineto
          0 -25 9 -21 18 -17 17 -18 21 -9 25 0 rrcurveto
          endchar
        </CharString>
        <CharString name="asterisk_slash">
          0 -600 -29 rmoveto
          25 0 21 9 18 18 17 17 9 21 0 25 rrcurveto
          252 vlineto
          219 -121 rlineto
          15 -7 14 -4 15 0 25 0 22 9 18 18 17 17 9 21 0 24 0 31 -15 26 -30 21 rrcurveto
          -219 122 219 122 rlineto
          30 21 15 26 0 31 0 24 -9 21 -17 18 -18 17 -22 9 -25 0 -15 0 -14 -4 -15 -7 rrcurveto
          -219 -122 rlineto
          252 vlineto
          0 25 -9 21 -17 18 -18 17 -21 9 -25 0 -25 0 -21 -9 -17 -17 -18 -18 -9 -21 0 -25 rrcurveto
          -252 vlineto
          -219 122 rlineto
          -14 7 -15 4 -15 0 -25 0 -21 -9 -18 -17 -18 -18 -9 -21 0 -24 0 -34 15 -26 30 -18 rrcurveto
          219 -122 -219 -122 rlineto
          -30 -21 -15 -27 0 -31 0 -24 9 -21 18 -17 18 -18 21 -9 25 0 15 0 15 4 14 7 rrcurveto
          219 122 rlineto
          -252 vlineto
          0 -25 9 -21 18 -17 17 -18 21 -9 25 0 rrcurveto
          640 -171 rmoveto
          17 0 16 5 15 10 15 9 12 13 7 17 rrcurveto
          720 1623 rlineto
          5 13 3 12 0 12 0 17 -5 16 -9 15 -17 27 -26 14 -33 0 -17 0 -16 -5 -15 -9 -15 -9 -12 -13 -7 -17 rrcurveto
          -720 -1623 rlineto
          -5 -13 -3 -12 0 -11 0 -17 5 -17 10 -15 17 -28 25 -14 33 0 rrcurveto
          endchar
        </CharString>
        <CharString name="at">
          0 1058 318 rmoveto
          59 0 30 25 3 49 3 75 1 62 0 47 0 263 -55 203 -111 142 -113 137 -148 69 -182 0 -213 -1 -161 -78 -109 -154 -11 -16 -5 -20 0 -24 0 -35 9 -27 18 -18 18 -18 20 -9 21 0 rrcurveto
          25 0 21 9 15 17 51 59 50 43 47 27 48 27 59 13 70 0 133 -3 108 -51 82 -100 90 -107 45 -188 0 -268 rrcurveto
          -33 vlineto
          1 -78 27 -39 54 0 rrcurveto
          -132 -348 rmoveto
          21 0 20 2 17 4 27 7 13 24 0 42 0 27 -6 19 -13 13 -15 15 -16 7 -17 0 -64 0 -44 2 -24 5 -56 12 -29 66 -2 120 -1 87 -1 89 -2 89 -3 89 -22 70 -43 52 rrcurveto
          -43 51 -66 26 -89 0 -155 -1 -110 -104 -65 -205 -27 -91 -13 -90 0 -89 0 -225 66 -113 133 0 138 3 69 38 0 75 0 16 -2 12 -3 9 -14 33 -17 16 -22 0 -10 0 -11 -2 -9 -6 rrcurveto
          -32 -18 -27 -9 -23 0 -48 0 -24 58 0 115 0 82 10 71 21 59 41 119 55 59 69 0 71 0 37 -50 3 -100 rrcurveto
          8 -240 rlineto
          5 -185 65 -108 126 -33 40 -9 51 -5 62 0 rrcurveto
          endchar
        </CharString>
        <CharString name="at_alt">
          0 359 137 rmoveto
          -65 0 -32 58 0 115 0 82 10 71 21 59 41 119 55 59 69 0 71 0 37 -50 3 -100 rrcurveto
          5 -213 rlineto
          0 -22 -9 -27 -18 -32 -44 -79 -63 -40 -81 0 rrcurveto
          537 -167 rmoveto
          97 0 71 48 46 95 29 65 15 154 0 244 0 263 -55 203 -111 142 -113 137 -148 69 -182 0 -213 -1 -161 -78 -109 -154 -11 -16 -5 -20 0 -24 0 -35 9 -27 18 -18 18 -18 20 -9 21 0 rrcurveto
          25 0 21 9 15 17 51 59 50 43 48 27 47 27 59 13 70 0 133 -3 108 -52 82 -99 90 -107 45 -188 0 -268 0 -133 -9 -95 -17 -55 -13 -39 -27 -20 -42 0 -44 0 -33 18 -21 35 rrcurveto
          -20 33 -11 52 -1 71 -1 87 -1 89 -2 89 -3 89 -22 70 -43 52 -43 51 -66 26 -89 0 -155 -1 -110 -104 -65 -205 -27 -91 -13 -90 0 -89 0 -225 75 -113 150 0 145 0 106 52 66 105 rrcurveto
          25 -65 40 -42 53 -21 50 -19 46 -10 42 0 rrcurveto
          endchar
        </CharString>
        <CharString name="at_alt_1">
          0 751 -336 rmoveto
          56 0 41 9 26 17 19 12 9 21 0 29 0 61 -54 31 -107 0 -108 0 -96 28 -83 56 -83 57 -52 84 -22 111 -20 113 -11 99 0 84 0 50 2 52 2 54 7 183 32 144 59 105 rrcurveto
          75 127 88 64 102 0 137 0 95 -70 54 -141 22 -57 11 -45 0 -32 rrcurveto
          -7 vlineto
          -45 45 -58 22 -71 0 -69 0 -64 -25 -60 -50 -59 -49 -40 -78 -20 -106 -9 -50 -4 -50 0 -52 0 -151 33 -109 65 -68 72 -70 88 -35 103 0 129 0 91 54 51 107 33 71 17 100 0 129 rrcurveto
          323 vlineto
          -3 183 -53 146 -102 110 -83 90 -116 45 -148 0 -129 0 -111 -53 -95 -105 -94 -105 -61 -144 -27 -181 -16 -104 -8 -115 0 -126 0 -197 27 -168 53 -138 45 -117 78 -85 110 -53 111 -53 117 -27 121 0 rrcurveto
          49 592 rmoveto
          -53 0 -47 25 -38 51 -31 43 -16 58 0 75 0 102 17 71 33 41 33 41 45 21 57 0 51 0 38 -19 24 -37 25 -37 12 -48 0 -61 rrcurveto
          -122 vlineto
          0 -135 -50 -68 -100 -1 rrcurveto
          endchar
        </CharString>
        <CharString name="atilde">
          0 505 165 rmoveto
          -125 0 -63 82 0 163 1 93 13 82 25 69 24 69 36 55 47 40 47 39 53 20 60 0 70 0 52 -32 35 -65 23 -43 11 -46 0 -49 0 -117 -29 -109 -58 -99 -61 -99 -74 -51 -87 -2 rrcurveto
          476 -195 rmoveto
          22 0 17 5 13 10 22 17 11 24 0 31 0 15 -3 11 -5 7 -43 61 -23 116 -1 171 0 222 9 185 19 148 0 26 -8 19 -15 13 -22 19 -23 10 -23 0 -51 0 -29 -24 -8 -48 rrcurveto
          -3 -13 -6 -7 -9 0 -8 0 -7 3 -6 7 -45 53 -60 28 -75 1 -101 0 -87 -32 -73 -65 -74 -65 -56 -82 -38 -101 -38 -101 -19 -112 0 -121 0 -141 31 -107 62 -73 61 -73 90 -37 117 0 rrcurveto
          63 0 64 21 65 41 65 41 44 51 22 61 3 9 5 5 5 0 7 0 4 -3 2 -7 rrcurveto
          17 -61 rlineto
          28 -105 40 -53 51 0 rrcurveto
          -262 1320 rmoveto
          77 0 63 38 50 76 7 12 4 13 0 12 0 25 -13 28 -27 9 -10 5 -10 2 -11 0 -20 0 -19 -9 -13 -16 -7 -9 -8 -8 -7 -6 -17 -15 -18 -7 -21 0 -25 0 -24 8 -21 17 rrcurveto
          -22 16 -23 16 -26 16 -26 16 -33 8 -38 0 -52 0 -45 -18 -37 -35 -20 -20 -18 -21 -16 -23 -8 -12 -4 -13 0 -13 0 -25 13 -23 24 -12 10 -5 10 -2 10 0 21 0 20 9 13 18 rrcurveto
          19 23 rlineto
          16 16 20 8 24 0 25 0 23 -9 22 -16 23 -16 24 -17 26 -16 27 -17 31 -8 37 0 rrcurveto
          endchar
        </CharString>
        <CharString name="atilde_alt">
          0 719 1290 rmoveto
          77 0 63 38 50 76 7 12 4 13 0 12 0 36 -33 33 -38 0 -20 0 -19 -9 -13 -16 -24 -30 -26 -15 -28 0 -25 0 -24 8 -21 17 -45 33 -46 39 -77 0 -52 0 -45 -18 -37 -35 rrcurveto
          -28 -28 -38 -37 0 -37 0 -37 31 -30 36 0 21 0 20 9 13 18 26 31 10 16 43 0 79 0 43 -99 116 0 rrcurveto
          195 -1320 rmoveto
          47 0 39 38 0 47 rrcurveto
          671 vlineto
          0 219 -153 135 -247 0 -113 0 -94 -27 -75 -55 -48 -34 -61 -50 0 -52 0 -53 35 -41 49 0 31 0 29 17 15 17 70 78 59 36 99 0 73 0 56 -18 40 -36 49 -47 10 -38 0 -100 rrcurveto
          0 -47 -15 -19 -57 0 -30 0 -28 8 -26 4 -41 6 -40 2 -41 0 -237 0 -176 -106 0 -234 0 -192 129 -129 235 0 93 0 77 20 59 40 59 40 24 36 19 30 rrcurveto
          -80 vlineto
          0 -47 39 -39 47 0 rrcurveto
          -374 148 rmoveto
          -150 0 -62 66 0 117 0 159 171 9 47 1 rrcurveto
          24 hlineto
          70 0 95 -8 49 -34 18 -13 22 -19 0 -33 rrcurveto
          -43 vlineto
          0 -122 -120 -80 -164 0 rrcurveto
          endchar
        </CharString>
        <CharString name="b">
          0 619 151 rmoveto
          -14 hlineto
          -54 0 -53 23 -51 45 -51 45 -26 62 0 79 rrcurveto
          213 vlineto
          0 61 25 59 51 57 47 49 57 24 67 0 85 0 65 -29 44 -59 44 -59 22 -93 0 -129 -5 -228 -86 -116 -167 -4 rrcurveto
          33 -181 rmoveto
          142 0 103 48 63 96 63 95 33 139 1 181 0 171 -36 135 -73 98 -73 98 -100 49 -125 0 -72 0 -71 -29 -69 -59 -13 -11 -13 -5 -11 0 -21 0 -10 12 0 24 rrcurveto
          424 vlineto
          0 27 -9 23 -18 18 -19 17 -20 9 -23 0 -23 0 -20 -9 -19 -17 -19 -18 -10 -23 0 -27 rrcurveto
          -1374 vlineto
          0 -27 8 -22 17 -17 16 -17 21 -9 25 0 49 0 29 30 9 61 3 23 8 12 12 0 7 0 7 -4 7 -7 79 -77 81 -38 84 0 rrcurveto
          endchar
        </CharString>
        <CharString name="backslash">
          0 960 -200 rmoveto
          33 0 25 14 18 28 9 15 5 17 0 17 0 11 -3 12 -5 13 rrcurveto
          -720 1620 rlineto
          -7 17 -12 13 -15 9 -15 9 -16 5 -17 0 -33 0 -25 -14 -17 -27 -10 -15 -5 -16 0 -17 0 -12 3 -12 5 -13 rrcurveto
          720 -1620 rlineto
          8 -17 12 -13 15 -9 15 -10 15 -5 17 0 rrcurveto
          endchar
        </CharString>
        <CharString name="bar">
          0 600 -230 rmoveto
          24 0 21 9 18 18 18 18 9 21 0 24 rrcurveto
          1680 vlineto
          0 25 -9 21 -18 18 -18 17 -21 9 -24 0 -24 0 -21 -9 -18 -17 -18 -18 -9 -21 0 -25 rrcurveto
          -1680 vlineto
          0 -24 9 -21 18 -18 18 -18 21 -9 24 0 rrcurveto
          endchar
        </CharString>
        <CharString name="bar_bar">
          0 -400 -230 rmoveto
          24 0 21 9 18 18 18 18 9 21 0 24 rrcurveto
          1680 vlineto
          0 25 -9 21 -18 18 -18 17 -21 9 -24 0 -24 0 -21 -9 -18 -17 -18 -18 -9 -21 0 -25 rrcurveto
          -1680 vlineto
          0 -24 9 -21 18 -18 18 -18 21 -9 24 0 rrcurveto
          800 hmoveto
          24 0 21 9 18 18 18 18 9 21 0 24 rrcurveto
          1680 vlineto
          0 25 -9 21 -18 18 -18 17 -21 9 -24 0 -24 0 -21 -9 -18 -17 -18 -18 -9 -21 0 -25 rrcurveto
          -1680 vlineto
          0 -24 9 -21 18 -18 18 -18 21 -9 24 0 rrcurveto
          endchar
        </CharString>
        <CharString name="bar_equal">
          0 -510 890 rmoveto
          450 vlineto
          0 25 -9 21 -18 18 -18 17 -21 9 -24 0 -24 0 -21 -9 -18 -17 -18 -18 -9 -21 0 -25 rrcurveto
          -1480 vlineto
          0 -24 9 -21 18 -18 18 -18 21 -9 24 0 24 0 21 9 18 18 18 18 9 21 0 24 rrcurveto
          450 1450 vlineto
          25 0 21 9 18 18 17 17 9 21 0 25 0 25 -9 21 -17 18 -18 17 -21 9 -25 0 rrcurveto
          -1450 220 1450 hlineto
          25 0 21 9 18 18 17 17 9 21 0 25 0 25 -9 21 -17 18 -18 17 -21 9 -25 0 rrcurveto
          endchar
        </CharString>
        <CharString name="boxdrawingsdoubledownandhorizontal">
          0 520 -1000 rmoveto
          1620 -530 -160 370 -1460 vlineto
          850 1780 rmoveto
          160 -1220 -160 vlineto
          850 -1780 rmoveto
          1460 370 160 -530 -1620 vlineto
          endchar
        </CharString>
        <CharString name="boxdrawingsdoubledownandleft">
          0 520 -1000 rmoveto
          1620 -530 -160 370 -1460 vlineto
          480 hmoveto
          1940 -850 -160 690 -1780 vlineto
          endchar
        </CharString>
        <CharString name="boxdrawingsdoubledownandright">
          0 840 -1000 rmoveto
          1460 370 160 -530 -1620 vlineto
          -160 hmoveto
          1780 690 160 -850 -1940 vlineto
          endchar
        </CharString>
        <CharString name="boxdrawingsdoublehorizontal">
          0 1210 460 rmoveto
          160 -1220 -160 vlineto
          1220 320 rmoveto
          160 -1220 -160 vlineto
          endchar
        </CharString>
        <CharString name="boxdrawingsdoubleupandhorizontal">
          0 1210 460 rmoveto
          160 -1220 -160 vlineto
          1220 320 rmoveto
          160 -370 1060 -160 -1220 vlineto
          -160 hmoveto
          1220 -160 -1060 -370 -160 vlineto
          endchar
        </CharString>
        <CharString name="boxdrawingsdoubleupandleft">
          0 520 780 rmoveto
          1220 -160 -1060 -370 -160 vlineto
          850 -320 rmoveto
          1540 -160 -1380 -690 -160 vlineto
          endchar
        </CharString>
        <CharString name="boxdrawingsdoubleupandright">
          0 1210 780 rmoveto
          160 -370 1060 -160 -1220 vlineto
          530 -320 rmoveto
          160 -690 1380 -160 -1540 vlineto
          endchar
        </CharString>
        <CharString name="boxdrawingsdoublevertical">
          0 520 -1000 rmoveto
          3000 -160 -3000 vlineto
          480 hmoveto
          3000 -160 -3000 vlineto
          endchar
        </CharString>
        <CharString name="boxdrawingsdoubleverticalandhorizontal">
          0 520 -1000 rmoveto
          1620 -530 -160 370 -1460 vlineto
          160 1780 rmoveto
          1220 -160 -1060 -370 -160 vlineto
          1220 hmoveto
          160 -370 1060 -160 -1220 vlineto
          160 -1780 rmoveto
          1460 370 160 -530 -1620 vlineto
          endchar
        </CharString>
        <CharString name="boxdrawingsdoubleverticalandleft">
          0 520 -1000 rmoveto
          1620 -530 -160 370 -1460 vlineto
          480 hmoveto
          3000 -160 -3000 vlineto
          -160 1780 rmoveto
          1220 -160 -1060 -370 -160 vlineto
          endchar
        </CharString>
        <CharString name="boxdrawingsdoubleverticalandright">
          0 840 -1000 rmoveto
          1460 370 160 -530 -1620 vlineto
          -160 hmoveto
          3000 -160 -3000 vlineto
          850 1780 rmoveto
          160 -370 1060 -160 -1220 vlineto
          endchar
        </CharString>
        <CharString name="boxdrawingsdowndoubleandhorizontalsingle">
          0 840 -1000 rmoveto
          1620 370 160 -1220 -160 370 -1620 160 1620 160 -1620 vlineto
          endchar
        </CharString>
        <CharString name="boxdrawingsdowndoubleandleftsingle">
          0 840 -1000 rmoveto
          1780 -850 -160 370 -1620 160 1620 160 -1620 vlineto
          endchar
        </CharString>
        <CharString name="boxdrawingsdowndoubleandrightsingle">
          0 840 -1000 rmoveto
          1620 370 160 -850 -1780 160 1620 160 -1620 vlineto
          endchar
        </CharString>
        <CharString name="boxdrawingsdownheavyandhorizontallight">
          0 840 -1000 rmoveto
          1620 370 160 -1220 -160 370 -1620 vlineto
          endchar
        </CharString>
        <CharString name="boxdrawingsdownheavyandleftlight">
          0 840 -1000 rmoveto
          1780 -850 -160 370 -1620 vlineto
          endchar
        </CharString>
        <CharString name="boxdrawingsdownheavyandleftuplight">
          0 840 -1000 rmoveto
          1780 -160 1220 -160 -1220 -530 -160 370 -1620 vlineto
          endchar
        </CharString>
        <CharString name="boxdrawingsdownheavyandrightlight">
          0 840 -1000 rmoveto
          1620 370 160 -850 -1780 vlineto
          endchar
        </CharString>
        <CharString name="boxdrawingsdownheavyandrightuplight">
          0 840 -1000 rmoveto
          1620 370 160 -530 1220 -160 -1220 -160 -1780 vlineto
          endchar
        </CharString>
        <CharString name="boxdrawingsdownheavyanduphorizontallight">
          0 840 -1000 rmoveto
          1620 370 160 -530 1220 -160 -1220 -530 -160 370 -1620 vlineto
          endchar
        </CharString>
        <CharString name="boxdrawingsdownlightandhorizontalheavy">
          0 680 -1000 rmoveto
          1460 530 480 -1220 -480 530 -1460 vlineto
          endchar
        </CharString>
        <CharString name="boxdrawingsdownlightandleftheavy">
          0 680 -1000 rmoveto
          1940 -690 -480 530 -1460 vlineto
          endchar
        </CharString>
        <CharString name="boxdrawingsdownlightandleftupheavy">
          0 680 -1000 rmoveto
          1460 160 1540 -480 -1060 -370 -480 530 -1460 vlineto
          endchar
        </CharString>
        <CharString name="boxdrawingsdownlightandrightheavy">
          0 680 -1000 rmoveto
          1460 530 480 -690 -1940 vlineto
          endchar
        </CharString>
        <CharString name="boxdrawingsdownlightandrightupheavy">
          0 680 -1000 rmoveto
          1460 530 480 -370 1060 -480 -1540 160 -1460 vlineto
          endchar
        </CharString>
        <CharString name="boxdrawingsdownlightanduphorizontalheavy">
          0 680 -1000 rmoveto
          1460 530 480 -370 1060 -480 -1060 -370 -480 530 -1460 vlineto
          endchar
        </CharString>
        <CharString name="boxdrawingsdownsingleandhorizontaldouble">
          0 680 -1000 rmoveto
          1460 530 160 -1220 -160 530 -1460 vlineto
          690 1780 rmoveto
          160 -1220 -160 vlineto
          endchar
        </CharString>
        <CharString name="boxdrawingsdownsingleandleftdouble">
          0 680 -1000 rmoveto
          1940 -690 -160 530 -160 -530 -160 530 -1460 vlineto
          endchar
        </CharString>
        <CharString name="boxdrawingsdownsingleandrightdouble">
          0 680 -1000 rmoveto
          1460 530 160 -530 160 530 160 -690 -1940 vlineto
          endchar
        </CharString>
        <CharString name="boxdrawingsheavydoubledashhorizontal">
          0 520 460 rmoveto
          480 -440 -480 vlineto
          1040 hmoveto
          480 -440 -480 vlineto
          endchar
        </CharString>
        <CharString name="boxdrawingsheavydoubledashvertical">
          0 840 -360 rmoveto
          960 -480 -960 vlineto
          480 1440 rmoveto
          960 -480 -960 vlineto
          endchar
        </CharString>
        <CharString name="boxdrawingsheavydown">
          0 840 -1000 rmoveto
          1780 -480 -1780 vlineto
          endchar
        </CharString>
        <CharString name="boxdrawingsheavydownandhorizontal">
          0 840 -1000 rmoveto
          1460 370 480 -1220 -480 370 -1460 vlineto
          endchar
        </CharString>
        <CharString name="boxdrawingsheavydownandleft">
          0 840 -1000 rmoveto
          1940 -850 -480 370 -1460 vlineto
          endchar
        </CharString>
        <CharString name="boxdrawingsheavydownandright">
          0 840 -1000 rmoveto
          1460 370 480 -850 -1940 vlineto
          endchar
        </CharString>
        <CharString name="boxdrawingsheavyhorizontal">
          0 1210 460 rmoveto
          480 -1220 -480 vlineto
          endchar
        </CharString>
        <CharString name="boxdrawingsheavyleft">
          0 680 460 rmoveto
          480 -690 -480 vlineto
          endchar
        </CharString>
        <CharString name="boxdrawingsheavyleftandlightright">
          0 680 460 rmoveto
          160 530 160 -530 160 -690 -480 vlineto
          endchar
        </CharString>
        <CharString name="boxdrawingsheavyquadrupledashhorizontal">
          0 1125 460 rmoveto
          480 -150 -480 vlineto
          -450 hmoveto
          480 -150 -480 vlineto
          450 hmoveto
          480 -150 -480 vlineto
          -450 hmoveto
          480 -150 -480 vlineto
          endchar
        </CharString>
        <CharString name="boxdrawingsheavyquadrupledashvertical">
          0 840 -520 rmoveto
          540 -480 -540 vlineto
          480 2100 rmoveto
          540 -480 -540 vlineto
          480 -700 rmoveto
          540 -480 -540 vlineto
          480 -700 rmoveto
          540 -480 -540 vlineto
          endchar
        </CharString>
        <CharString name="boxdrawingsheavyright">
          0 1210 460 rmoveto
          480 -690 -480 vlineto
          endchar
        </CharString>
        <CharString name="boxdrawingsheavytripledashhorizontal">
          0 1120 460 rmoveto
          480 -240 -480 vlineto
          -560 hmoveto
          480 -240 -480 vlineto
          640 hmoveto
          480 -240 -480 vlineto
          endchar
        </CharString>
        <CharString name="boxdrawingsheavytripledashvertical">
          0 840 -520 rmoveto
          800 -480 -800 vlineto
          480 1920 rmoveto
          800 -480 -800 vlineto
          480 -960 rmoveto
          800 -480 -800 vlineto
          endchar
        </CharString>
        <CharString name="boxdrawingsheavyup">
          0 840 620 rmoveto
          1380 -480 -1380 vlineto
          endchar
        </CharString>
        <CharString name="boxdrawingsheavyupandhorizontal">
          0 1210 460 rmoveto
          480 -370 1060 -480 -1060 -370 -480 vlineto
          endchar
        </CharString>
        <CharString name="boxdrawingsheavyupandleft">
          0 840 460 rmoveto
          1540 -480 -1060 -370 -480 vlineto
          endchar
        </CharString>
        <CharString name="boxdrawingsheavyupandlightdown">
          0 680 -1000 rmoveto
          1620 160 1380 -480 -1380 160 -1620 vlineto
          endchar
        </CharString>
        <CharString name="boxdrawingsheavyupandright">
          0 1210 460 rmoveto
          480 -370 1060 -480 -1540 vlineto
          endchar
        </CharString>
        <CharString name="boxdrawingsheavyvertical">
          0 840 -1000 rmoveto
          3000 -480 -3000 vlineto
          endchar
        </CharString>
        <CharString name="boxdrawingsheavyverticalandhorizontal">
          0 840 -1000 rmoveto
          1460 370 480 -370 1060 -480 -1060 -370 -480 370 -1460 vlineto
          endchar
        </CharString>
        <CharString name="boxdrawingsheavyverticalandleft">
          0 840 -1000 rmoveto
          3000 -480 -1060 -370 -480 370 -1460 vlineto
          endchar
        </CharString>
        <CharString name="boxdrawingsheavyverticalandright">
          0 840 -1000 rmoveto
          1460 370 480 -370 1060 -480 -3000 vlineto
          endchar
        </CharString>
        <CharString name="boxdrawingsleftdownheavyandrightuplight">
          0 840 -1000 rmoveto
          1620 370 160 -370 160 -160 1060 -160 -1060 -530 -480 370 -1460 vlineto
          endchar
        </CharString>
        <CharString name="boxdrawingsleftheavyandrightdownlight">
          0 680 -1000 rmoveto
          1620 530 160 -530 160 -690 -480 530 -1460 vlineto
          endchar
        </CharString>
        <CharString name="boxdrawingsleftheavyandrightuplight">
          0 680 460 rmoveto
          160 530 160 -530 1220 -160 -1060 -530 -480 vlineto
          endchar
        </CharString>
        <CharString name="boxdrawingsleftheavyandrightverticallight">
          0 680 -1000 rmoveto
          1620 530 160 -530 1220 -160 -1060 -530 -480 530 -1460 vlineto
          endchar
        </CharString>
        <CharString name="boxdrawingsleftlightandrightdownheavy">
          0 840 -1000 rmoveto
          1460 370 480 -850 -160 -370 -160 370 -1620 vlineto
          endchar
        </CharString>
        <CharString name="boxdrawingsleftlightandrightupheavy">
          0 1210 460 rmoveto
          480 -370 1060 -480 -1220 -370 -160 370 -160 vlineto
          endchar
        </CharString>
        <CharString name="boxdrawingsleftlightandrightverticalheavy">
          0 840 -1000 rmoveto
          1460 370 480 -370 1060 -480 -1220 -370 -160 370 -1620 vlineto
          endchar
        </CharString>
        <CharString name="boxdrawingsleftupheavyandrightdownlight">
          0 680 -1000 rmoveto
          1460 160 160 370 160 -370 1220 -480 -1060 -370 -480 530 -1460 vlineto
          endchar
        </CharString>
        <CharString name="boxdrawingslightarcdownandleft">
          0 680 -1000 rmoveto
          1240 vlineto
          0 75 -14 70 -28 65 -28 65 -39 57 -49 50 -50 49 -57 39 -65 28 -65 28 -70 14 -75 0 rrcurveto
          -150 -160 150 hlineto
          69 0 64 -17 58 -34 57 -35 46 -46 35 -57 34 -58 17 -64 0 -69 rrcurveto
          -1240 vlineto
          endchar
        </CharString>
        <CharString name="boxdrawingslightarcdownandright">
          0 680 -1000 rmoveto
          1240 vlineto
          0 69 17 64 35 58 34 57 46 46 58 35 57 34 64 17 69 0 rrcurveto
          150 160 -150 hlineto
          -75 0 -69 -14 -65 -28 -65 -28 -58 -39 -49 -49 -50 -50 -39 -57 -28 -65 -28 -65 -14 -70 0 -75 rrcurveto
          -1240 vlineto
          endchar
        </CharString>
        <CharString name="boxdrawingslightarcupandleft">
          0 140 620 rmoveto
          75 0 70 14 65 28 65 28 57 39 50 50 49 49 39 58 28 65 28 65 14 69 0 75 rrcurveto
          1240 -160 -1240 vlineto
          0 -69 -17 -64 -34 -57 -35 -58 -46 -46 -57 -34 -58 -35 -64 -17 -69 0 rrcurveto
          -150 -160 hlineto
          endchar
        </CharString>
        <CharString name="boxdrawingslightarcupandright">
          0 1210 620 rmoveto
          160 -150 vlineto
          -69 0 -64 17 -57 35 -58 34 -46 46 -34 58 -35 57 -17 64 0 69 rrcurveto
          1240 -160 -1240 vlineto
          0 -75 14 -69 28 -65 28 -65 39 -58 50 -49 49 -50 58 -39 65 -28 65 -28 69 -14 75 0 rrcurveto
          endchar
        </CharString>
        <CharString name="boxdrawingslightdiagonalcross">
          0 1130 -635 rmoveto
          -530 1060 -530 -1060 -145 72 585 1169 -580 1160 144 71 526 -1051 526 1051 144 -71 -580 -1160 585 -1169 rlineto
          endchar
        </CharString>
        <CharString name="boxdrawingslightdiagonalupperlefttolowerright">
          0 1130 -635 rmoveto
          -1200 2401 144 71 1201 -2400 rlineto
          endchar
        </CharString>
        <CharString name="boxdrawingslightdiagonalupperrighttolowerleft">
          0 70 -635 rmoveto
          1200 2401 -144 71 -1201 -2400 rlineto
          endchar
        </CharString>
        <CharString name="boxdrawingslightdoubledashhorizontal">
          0 520 620 rmoveto
          160 -440 -160 vlineto
          1040 hmoveto
          160 -440 -160 vlineto
          endchar
        </CharString>
        <CharString name="boxdrawingslightdoubledashvertical">
          0 680 -520 rmoveto
          1280 -160 -1280 vlineto
          160 1440 rmoveto
          1280 -160 -1280 vlineto
          endchar
        </CharString>
        <CharString name="boxdrawingslightdown">
          0 680 -1000 rmoveto
          1780 -160 -1780 vlineto
          endchar
        </CharString>
        <CharString name="boxdrawingslightdownandhorizontal">
          0 680 -1000 rmoveto
          1620 530 160 -1220 -160 530 -1620 vlineto
          endchar
        </CharString>
        <CharString name="boxdrawingslightdownandleft">
          0 680 -1000 rmoveto
          1780 -690 -160 530 -1620 vlineto
          endchar
        </CharString>
        <CharString name="boxdrawingslightdownandright">
          0 680 -1000 rmoveto
          1620 530 160 -690 -1780 vlineto
          endchar
        </CharString>
        <CharString name="boxdrawingslighthorizontal">
          0 1210 620 rmoveto
          160 -1220 -160 vlineto
          endchar
        </CharString>
        <CharString name="boxdrawingslightleft">
          0 680 620 rmoveto
          160 -690 -160 vlineto
          endchar
        </CharString>
        <CharString name="boxdrawingslightleftandheavyright">
          0 1210 460 rmoveto
          480 -690 -160 -530 -160 530 -160 vlineto
          endchar
        </CharString>
        <CharString name="boxdrawingslightquadrupledashhorizontal">
          0 1125 620 rmoveto
          160 -150 -160 vlineto
          -450 hmoveto
          160 -150 -160 vlineto
          450 hmoveto
          160 -150 -160 vlineto
          -450 hmoveto
          160 -150 -160 vlineto
          endchar
        </CharString>
        <CharString name="boxdrawingslightquadrupledashvertical">
          0 680 -520 rmoveto
          540 -160 -540 vlineto
          160 2100 rmoveto
          540 -160 -540 vlineto
          160 -700 rmoveto
          540 -160 -540 vlineto
          160 -700 rmoveto
          540 -160 -540 vlineto
          endchar
        </CharString>
        <CharString name="boxdrawingslightright">
          0 1210 620 rmoveto
          160 -690 -160 vlineto
          endchar
        </CharString>
        <CharString name="boxdrawingslighttripledashhorizontal">
          0 1120 620 rmoveto
          160 -240 -160 vlineto
          -560 hmoveto
          160 -240 -160 vlineto
          640 hmoveto
          160 -240 -160 vlineto
          endchar
        </CharString>
        <CharString name="boxdrawingslighttripledashvertical">
          0 680 -520 rmoveto
          800 -160 -800 vlineto
          160 1920 rmoveto
          800 -160 -800 vlineto
          160 -960 rmoveto
          800 -160 -800 vlineto
          endchar
        </CharString>
        <CharString name="boxdrawingslightup">
          0 680 620 rmoveto
          1380 -160 -1380 vlineto
          endchar
        </CharString>
        <CharString name="boxdrawingslightupandheavydown">
          0 840 -1000 rmoveto
          1780 -160 1220 -160 -1220 -160 -1780 vlineto
          endchar
        </CharString>
        <CharString name="boxdrawingslightupandhorizontal">
          0 1210 620 rmoveto
          160 -530 1220 -160 -1220 -530 -160 vlineto
          endchar
        </CharString>
        <CharString name="boxdrawingslightupandleft">
          0 680 620 rmoveto
          1380 -160 -1220 -530 -160 vlineto
          endchar
        </CharString>
        <CharString name="boxdrawingslightupandright">
          0 1210 620 rmoveto
          160 -530 1220 -160 -1380 vlineto
          endchar
        </CharString>
        <CharString name="boxdrawingslightvertical">
          0 680 -1000 rmoveto
          3000 -160 -3000 vlineto
          endchar
        </CharString>
        <CharString name="boxdrawingslightverticalandhorizontal">
          0 680 -1000 rmoveto
          1620 530 160 -530 1220 -160 -1220 -530 -160 530 -1620 vlineto
          endchar
        </CharString>
        <CharString name="boxdrawingslightverticalandleft">
          0 680 -1000 rmoveto
          3000 -160 -1220 -530 -160 530 -1620 vlineto
          endchar
        </CharString>
        <CharString name="boxdrawingslightverticalandright">
          0 680 -1000 rmoveto
          1620 530 160 -530 1220 -160 -3000 vlineto
          endchar
        </CharString>
        <CharString name="boxdrawingsrightdownheavyandleftuplight">
          0 840 -1000 rmoveto
          1460 370 480 -530 1060 -160 -1060 -160 -160 -370 -160 370 -1620 vlineto
          endchar
        </CharString>
        <CharString name="boxdrawingsrightheavyandleftdownlight">
          0 680 -1000 rmoveto
          1460 530 480 -690 -160 -530 -160 530 -1620 vlineto
          endchar
        </CharString>
        <CharString name="boxdrawingsrightheavyandleftuplight">
          0 1210 460 rmoveto
          480 -530 1060 -160 -1220 -530 -160 530 -160 vlineto
          endchar
        </CharString>
        <CharString name="boxdrawingsrightheavyandleftverticallight">
          0 680 -1000 rmoveto
          1460 530 480 -530 1060 -160 -1220 -530 -160 530 -1620 vlineto
          endchar
        </CharString>
        <CharString name="boxdrawingsrightlightandleftdownheavy">
          0 840 -1000 rmoveto
          1620 370 160 -370 160 -850 -480 370 -1460 vlineto
          endchar
        </CharString>
        <CharString name="boxdrawingsrightlightandleftupheavy">
          0 840 460 rmoveto
          160 370 160 -370 1220 -480 -1060 -370 -480 vlineto
          endchar
        </CharString>
        <CharString name="boxdrawingsrightlightandleftverticalheavy">
          0 840 -1000 rmoveto
          1620 370 160 -370 1220 -480 -1060 -370 -480 370 -1460 vlineto
          endchar
        </CharString>
        <CharString name="boxdrawingsrightupheavyandleftdownlight">
          0 680 -1000 rmoveto
          1460 530 480 -370 1060 -480 -1220 -370 -160 370 -160 160 -1460 vlineto
          endchar
        </CharString>
        <CharString name="boxdrawingsupdoubleandhorizontalsingle">
          0 1210 620 rmoveto
          160 -370 1220 -160 -1220 -160 1220 -160 -1220 -370 -160 vlineto
          endchar
        </CharString>
        <CharString name="boxdrawingsupdoubleandleftsingle">
          0 840 620 rmoveto
          1380 -160 -1220 -160 1220 -160 -1220 -370 -160 vlineto
          endchar
        </CharString>
        <CharString name="boxdrawingsupdoubleandrightsingle">
          0 1210 620 rmoveto
          160 -370 1220 -160 -1220 -160 1220 -160 -1380 vlineto
          endchar
        </CharString>
        <CharString name="boxdrawingsupheavyanddownhorizontallight">
          0 680 -1000 rmoveto
          1620 530 160 -370 1220 -480 -1220 -370 -160 530 -1620 vlineto
          endchar
        </CharString>
        <CharString name="boxdrawingsupheavyandhorizontallight">
          0 1210 620 rmoveto
          160 -370 1220 -480 -1220 -370 -160 vlineto
          endchar
        </CharString>
        <CharString name="boxdrawingsupheavyandleftdownlight">
          0 680 -1000 rmoveto
          1620 160 1380 -480 -1220 -370 -160 530 -1620 vlineto
          endchar
        </CharString>
        <CharString name="boxdrawingsupheavyandleftlight">
          0 840 620 rmoveto
          1380 -480 -1220 -370 -160 vlineto
          endchar
        </CharString>
        <CharString name="boxdrawingsupheavyandrightdownlight">
          0 680 -1000 rmoveto
          1620 530 160 -370 1220 -480 -1380 160 -1620 vlineto
          endchar
        </CharString>
        <CharString name="boxdrawingsupheavyandrightlight">
          0 1210 620 rmoveto
          160 -370 1220 -480 -1380 vlineto
          endchar
        </CharString>
        <CharString name="boxdrawingsuplightanddownhorizontalheavy">
          0 840 -1000 rmoveto
          1460 370 480 -530 1060 -160 -1060 -530 -480 370 -1460 vlineto
          endchar
        </CharString>
        <CharString name="boxdrawingsuplightandhorizontalheavy">
          0 1210 460 rmoveto
          480 -530 1060 -160 -1060 -530 -480 vlineto
          endchar
        </CharString>
        <CharString name="boxdrawingsuplightandleftdownheavy">
          0 840 -1000 rmoveto
          1940 -160 1060 -160 -1060 -530 -480 370 -1460 vlineto
          endchar
        </CharString>
        <CharString name="boxdrawingsuplightandleftheavy">
          0 680 460 rmoveto
          1540 -160 -1060 -530 -480 vlineto
          endchar
        </CharString>
        <CharString name="boxdrawingsuplightandrightdownheavy">
          0 840 -1000 rmoveto
          1460 370 480 -530 1060 -160 -1060 -160 -1940 vlineto
          endchar
        </CharString>
        <CharString name="boxdrawingsuplightandrightheavy">
          0 1210 460 rmoveto
          480 -530 1060 -160 -1540 vlineto
          endchar
        </CharString>
        <CharString name="boxdrawingsupsingleandhorizontaldouble">
          0 1210 460 rmoveto
          160 -1220 -160 vlineto
          1220 320 rmoveto
          160 -530 1060 -160 -1060 -530 -160 vlineto
          endchar
        </CharString>
        <CharString name="boxdrawingsupsingleandleftdouble">
          0 680 460 rmoveto
          1540 -160 -1060 -530 -160 530 -160 -530 -160 vlineto
          endchar
        </CharString>
        <CharString name="boxdrawingsupsingleandrightdouble">
          0 1210 460 rmoveto
          160 -530 160 530 160 -530 1060 -160 -1540 vlineto
          endchar
        </CharString>
        <CharString name="boxdrawingsverticaldoubleandhorizontalsingle">
          0 840 -1000 rmoveto
          1620 370 160 -370 1220 -160 -1220 -160 1220 -160 -1220 -370 -160 370 -1620 160 1620 160 -1620 vlineto
          endchar
        </CharString>
        <CharString name="boxdrawingsverticaldoubleandleftsingle">
          0 840 -1000 rmoveto
          3000 -160 -3000 vlineto
          -160 hmoveto
          3000 -160 -1220 -370 -160 370 -1620 vlineto
          endchar
        </CharString>
        <CharString name="boxdrawingsverticaldoubleandrightsingle">
          0 520 -1000 rmoveto
          3000 -160 -3000 vlineto
          480 hmoveto
          1620 370 160 -370 1220 -160 -3000 vlineto
          endchar
        </CharString>
        <CharString name="boxdrawingsverticalheavyandhorizontallight">
          0 840 -1000 rmoveto
          1620 370 160 -370 1220 -480 -1220 -370 -160 370 -1620 vlineto
          endchar
        </CharString>
        <CharString name="boxdrawingsverticalheavyandleftlight">
          0 840 -1000 rmoveto
          3000 -480 -1220 -370 -160 370 -1620 vlineto
          endchar
        </CharString>
        <CharString name="boxdrawingsverticalheavyandrightlight">
          0 840 -1000 rmoveto
          1620 370 160 -370 1220 -480 -3000 vlineto
          endchar
        </CharString>
        <CharString name="boxdrawingsverticallightandhorizontalheavy">
          0 680 -1000 rmoveto
          1460 530 480 -530 1060 -160 -1060 -530 -480 530 -1460 vlineto
          endchar
        </CharString>
        <CharString name="boxdrawingsverticallightandleftheavy">
          0 680 -1000 rmoveto
          3000 -160 -1060 -530 -480 530 -1460 vlineto
          endchar
        </CharString>
        <CharString name="boxdrawingsverticallightandrightheavy">
          0 680 -1000 rmoveto
          1460 530 480 -530 1060 -160 -3000 vlineto
          endchar
        </CharString>
        <CharString name="boxdrawingsverticalsingleandhorizontaldouble">
          0 680 -1000 rmoveto
          1460 530 160 -530 160 530 160 -530 1060 -160 -1060 -530 -160 530 -160 -530 -160 530 -1460 vlineto
          endchar
        </CharString>
        <CharString name="boxdrawingsverticalsingleandleftdouble">
          0 680 -1000 rmoveto
          3000 -160 -1060 -530 -160 530 -160 -530 -160 530 -1460 vlineto
          endchar
        </CharString>
        <CharString name="boxdrawingsverticalsingleandrightdouble">
          0 680 -1000 rmoveto
          1460 530 160 -530 160 530 160 -530 1060 -160 -3000 vlineto
          endchar
        </CharString>
        <CharString name="braceleft">
          0 928 -263 rmoveto
          22 0 19 8 16 15 16 15 8 22 0 29 0 24 -8 20 -16 16 -17 16 -19 8 -21 0 rrcurveto
          -68 hlineto
          -76 0 -55 11 -33 23 -53 35 -26 48 0 61 0 17 1 28 2 40 rrcurveto
          3 208 rlineto
          0 140 -31 97 -62 53 -10 8 -5 10 0 11 0 11 5 10 10 8 62 53 31 97 0 140 rrcurveto
          -3 208 rlineto
          -2 40 -1 28 0 17 0 61 26 48 53 35 33 23 55 11 76 0 rrcurveto
          69 hlineto
          21 0 19 8 17 16 16 16 8 20 0 24 0 29 -8 23 -16 15 -16 15 -19 7 -22 0 -104 0 -65 -1 -26 -1 -70 -5 -58 -21 -46 -38 -85 -65 -42 -94 0 -125 0 -27 2 -56 3 -83 rrcurveto
          3 -83 2 -52 0 -20 0 -73 -18 -54 -35 -35 -25 -25 -32 -12 -39 0 -69 0 -35 -31 0 -62 0 -62 35 -31 69 0 39 0 32 -12 25 -25 35 -35 18 -54 0 -73 0 -20 -2 -52 -3 -83 rrcurveto
          -3 -83 -2 -56 0 -27 0 -125 42 -94 85 -65 46 -38 58 -21 70 -4 26 -2 65 -1 103 0 rrcurveto
          endchar
        </CharString>
        <CharString name="braceleft_double">
          0 -72 -263 rmoveto
          22 0 19 8 16 15 16 15 8 22 0 29 0 24 -8 20 -16 16 -17 16 -19 8 -21 0 rrcurveto
          -68 hlineto
          -76 0 -55 11 -33 23 -53 35 -26 48 0 61 0 17 1 28 2 40 rrcurveto
          3 208 rlineto
          0 140 -31 97 -62 53 -10 8 -5 10 0 11 0 11 5 10 10 8 62 53 31 97 0 140 rrcurveto
          -3 208 rlineto
          -2 40 -1 28 0 17 0 61 26 48 53 35 33 23 55 11 76 0 rrcurveto
          69 hlineto
          21 0 19 8 17 16 16 16 8 20 0 24 0 29 -8 23 -16 15 -16 15 -19 7 -22 0 -104 0 -65 -1 -26 -1 -70 -5 -58 -21 -46 -38 -85 -65 -42 -94 0 -125 0 -27 2 -56 3 -83 rrcurveto
          3 -83 2 -52 0 -20 0 -73 -18 -54 -35 -35 -25 -25 -32 -12 -39 0 -69 0 -35 -31 0 -62 0 -62 35 -31 69 0 39 0 32 -12 25 -25 35 -35 18 -54 0 -73 0 -20 -2 -52 -3 -83 rrcurveto
          -3 -83 -2 -56 0 -27 0 -125 42 -94 85 -65 46 -38 58 -21 70 -4 26 -2 65 -1 103 0 rrcurveto
          800 hmoveto
          22 0 19 8 16 15 16 15 8 22 0 29 0 24 -8 20 -16 16 -17 16 -19 8 -21 0 rrcurveto
          -68 hlineto
          -76 0 -55 11 -33 23 -53 35 -26 48 0 61 0 17 1 28 2 40 rrcurveto
          3 208 rlineto
          0 140 -31 97 -62 53 -10 8 -5 10 0 11 0 11 5 10 10 8 62 53 31 97 0 140 rrcurveto
          -3 208 rlineto
          -2 40 -1 28 0 17 0 61 26 48 53 35 33 23 55 11 76 0 rrcurveto
          69 hlineto
          21 0 19 8 17 16 16 16 8 20 0 24 0 29 -8 23 -16 15 -16 15 -19 7 -22 0 -104 0 -65 -1 -26 -1 -70 -5 -58 -21 -46 -38 -85 -65 -42 -94 0 -125 0 -27 2 -56 3 -83 rrcurveto
          3 -83 2 -52 0 -20 0 -73 -18 -54 -35 -35 -25 -25 -32 -12 -39 0 -69 0 -35 -31 0 -62 0 -62 35 -31 69 0 39 0 32 -12 25 -25 35 -35 18 -54 0 -73 0 -20 -2 -52 -3 -83 rrcurveto
          -3 -83 -2 -56 0 -27 0 -125 42 -94 85 -65 46 -38 58 -21 70 -4 26 -2 65 -1 103 0 rrcurveto
          endchar
        </CharString>
        <CharString name="braceright">
          0 363 -263 rmoveto
          43 0 34 1 26 2 26 1 29 6 33 10 32 10 29 15 25 21 85 65 42 94 0 125 0 27 -2 56 -3 83 -3 83 -2 52 0 20 0 73 18 54 35 35 25 25 32 12 39 0 rrcurveto
          69 0 35 31 0 62 0 62 -35 31 -69 0 -39 0 -32 12 -25 25 -35 35 -18 54 0 73 0 20 2 52 3 83 3 83 2 56 0 27 0 125 -42 94 -85 65 -46 38 -58 21 -70 5 rrcurveto
          -26 1 -65 1 -104 0 -22 0 -19 -7 -16 -15 -16 -15 -8 -23 0 -29 0 -24 8 -20 17 -16 16 -16 19 -8 21 0 rrcurveto
          69 hlineto
          76 0 55 -11 33 -23 53 -35 26 -48 0 -61 0 -17 -1 -28 -2 -40 rrcurveto
          -3 -208 rlineto
          0 -140 31 -97 62 -53 10 -8 5 -10 0 -11 0 -11 -5 -10 -10 -8 -62 -53 -31 -97 0 -140 rrcurveto
          3 -208 rlineto
          2 -40 1 -28 0 -17 0 -61 -26 -48 -53 -35 -33 -23 -55 -11 -76 0 rrcurveto
          -68 hlineto
          -21 0 -19 -8 -16 -16 -17 -16 -8 -20 0 -24 0 -29 8 -22 16 -15 16 -15 19 -8 22 0 rrcurveto
          endchar
        </CharString>
        <CharString name="braceright_double">
          0 -637 -263 rmoveto
          43 0 34 1 26 2 26 1 29 6 33 10 32 10 29 15 25 21 85 65 42 94 0 125 0 27 -2 56 -3 83 -3 83 -2 52 0 20 0 73 18 54 35 35 25 25 32 12 39 0 rrcurveto
          69 0 35 31 0 62 0 62 -35 31 -69 0 -39 0 -32 12 -25 25 -35 35 -18 54 0 73 0 20 2 52 3 83 3 83 2 56 0 27 0 125 -42 94 -85 65 -46 38 -58 21 -70 5 rrcurveto
          -26 1 -65 1 -104 0 -22 0 -19 -7 -16 -15 -16 -15 -8 -23 0 -29 0 -24 8 -20 17 -16 16 -16 19 -8 21 0 rrcurveto
          69 hlineto
          76 0 55 -11 33 -23 53 -35 26 -48 0 -61 0 -17 -1 -28 -2 -40 rrcurveto
          -3 -208 rlineto
          0 -140 31 -97 62 -53 10 -8 5 -10 0 -11 0 -11 -5 -10 -10 -8 -62 -53 -31 -97 0 -140 rrcurveto
          3 -208 rlineto
          2 -40 1 -28 0 -17 0 -61 -26 -48 -53 -35 -33 -23 -55 -11 -76 0 rrcurveto
          -68 hlineto
          -21 0 -19 -8 -16 -16 -17 -16 -8 -20 0 -24 0 -29 8 -22 16 -15 16 -15 19 -8 22 0 rrcurveto
          891 hmoveto
          43 0 34 1 26 2 26 1 29 6 33 10 32 10 29 15 25 21 85 65 42 94 0 125 0 27 -2 56 -3 83 -3 83 -2 52 0 20 0 73 18 54 35 35 25 25 32 12 39 0 rrcurveto
          69 0 35 31 0 62 0 62 -35 31 -69 0 -39 0 -32 12 -25 25 -35 35 -18 54 0 73 0 20 2 52 3 83 3 83 2 56 0 27 0 125 -42 94 -85 65 -46 38 -58 21 -70 5 rrcurveto
          -26 1 -65 1 -104 0 -22 0 -19 -7 -16 -15 -16 -15 -8 -23 0 -29 0 -24 8 -20 17 -16 16 -16 19 -8 21 0 rrcurveto
          69 hlineto
          76 0 55 -11 33 -23 53 -35 26 -48 0 -61 0 -17 -1 -28 -2 -40 rrcurveto
          -3 -208 rlineto
          0 -140 31 -97 62 -53 10 -8 5 -10 0 -11 0 -11 -5 -10 -10 -8 -62 -53 -31 -97 0 -140 rrcurveto
          3 -208 rlineto
          2 -40 1 -28 0 -17 0 -61 -26 -48 -53 -35 -33 -23 -55 -11 -76 0 rrcurveto
          -68 hlineto
          -21 0 -19 -8 -16 -16 -17 -16 -8 -20 0 -24 0 -29 8 -22 16 -15 16 -15 19 -8 22 0 rrcurveto
          endchar
        </CharString>
        <CharString name="bracketleft">
          0 840 -270 rmoveto
          25 0 21 9 18 18 17 17 9 21 0 25 0 25 -9 21 -17 18 -18 17 -21 9 -25 0 rrcurveto
          -337 hlineto
          -22 0 -11 11 0 22 rrcurveto
          1515 vlineto
          0 21 11 11 22 0 rrcurveto
          337 hlineto
          25 0 21 9 18 18 17 17 9 21 0 25 0 25 -9 21 -17 18 -18 17 -21 9 -25 0 rrcurveto
          -456 hlineto
          -26 0 -22 -9 -18 -18 -19 -19 -9 -22 0 -25 rrcurveto
          -1754 vlineto
          0 -25 9 -22 19 -18 18 -19 22 -9 26 0 rrcurveto
          endchar
        </CharString>
        <CharString name="bracketright">
          0 380 -270 rmoveto
          456 hlineto
          26 0 22 9 19 19 18 18 9 22 0 25 rrcurveto
          1754 vlineto
          0 25 -9 22 -18 19 -19 18 -22 9 -26 0 rrcurveto
          -456 hlineto
          -25 0 -21 -9 -17 -17 -18 -18 -9 -21 0 -25 0 -25 9 -21 18 -17 17 -18 21 -9 25 0 rrcurveto
          337 hlineto
          22 0 11 -11 0 -21 rrcurveto
          -1515 vlineto
          0 -22 -11 -11 -22 0 rrcurveto
          -337 hlineto
          -25 0 -21 -9 -17 -17 -18 -18 -9 -21 0 -25 0 -25 9 -21 18 -17 17 -18 21 -9 25 0 rrcurveto
          endchar
        </CharString>
        <CharString name="bracketright_numbersign">
          0 -384 -270 rmoveto
          26 0 22 9 19 19 18 18 9 22 0 25 rrcurveto
          527 900 180 -900 340 500 180 -500 527 vlineto
          0 25 -9 22 -18 19 -19 18 -22 9 -26 0 rrcurveto
          -456 hlineto
          -25 0 -21 -9 -17 -17 -18 -18 -9 -21 0 -25 0 -25 9 -21 18 -17 17 -18 21 -9 25 0 rrcurveto
          337 hlineto
          22 0 11 -11 0 -21 rrcurveto
          -1515 vlineto
          0 -22 -11 -11 -22 0 rrcurveto
          -337 hlineto
          -25 0 -21 -9 -17 -17 -18 -18 -9 -21 0 -25 0 -25 9 -21 18 -17 17 -18 21 -9 25 0 rrcurveto
          1910 1140 rmoveto
          24 0 21 9 18 18 18 18 9 21 0 25 0 24 -9 21 -18 18 -18 17 -21 9 -24 0 rrcurveto
          -480 -180 hlineto
          -189 -900 rmoveto
          24 0 21 9 18 18 18 18 9 21 0 24 rrcurveto
          170 -181 -170 vlineto
          0 -24 9 -21 18 -18 18 -18 21 -9 25 0 rrcurveto
          90 680 rmoveto
          691 vlineto
          0 24 -9 21 -18 18 -18 17 -21 9 -25 0 -24 0 -21 -9 -18 -17 -18 -18 -9 -21 0 -24 rrcurveto
          -691 vlineto
          491 -680 rmoveto
          24 0 21 9 18 18 17 18 9 21 0 24 rrcurveto
          690 -180 -690 vlineto
          0 -24 9 -21 18 -18 18 -18 21 -9 25 0 rrcurveto
          89 1200 rmoveto
          171 vlineto
          0 24 -9 21 -17 18 -18 17 -21 9 -25 0 -24 0 -21 -9 -18 -17 -18 -18 -9 -21 0 -24 rrcurveto
          -171 vlineto
          360 -820 rmoveto
          24 0 21 9 18 18 18 18 9 21 0 24 0 24 -9 21 -18 18 -18 18 -21 9 -24 0 rrcurveto
          -80 -180 hlineto
          endchar
        </CharString>
        <CharString name="bracketright_numbersign_alt">
          0 491 870 rmoveto
          219 -340 -219 hlineto
          -181 hmoveto
          -600 340 600 hlineto
          580 -520 rmoveto
          180 hlineto
          24 0 21 9 18 18 18 18 9 21 0 24 0 24 -9 21 -18 18 -18 18 -21 9 -24 0 rrcurveto
          -180 340 180 hlineto
          24 0 21 9 18 18 18 18 9 21 0 25 0 24 -9 21 -18 18 -18 17 -21 9 -24 0 rrcurveto
          -180 291 hlineto
          0 24 -9 21 -17 18 -18 17 -21 9 -25 0 -24 0 -21 -9 -18 -17 -18 -18 -9 -21 0 -24 rrcurveto
          -291 -219 291 vlineto
          0 24 -9 21 -18 18 -18 17 -21 9 -25 0 -24 0 -21 -9 -18 -17 -18 -18 -9 -21 0 -24 rrcurveto
          -291 -600 527 vlineto
          0 25 -9 22 -18 19 -19 18 -22 9 -26 0 rrcurveto
          -456 hlineto
          -25 0 -21 -9 -17 -17 -18 -18 -9 -21 0 -25 0 -25 9 -21 18 -17 17 -18 21 -9 25 0 rrcurveto
          337 hlineto
          22 0 11 -11 0 -21 rrcurveto
          -1515 vlineto
          0 -22 -11 -11 -22 0 rrcurveto
          -337 hlineto
          -25 0 -21 -9 -17 -17 -18 -18 -9 -21 0 -25 0 -25 9 -21 18 -17 17 -18 21 -9 25 0 rrcurveto
          456 hlineto
          26 0 22 9 19 19 18 18 9 22 0 25 rrcurveto
          527 600 -290 vlineto
          0 -24 9 -21 18 -18 18 -18 21 -9 25 0 24 0 21 9 18 18 18 18 9 21 0 24 rrcurveto
          290 219 -290 vlineto
          0 -24 9 -21 18 -18 18 -18 21 -9 25 0 24 0 21 9 18 18 17 18 9 21 0 24 rrcurveto
          endchar
        </CharString>
        <CharString name="brokenbar">
          0 690 1640 rmoveto
          0 25 -9 21 -17 18 -18 17 -21 9 -25 0 -25 0 -21 -9 -17 -17 -18 -18 -9 -21 0 -25 rrcurveto
          -680 vlineto
          0 -25 9 -21 18 -17 17 -18 21 -9 25 0 25 0 21 9 18 18 17 17 9 21 0 25 rrcurveto
          -450 vmoveto
          0 25 -9 21 -17 18 -18 17 -21 9 -25 0 -25 0 -21 -9 -17 -17 -18 -18 -9 -21 0 -25 rrcurveto
          -680 vlineto
          0 -25 9 -21 18 -17 17 -18 21 -9 25 0 25 0 21 9 18 18 17 17 9 21 0 25 rrcurveto
          endchar
        </CharString>
        <CharString name="c">
          0 680 -30 rmoveto
          111 0 106 40 102 80 21 16 11 21 0 27 0 27 -7 22 -14 17 -15 16 -18 8 -21 0 -18 0 -15 -4 -11 -9 -75 -53 -73 -27 -72 0 -101 0 -77 33 -53 65 -54 65 -27 89 0 113 rrcurveto
          0 123 28 92 57 63 56 63 76 31 97 0 62 0 63 -20 64 -39 15 -9 16 -5 16 0 26 0 20 10 14 19 13 19 7 20 0 21 0 27 -10 22 -20 19 -79 72 -97 36 -114 0 rrcurveto
          -91 0 -85 -21 -77 -43 -77 -43 -62 -61 -47 -79 -47 -79 -24 -106 0 -132 0 -114 21 -97 42 -81 41 -81 60 -63 78 -44 78 -44 86 -22 94 0 rrcurveto
          endchar
        </CharString>
        <CharString name="ccedilla">
          0 680 -30 rmoveto
          111 0 106 40 102 80 21 16 11 21 0 27 0 27 -7 22 -14 17 -15 16 -18 8 -21 0 -18 0 -15 -4 -11 -9 -75 -53 -73 -27 -72 0 -101 0 -77 33 -53 65 -54 65 -27 89 0 113 rrcurveto
          0 123 28 92 57 63 56 63 76 31 97 0 62 0 63 -20 64 -39 15 -9 16 -5 16 0 26 0 20 10 14 19 13 19 7 20 0 21 0 27 -10 22 -20 19 -79 72 -97 36 -114 0 rrcurveto
          -91 0 -85 -21 -77 -43 -77 -43 -62 -61 -47 -79 -47 -79 -24 -106 0 -132 0 -114 21 -97 42 -81 41 -81 60 -63 78 -44 78 -44 86 -22 94 0 rrcurveto
          -102 -467 rmoveto
          71 0 61 17 51 35 51 36 26 51 0 68 0 43 -15 38 -31 35 -27 30 -43 20 -58 8 -11 2 -9 9 0 12 rrcurveto
          59 vlineto
          0 37 -30 30 -37 0 -34 0 -29 -27 -3 -34 rrcurveto
          -11 -140 rlineto
          0 -20 15 -17 21 -1 38 -2 30 -5 24 -8 32 -11 16 -22 0 -35 0 -30 -11 -20 -22 -13 -23 -12 -29 -6 -35 0 -32 0 -30 4 -29 9 -6 2 -7 1 -6 0 -22 0 -21 -12 -11 -20 rrcurveto
          -5 -10 -2 -10 0 -10 0 -25 15 -24 27 -9 rrcurveto
          30 -9 rlineto
          39 -9 40 -5 42 0 rrcurveto
          endchar
        </CharString>
        <CharString name="cedilla">
          0 578 -497 rmoveto
          71 0 61 17 51 35 51 36 26 51 0 68 0 43 -15 38 -31 35 -27 30 -43 20 -58 8 -11 2 -9 9 0 12 rrcurveto
          59 vlineto
          0 37 -30 30 -37 0 -34 0 -29 -27 -3 -34 rrcurveto
          -11 -140 rlineto
          0 -20 15 -17 21 -1 38 -2 30 -5 24 -8 32 -11 16 -22 0 -35 0 -30 -11 -20 -22 -13 -23 -12 -29 -6 -35 0 -32 0 -30 4 -29 9 -6 2 -7 1 -6 0 -22 0 -21 -12 -11 -20 rrcurveto
          -5 -10 -2 -10 0 -10 0 -25 15 -24 27 -9 rrcurveto
          30 -9 rlineto
          39 -9 40 -5 42 0 rrcurveto
          endchar
        </CharString>
        <CharString name="cent">
          0 610 1074 rmoveto
          -61 -9 -58 -19 -54 -30 -77 -43 -62 -61 -47 -79 -47 -79 -24 -106 0 -132 0 -114 21 -97 42 -81 41 -81 60 -63 78 -44 58 -33 63 -20 67 -9 rrcurveto
          -184 vlineto
          0 -25 9 -21 18 -17 17 -18 21 -9 25 0 25 0 21 9 18 18 17 17 9 21 0 25 rrcurveto
          194 vlineto
          72 17 69 36 68 53 21 16 11 21 0 27 0 27 -7 22 -14 17 -15 16 -18 8 -21 0 -18 0 -15 -4 -11 -9 -75 -53 -73 -27 -72 0 -101 0 -77 33 -53 65 -54 65 -27 89 0 113 rrcurveto
          0 123 28 92 57 63 56 63 76 31 97 0 62 0 63 -20 64 -39 15 -9 16 -5 16 0 26 0 20 10 14 19 13 19 7 20 0 21 0 27 -10 22 -20 19 -55 50 -63 33 -72 15 rrcurveto
          240 vlineto
          0 25 -9 21 -17 18 -18 17 -21 9 -25 0 -25 0 -21 -9 -17 -17 -18 -18 -9 -21 0 -25 rrcurveto
          endchar
        </CharString>
        <CharString name="colon">
          0 604 751 rmoveto
          43 0 38 16 31 32 31 32 15 39 0 45 0 46 -15 39 -31 32 -31 32 -38 16 -43 0 -47 0 -39 -16 -31 -32 -31 -32 -16 -39 0 -46 0 -45 16 -39 31 -32 31 -32 39 -16 47 0 rrcurveto
          -781 vmoveto
          43 0 38 16 31 33 31 32 15 38 0 45 0 46 -15 39 -31 33 -31 32 -38 16 -43 0 -47 0 -39 -16 -31 -32 -31 -33 -16 -39 0 -46 0 -45 16 -38 31 -32 31 -33 39 -16 47 0 rrcurveto
          endchar
        </CharString>
        <CharString name="colon_center">
          0 604 781 rmoveto
          43 0 38 16 31 32 31 32 15 39 0 45 0 46 -15 39 -31 32 -31 32 -38 16 -43 0 -47 0 -39 -16 -31 -32 -31 -32 -16 -39 0 -46 0 -45 16 -39 31 -32 31 -32 39 -16 47 0 rrcurveto
          -691 vmoveto
          43 0 38 16 31 33 31 32 15 38 0 45 0 46 -15 39 -31 33 -31 32 -38 16 -43 0 -47 0 -39 -16 -31 -32 -31 -33 -16 -39 0 -46 0 -45 16 -38 31 -32 31 -33 39 -16 47 0 rrcurveto
          endchar
        </CharString>
        <CharString name="colon_center_left">
          0 384 781 rmoveto
          43 0 38 16 31 32 31 32 15 39 0 45 0 46 -15 39 -31 32 -31 32 -38 16 -43 0 -47 0 -39 -16 -31 -32 -31 -32 -16 -39 0 -46 0 -45 16 -39 31 -32 31 -32 39 -16 47 0 rrcurveto
          -691 vmoveto
          43 0 38 16 31 33 31 32 15 38 0 45 0 46 -15 39 -31 33 -31 32 -38 16 -43 0 -47 0 -39 -16 -31 -32 -31 -33 -16 -39 0 -46 0 -45 16 -38 31 -32 31 -33 39 -16 47 0 rrcurveto
          endchar
        </CharString>
        <CharString name="colon_center_right">
          0 824 781 rmoveto
          43 0 38 16 31 32 31 32 15 39 0 45 0 46 -15 39 -31 32 -31 32 -38 16 -43 0 -47 0 -39 -16 -31 -32 -31 -32 -16 -39 0 -46 0 -45 16 -39 31 -32 31 -32 39 -16 47 0 rrcurveto
          -691 vmoveto
          43 0 38 16 31 33 31 32 15 38 0 45 0 46 -15 39 -31 33 -31 32 -38 16 -43 0 -47 0 -39 -16 -31 -32 -31 -33 -16 -39 0 -46 0 -45 16 -38 31 -32 31 -33 39 -16 47 0 rrcurveto
          endchar
        </CharString>
        <CharString name="comma">
          0 371 -413 rmoveto
          147 15 113 58 79 101 57 74 29 84 0 93 0 106 -27 80 -53 53 -33 33 -39 16 -43 0 -59 0 -43 -22 -26 -43 -17 -24 -9 -27 0 -30 0 -47 19 -43 39 -37 38 -38 19 -38 0 -39 rrcurveto
          0 -35 -18 -32 -35 -29 -36 -29 -49 -18 -62 -8 -56 -7 -28 -32 0 -57 5 -52 31 -26 57 0 rrcurveto
          endchar
        </CharString>
        <CharString name="copyright">
          0 602 1535 rmoveto
          -119 0 -101 -29 -84 -58 -84 -58 -65 -78 -44 -97 -44 -98 -23 -108 0 -120 0 -119 22 -108 44 -97 45 -98 64 -78 84 -58 84 -58 102 -29 119 0 119 0 102 29 83 58 83 58 64 78 44 98 rrcurveto
          44 97 21 108 0 119 0 120 -21 108 -44 98 -44 97 -64 78 -83 58 -83 58 -102 29 -119 0 rrcurveto
          -108 vmoveto
          99 0 82 -24 65 -49 65 -48 48 -65 32 -81 31 -81 16 -91 0 -99 0 -98 -16 -90 -32 -80 -32 -81 -48 -65 -65 -48 -65 -48 -81 -24 -99 0 -99 0 -82 24 -65 48 -65 48 -48 65 -32 81 rrcurveto
          -32 80 -17 90 0 98 0 99 17 91 32 81 32 81 48 65 65 48 65 49 82 24 99 0 rrcurveto
          24 -879 rmoveto
          69 0 65 24 63 50 13 9 7 14 0 16 0 17 -5 13 -9 10 -8 10 -11 5 -13 0 -12 0 -9 -2 -7 -6 -46 -32 -45 -17 -44 0 -62 0 -48 20 -33 40 -33 40 -17 55 0 70 rrcurveto
          0 76 18 57 34 39 35 38 47 20 60 0 38 0 39 -13 39 -24 10 -6 10 -2 9 0 17 0 12 5 8 12 9 12 4 12 0 13 0 17 -6 14 -13 11 -49 45 -59 22 -71 0 rrcurveto
          -56 0 -52 -13 -48 -27 -47 -26 -39 -37 -29 -49 -28 -49 -15 -65 0 -82 0 -70 13 -60 26 -50 25 -50 37 -39 48 -27 48 -27 53 -13 58 0 rrcurveto
          endchar
        </CharString>
        <CharString name="currency">
          0 171 184 rmoveto
          21 0 21 8 16 16 rrcurveto
          104 104 rlineto
          6 6 8 3 8 0 5 0 5 -1 4 -2 67 -36 77 -18 89 0 87 0 75 18 64 36 5 2 5 1 5 0 8 0 8 -2 6 -6 rrcurveto
          106 -104 rlineto
          16 -16 20 -8 21 0 21 0 22 9 16 16 16 17 8 21 0 21 0 21 -8 21 -16 16 rrcurveto
          -101 100 rlineto
          -6 6 -3 8 0 8 0 5 1 6 3 5 17 28 14 32 11 35 14 43 7 47 0 52 0 49 -7 46 -13 43 -11 35 -14 31 -16 29 -3 5 -1 5 0 6 0 8 3 8 5 6 rrcurveto
          101 101 rlineto
          16 17 8 21 0 20 0 21 -8 21 -16 16 rrcurveto
          1 vlineto
          -16 16 -21 8 -21 0 -22 0 -21 -8 -16 -16 rrcurveto
          -104 -104 rlineto
          -5 -6 -8 -3 -8 0 -6 0 -5 1 -5 3 -64 37 -76 19 -88 0 -48 0 -45 -6 -43 -12 -35 -10 -31 -13 -29 -16 -5 -2 -5 -1 -5 0 -8 0 -8 3 -6 6 rrcurveto
          -105 106 rlineto
          -16 16 -21 8 -21 0 -22 0 -21 -8 -16 -17 rrcurveto
          -1 hlineto
          -15 -16 -8 -21 0 -20 0 -21 8 -21 15 -16 rrcurveto
          104 -106 rlineto
          6 -6 3 -8 0 -8 0 -5 -1 -5 -3 -5 -16 -29 -13 -32 -10 -34 -13 -42 -6 -46 0 -49 0 -50 6 -47 13 -43 10 -35 14 -32 16 -29 3 -5 1 -5 0 -5 0 -8 -3 -8 -6 -6 rrcurveto
          -104 -104 rlineto
          -16 -16 -8 -21 0 -21 0 -21 8 -21 16 -16 16 -17 21 -8 22 0 rrcurveto
          431 234 rmoveto
          -173 0 -80 114 0 170 0 168 80 115 173 0 173 0 78 -115 0 -168 0 -170 -78 -114 -173 0 rrcurveto
          endchar
        </CharString>
        <CharString name="d">
          0 595 151 rmoveto
          -14 hlineto
          -167 4 -86 116 -5 228 0 129 22 93 44 59 44 59 65 29 85 0 67 0 56 -24 47 -49 51 -57 26 -59 0 -61 rrcurveto
          -213 vlineto
          0 -79 -26 -62 -51 -45 -51 -45 -53 -23 -54 0 rrcurveto
          328 -181 rmoveto
          25 0 20 9 17 17 17 17 8 22 0 27 rrcurveto
          1374 vlineto
          0 27 -9 23 -19 18 -19 17 -21 9 -23 0 -23 0 -20 -9 -18 -17 -19 -18 -9 -23 0 -27 rrcurveto
          -424 vlineto
          0 -24 -10 -12 -21 0 -11 0 -13 5 -13 11 -69 59 -71 29 -72 0 -125 0 -99 -49 -73 -98 -73 -98 -37 -135 0 -171 1 -181 33 -139 63 -95 63 -96 103 -48 142 0 84 0 81 38 78 77 rrcurveto
          7 7 8 4 7 0 12 0 8 -12 3 -23 9 -61 29 -30 49 0 rrcurveto
          endchar
        </CharString>
        <CharString name="dagger">
          0 940 870 rmoveto
          25 0 21 9 18 18 17 17 9 21 0 25 0 25 -9 21 -17 18 -18 17 -21 9 -25 0 rrcurveto
          -680 hlineto
          -25 0 -21 -9 -17 -17 -18 -18 -9 -21 0 -25 0 -25 9 -21 18 -17 17 -18 21 -9 25 0 rrcurveto
          430 300 rmoveto
          170 vlineto
          0 25 -9 21 -18 18 -18 17 -21 9 -24 0 -24 0 -21 -9 -18 -17 -18 -18 -9 -21 0 -25 rrcurveto
          -170 vlineto
          90 -1200 rmoveto
          24 0 21 9 18 18 18 18 9 21 0 24 rrcurveto
          690 -180 -690 vlineto
          0 -24 9 -21 18 -18 18 -18 21 -9 24 0 rrcurveto
          endchar
        </CharString>
        <CharString name="darkshade">
          0 -600 vmoveto
          1200 2640 -120 -120 -120 120 -120 -120 -120 120 -120 -120 -120 120 -120 -120 -120 120 -120 -120 -120 -120 120 -120 -120 -120 120 -120 -120 -120 120 -120 -120 -120 120 -120 -120 -120 120 -120 -120 -120 120 -120 -120 -120 120 -120 hlineto
          -120 -120 120 -120 -120 -120 120 -120 -120 -120 120 -120 -120 hlineto
          960 2160 rmoveto
          120 120 -120 vlineto
          -360 hmoveto
          120 120 -120 vlineto
          -360 hmoveto
          120 120 -120 vlineto
          -360 hmoveto
          120 120 -120 vlineto
          600 -240 rmoveto
          120 120 -120 vlineto
          -360 hmoveto
          120 120 -120 vlineto
          -360 hmoveto
          120 120 -120 vlineto
          -360 hmoveto
          120 120 -120 vlineto
          600 -240 rmoveto
          120 120 -120 vlineto
          -360 hmoveto
          120 120 -120 vlineto
          -600 hmoveto
          120 120 -120 vlineto
          120 hmoveto
          120 120 -120 vlineto
          360 -240 rmoveto
          120 120 -120 vlineto
          -840 hmoveto
          120 120 -120 vlineto
          360 hmoveto
          120 120 -120 vlineto
          -360 hmoveto
          120 120 -120 vlineto
          -360 -240 rmoveto
          120 120 -120 vlineto
          600 hmoveto
          120 120 -120 vlineto
          -600 hmoveto
          120 120 -120 vlineto
          120 hmoveto
          120 120 -120 vlineto
          -120 -240 rmoveto
          120 120 -120 vlineto
          -600 hmoveto
          120 120 -120 vlineto
          120 hmoveto
          120 120 -120 vlineto
          360 hmoveto
          120 120 -120 vlineto
          -840 -240 rmoveto
          120 120 -120 vlineto
          120 hmoveto
          120 120 -120 vlineto
          120 hmoveto
          120 120 -120 vlineto
          120 hmoveto
          120 120 -120 vlineto
          -120 -240 rmoveto
          120 120 -120 vlineto
          -360 hmoveto
          120 120 -120 vlineto
          -360 hmoveto
          120 120 -120 vlineto
          -360 hmoveto
          120 120 -120 vlineto
          600 -240 rmoveto
          120 120 -120 vlineto
          -360 hmoveto
          120 120 -120 vlineto
          -360 hmoveto
          120 120 -120 vlineto
          -360 hmoveto
          120 120 -120 vlineto
          -120 -240 rmoveto
          120 120 -120 vlineto
          600 hmoveto
          120 120 -120 vlineto
          -360 hmoveto
          120 120 -120 vlineto
          -360 hmoveto
          120 120 -120 vlineto
          endchar
        </CharString>
        <CharString name="degree">
          0 459 1539 rmoveto
          -57 0 -54 -12 -52 -25 -51 -26 -42 -37 -33 -48 -32 -48 -17 -58 0 -69 0 -70 17 -60 32 -48 33 -49 42 -37 51 -25 52 -26 54 -13 57 0 58 0 55 13 51 25 51 25 42 37 33 49 rrcurveto
          32 48 16 60 0 69 0 69 -16 59 -32 49 -33 48 -42 37 -51 26 -51 25 -55 12 -58 0 rrcurveto
          -132 vmoveto
          47 0 41 -16 35 -32 36 -32 17 -48 0 -65 0 -65 -17 -48 -36 -32 -35 -32 -41 -15 -47 0 -46 0 -41 16 -36 32 -36 32 -18 49 0 65 0 65 18 48 36 31 36 31 41 16 46 0 rrcurveto
          endchar
        </CharString>
        <CharString name="dieresis">
          0 384 1326 rmoveto
          33 0 29 11 23 23 23 23 12 28 0 33 0 34 -12 29 -23 22 -23 23 -29 11 -33 0 -35 0 -29 -11 -23 -23 -23 -22 -12 -29 0 -34 0 -33 12 -28 23 -23 23 -23 29 -11 35 0 rrcurveto
          431 hmoveto
          35 0 29 11 23 23 23 23 12 28 0 33 0 34 -12 29 -23 22 -23 23 -29 11 -35 0 -34 0 -28 -11 -23 -23 -24 -22 -11 -29 0 -34 0 -33 11 -28 24 -23 23 -23 28 -11 34 0 rrcurveto
          endchar
        </CharString>
        <CharString name="divide">
          0 940 510 rmoveto
          25 0 21 9 18 18 17 17 9 21 0 25 0 25 -9 21 -17 18 -18 17 -21 9 -25 0 rrcurveto
          -680 hlineto
          -25 0 -21 -9 -17 -17 -18 -18 -9 -21 0 -25 0 -25 9 -21 18 -17 17 -18 21 -9 25 0 rrcurveto
          342 320 rmoveto
          33 0 28 12 24 25 23 24 12 29 0 34 0 35 -12 30 -23 24 -24 25 -28 12 -33 0 -35 0 -30 -12 -23 -25 -24 -24 -12 -30 0 -35 0 -34 12 -29 24 -24 23 -25 30 -12 35 0 rrcurveto
          -710 vmoveto
          33 0 28 12 24 25 23 24 12 29 0 34 0 35 -12 30 -23 24 -24 25 -28 12 -33 0 -35 0 -30 -12 -23 -25 -24 -24 -12 -30 0 -35 0 -34 12 -29 24 -24 23 -25 30 -12 35 0 rrcurveto
          endchar
        </CharString>
        <CharString name="dollar">
          0 800 4 rmoveto
          66 30 57 46 48 62 45 57 22 71 0 85 0 140 -70 113 -141 86 -52 29 -71 31 -89 31 -163 61 -83 86 -2 110 0 44 11 38 22 33 rrcurveto
          228 vlineto
          -137 -76 -68 -121 0 -167 0 -186 129 -138 259 -91 41 -15 41 -18 43 -21 101 -47 51 -61 0 -74 0 -59 -20 -50 -40 -39 rrcurveto
          -110 667 rmoveto
          651 vlineto
          0 25 -9 21 -17 18 -18 17 -21 9 -25 0 -25 0 -21 -9 -17 -17 -18 -18 -9 -21 0 -25 rrcurveto
          -563 vlineto
          39 -35 60 -29 81 -24 rrcurveto
          -90 -1119 rmoveto
          25 0 21 9 18 18 17 17 9 21 0 25 rrcurveto
          571 vlineto
          -32 27 -60 27 -88 29 rrcurveto
          -654 vlineto
          0 -25 9 -21 18 -17 17 -18 21 -9 25 0 rrcurveto
          340 1285 rmoveto
          51 0 26 29 0 59 0 11 -1 10 -3 9 -24 103 -71 75 -118 48 rrcurveto
          -204 vlineto
          28 -21 18 -22 8 -24 17 -49 29 -24 40 0 rrcurveto
          -540 -1038 rmoveto
          218 vlineto
          -26 22 -24 25 -22 27 -25 32 -27 16 -28 0 -26 0 -21 -9 -15 -19 -15 -19 -8 -23 0 -29 0 -12 2 -11 5 -9 27 -61 56 -58 83 -54 17 -12 22 -12 25 -12 rrcurveto
          endchar
        </CharString>
        <CharString name="dollar_alt">
          0 510 834 rmoveto
          -94 55 -48 70 -1 83 0 44 11 38 22 33 25 35 36 21 49 7 rrcurveto
          -110 -1203 rmoveto
          37 -17 36 -11 37 -4 rrcurveto
          -125 vlineto
          0 -25 9 -21 18 -17 17 -18 21 -9 25 0 25 0 21 9 18 18 17 17 9 21 0 25 rrcurveto
          127 vlineto
          53 7 35 7 17 7 69 28 59 45 48 61 45 57 22 71 0 85 0 140 -70 113 -141 86 -37 21 -45 21 -55 21 rrcurveto
          470 vlineto
          51 -5 36 -10 23 -17 28 -21 18 -22 8 -24 17 -49 29 -24 40 0 51 0 26 29 0 59 0 11 -1 10 -3 9 -24 103 -71 73 -118 45 -28 10 -37 8 -45 5 rrcurveto
          123 vlineto
          0 25 -9 21 -17 18 -18 17 -21 9 -25 0 -25 0 -21 -9 -17 -17 -18 -18 -9 -21 0 -25 rrcurveto
          -124 vlineto
          -41 -3 -37 -10 -32 -18 -137 -76 -68 -121 0 -167 0 -167 105 -129 210 -91 rrcurveto
          -443 vlineto
          -40 0 -37 15 -33 29 -26 22 -24 25 -22 27 -25 32 -27 16 -28 0 -26 0 -21 -9 -15 -19 -15 -19 -8 -23 0 -29 0 -12 2 -11 5 -9 29 -56 56 -58 81 -59 17 -12 22 -12 25 -12 rrcurveto
          400 205 rmoveto
          -26 -25 -37 -14 -47 -1 rrcurveto
          379 vlineto
          18 -9 rlineto
          101 -47 51 -61 0 -74 0 -59 -20 -50 -40 -39 rrcurveto
          endchar
        </CharString>
        <CharString name="downwardsarrow">
          0 598 -20 rmoveto
          582 494 rlineto
          210 vlineto
          -370 -316 rlineto
          -60 -52 -37 -36 -13 -20 rrcurveto
          -20 hlineto
          3 17 2 24 2 30 2 30 1 30 0 29 rrcurveto
          1040 -180 -1040 vlineto
          0 -29 1 -30 3 -30 3 -30 2 -24 1 -17 rrcurveto
          -20 hlineto
          -5 8 -12 13 -19 19 -19 19 -24 22 -29 25 rrcurveto
          -372 316 rlineto
          -210 vlineto
          endchar
        </CharString>
        <CharString name="e">
          0 820 612 rmoveto
          -428 hlineto
          -34 0 -17 10 0 20 0 29 7 29 15 31 21 47 33 40 44 33 44 33 51 16 59 0 81 0 63 -27 43 -55 43 -55 21 -57 1 -60 0 -23 -16 -11 -31 0 rrcurveto
          -182 -642 rmoveto
          139 0 123 48 105 97 17 16 9 19 0 21 0 19 -7 19 -15 19 -15 19 -20 10 -26 0 -13 0 -13 -5 -12 -9 -77 -61 -88 -31 -99 0 -75 0 -70 24 -66 49 -67 49 -33 65 0 81 rrcurveto
          0 25 15 12 30 0 rrcurveto
          585 -2 rlineto
          25 0 21 9 15 19 15 19 8 21 0 24 -1 122 -18 98 -33 74 -34 74 -49 59 -65 43 -65 43 -78 21 -91 0 -85 0 -75 -22 -67 -43 -67 -44 -57 -62 -45 -79 -45 -79 -23 -101 0 -122 rrcurveto
          0 -224 70 -159 140 -95 79 -53 93 -27 105 0 rrcurveto
          endchar
        </CharString>
        <CharString name="eacute">
          0 820 612 rmoveto
          -428 hlineto
          -34 0 -17 10 0 20 0 29 7 29 15 31 21 47 33 40 44 33 44 33 51 16 59 0 81 0 63 -27 43 -55 43 -55 21 -57 1 -60 0 -23 -16 -11 -31 0 rrcurveto
          -182 -642 rmoveto
          139 0 123 48 105 97 17 16 9 19 0 21 0 19 -7 19 -15 19 -15 19 -20 10 -26 0 -13 0 -13 -5 -12 -9 -77 -61 -88 -31 -99 0 -75 0 -70 24 -66 49 -67 49 -33 65 0 81 rrcurveto
          0 25 15 12 30 0 rrcurveto
          585 -2 rlineto
          25 0 21 9 15 19 15 19 8 21 0 24 -1 122 -18 98 -33 74 -34 74 -49 59 -65 43 -65 43 -78 21 -91 0 -85 0 -75 -22 -67 -43 -67 -44 -57 -62 -45 -79 -45 -79 -23 -101 0 -122 rrcurveto
          0 -224 70 -159 140 -95 79 -53 93 -27 105 0 rrcurveto
          -177 1295 rmoveto
          8 0 8 2 8 3 rrcurveto
          283 109 rlineto
          35 14 21 33 0 35 0 16 -5 15 -8 15 -17 27 -29 15 -30 0 -15 0 -15 -4 -14 -8 rrcurveto
          -261 -153 rlineto
          -21 -12 -11 -21 0 -22 0 -10 3 -10 5 -10 11 -21 21 -13 23 0 rrcurveto
          endchar
        </CharString>
        <CharString name="ecircumflex">
          0 820 612 rmoveto
          -428 hlineto
          -34 0 -17 10 0 20 0 29 7 29 15 31 21 47 33 40 44 33 44 33 51 16 59 0 81 0 63 -27 43 -55 43 -55 21 -57 1 -60 0 -23 -16 -11 -31 0 rrcurveto
          -182 -642 rmoveto
          139 0 123 48 105 97 17 16 9 19 0 21 0 19 -7 19 -15 19 -15 19 -20 10 -26 0 -13 0 -13 -5 -12 -9 -77 -61 -88 -31 -99 0 -75 0 -70 24 -66 49 -67 49 -33 65 0 81 rrcurveto
          0 25 15 12 30 0 rrcurveto
          585 -2 rlineto
          25 0 21 9 15 19 15 19 8 21 0 24 -1 122 -18 98 -33 74 -34 74 -49 59 -65 43 -65 43 -78 21 -91 0 -85 0 -75 -22 -67 -43 -67 -44 -57 -62 -45 -79 -45 -79 -23 -101 0 -122 rrcurveto
          0 -224 70 -159 140 -95 79 -53 93 -27 105 0 rrcurveto
          -285 1305 rmoveto
          12 0 13 4 11 7 rrcurveto
          176 113 rlineto
          11 7 12 4 13 0 12 0 12 -4 11 -7 rrcurveto
          178 -113 rlineto
          11 -7 12 -3 12 0 19 0 18 8 13 15 11 13 6 15 0 15 0 19 -9 19 -15 13 rrcurveto
          -176 144 rlineto
          -32 27 -41 15 -42 0 -41 0 -41 -15 -32 -26 rrcurveto
          -177 -144 rlineto
          -16 -13 -8 -19 0 -19 0 -16 6 -16 11 -13 13 -15 18 -8 19 0 rrcurveto
          endchar
        </CharString>
        <CharString name="edieresis">
          0 820 612 rmoveto
          -428 hlineto
          -34 0 -17 10 0 20 0 29 7 29 15 31 21 47 33 40 44 33 44 33 51 16 59 0 81 0 63 -27 43 -55 43 -55 21 -57 1 -60 0 -23 -16 -11 -31 0 rrcurveto
          -182 -642 rmoveto
          139 0 123 48 105 97 17 16 9 19 0 21 0 19 -7 19 -15 19 -15 19 -20 10 -26 0 -13 0 -13 -5 -12 -9 -77 -61 -88 -31 -99 0 -75 0 -70 24 -66 49 -67 49 -33 65 0 81 rrcurveto
          0 25 15 12 30 0 rrcurveto
          585 -2 rlineto
          25 0 21 9 15 19 15 19 8 21 0 24 -1 122 -18 98 -33 74 -34 74 -49 59 -65 43 -65 43 -78 21 -91 0 -85 0 -75 -22 -67 -43 -67 -44 -57 -62 -45 -79 -45 -79 -23 -101 0 -122 rrcurveto
          0 -224 70 -159 140 -95 79 -53 93 -27 105 0 rrcurveto
          -253 1303 rmoveto
          34 0 28 12 23 22 23 23 12 28 0 33 0 34 -12 29 -23 22 -23 23 -28 11 -34 0 -35 0 -29 -11 -23 -23 -23 -22 -12 -29 0 -34 0 -33 12 -28 23 -23 23 -22 29 -12 35 0 rrcurveto
          431 hmoveto
          35 0 29 12 23 22 23 23 12 28 0 33 0 34 -12 29 -23 22 -23 23 -29 11 -35 0 -34 0 -28 -11 -23 -23 -24 -22 -11 -29 0 -34 0 -33 11 -28 24 -23 23 -22 28 -12 34 0 rrcurveto
          endchar
        </CharString>
        <CharString name="egrave">
          0 820 612 rmoveto
          -428 hlineto
          -34 0 -17 10 0 20 0 29 7 29 15 31 21 47 33 40 44 33 44 33 51 16 59 0 81 0 63 -27 43 -55 43 -55 21 -57 1 -60 0 -23 -16 -11 -31 0 rrcurveto
          -182 -642 rmoveto
          139 0 123 48 105 97 17 16 9 19 0 21 0 19 -7 19 -15 19 -15 19 -20 10 -26 0 -13 0 -13 -5 -12 -9 -77 -61 -88 -31 -99 0 -75 0 -70 24 -66 49 -67 49 -33 65 0 81 rrcurveto
          0 25 15 12 30 0 rrcurveto
          585 -2 rlineto
          25 0 21 9 15 19 15 19 8 21 0 24 -1 122 -18 98 -33 74 -34 74 -49 59 -65 43 -65 43 -78 21 -91 0 -85 0 -75 -22 -67 -43 -67 -44 -57 -62 -45 -79 -45 -79 -23 -101 0 -122 rrcurveto
          0 -224 70 -159 140 -95 79 -53 93 -27 105 0 rrcurveto
          123 1295 rmoveto
          22 0 22 13 11 21 5 10 3 10 0 10 0 22 -12 21 -20 12 rrcurveto
          -261 153 rlineto
          -14 8 -15 4 -15 0 -30 0 -29 -15 -17 -27 -9 -15 -4 -15 0 -16 0 -35 21 -33 35 -14 rrcurveto
          283 -109 rlineto
          8 -3 8 -2 8 0 rrcurveto
          endchar
        </CharString>
        <CharString name="eight">
          0 598 150 rmoveto
          -95 0 -67 19 -41 38 -41 37 -21 56 0 73 0 59 17 52 33 43 52 67 72 34 93 0 41 0 32 -4 23 -9 57 -24 41 -31 27 -38 27 -39 13 -49 0 -61 0 -73 -20 -56 -40 -37 rrcurveto
          -40 -38 -68 -19 -95 0 rrcurveto
          2 693 rmoveto
          -24 0 -19 3 -16 6 -57 19 -42 26 -29 32 -29 31 -14 41 0 51 0 61 21 49 42 35 41 35 56 18 70 0 70 0 56 -17 42 -35 41 -35 21 -48 0 -63 0 -49 -15 -41 -30 -32 rrcurveto
          -30 -32 -45 -27 -60 -21 -11 -5 -16 -2 -23 0 rrcurveto
          -873 vmoveto
          87 0 76 15 66 30 65 30 51 43 37 57 37 57 18 68 0 81 0 83 -19 73 -39 62 -39 62 -53 50 -67 39 -7 5 -4 6 0 7 0 7 3 5 6 3 128 77 64 102 0 127 rrcurveto
          0 109 -37 90 -73 69 -74 69 -100 34 -126 0 -127 0 -100 -34 -73 -69 -73 -69 -37 -90 0 -109 0 -127 63 -102 126 -77 6 -4 3 -5 0 -6 0 -7 -4 -6 -7 -5 -69 -39 -53 -50 -37 -62 rrcurveto
          -38 -62 -19 -73 0 -83 0 -121 38 -93 77 -67 77 -67 108 -33 139 0 rrcurveto
          endchar
        </CharString>
        <CharString name="ellipsis">
          0 200 -10 rmoveto
          30 0 26 11 21 21 22 22 11 26 0 30 0 31 -11 26 -22 21 -21 22 -26 10 -30 0 -30 0 -26 -10 -22 -22 -21 -21 -11 -26 0 -31 0 -30 11 -26 21 -22 22 -21 26 -11 30 0 rrcurveto
          400 hmoveto
          30 0 26 11 21 21 22 22 11 26 0 30 0 31 -11 26 -22 21 -21 22 -26 10 -30 0 -30 0 -26 -10 -22 -22 -21 -21 -11 -26 0 -31 0 -30 11 -26 21 -22 22 -21 26 -11 30 0 rrcurveto
          400 hmoveto
          30 0 26 11 21 21 22 22 11 26 0 30 0 31 -11 26 -22 21 -21 22 -26 10 -30 0 -30 0 -26 -10 -22 -22 -21 -21 -11 -26 0 -31 0 -30 11 -26 21 -22 22 -21 26 -11 30 0 rrcurveto
          endchar
        </CharString>
        <CharString name="emdash">
          0 1140 510 rmoveto
          25 0 21 9 18 18 17 17 9 21 0 25 0 25 -9 21 -17 18 -18 17 -21 9 -25 0 rrcurveto
          -1080 hlineto
          -25 0 -21 -9 -17 -17 -18 -18 -9 -21 0 -25 0 -25 9 -21 18 -17 17 -18 21 -9 25 0 rrcurveto
          endchar
        </CharString>
        <CharString name="equal">
          0 940 710 rmoveto
          25 0 21 9 18 18 17 17 9 21 0 25 0 25 -9 21 -17 18 -18 17 -21 9 -25 0 rrcurveto
          -680 hlineto
          -25 0 -21 -9 -17 -17 -18 -18 -9 -21 0 -25 0 -25 9 -21 18 -17 17 -18 21 -9 25 0 rrcurveto
          680 -400 rmoveto
          25 0 21 9 18 18 17 17 9 21 0 25 0 25 -9 21 -17 18 -18 17 -21 9 -25 0 rrcurveto
          -680 hlineto
          -25 0 -21 -9 -17 -17 -18 -18 -9 -21 0 -25 0 -25 9 -21 18 -17 17 -18 21 -9 25 0 rrcurveto
          endchar
        </CharString>
        <CharString name="equal_equal">
          0 940 890 rmoveto
          -1880 hlineto
          -25 0 -21 -9 -17 -17 -18 -18 -9 -21 0 -25 0 -25 9 -21 18 -17 17 -18 21 -9 25 0 rrcurveto
          1880 hlineto
          25 0 21 9 18 18 17 17 9 21 0 25 0 25 -9 21 -17 18 -18 17 -21 9 -25 0 rrcurveto
          -400 vmoveto
          -1880 hlineto
          -25 0 -21 -9 -17 -17 -18 -18 -9 -21 0 -25 0 -25 9 -21 18 -17 17 -18 21 -9 25 0 rrcurveto
          1880 hlineto
          25 0 21 9 18 18 17 17 9 21 0 25 0 25 -9 21 -17 18 -18 17 -21 9 -25 0 rrcurveto
          endchar
        </CharString>
        <CharString name="equal_equal_equal">
          0 940 990 rmoveto
          -3080 hlineto
          -29 0 -22 -8 -15 -16 -16 -15 -8 -16 0 -15 0 -15 8 -16 16 -15 15 -16 22 -8 29 0 rrcurveto
          3080 hlineto
          29 0 22 8 15 16 16 15 8 16 0 15 0 15 -8 16 -16 15 -15 16 -22 8 -29 0 rrcurveto
          -640 vmoveto
          -3080 hlineto
          -29 0 -22 -8 -15 -16 -16 -15 -8 -16 0 -15 0 -15 8 -16 16 -15 15 -16 22 -8 29 0 rrcurveto
          3080 hlineto
          29 0 22 8 15 16 16 15 8 16 0 15 0 15 -8 16 -16 15 -15 16 -22 8 -29 0 rrcurveto
          320 vmoveto
          -3080 hlineto
          -29 0 -22 -8 -15 -16 -16 -15 -8 -16 0 -15 0 -15 8 -16 16 -15 15 -16 22 -8 29 0 rrcurveto
          3080 hlineto
          29 0 22 8 15 16 16 15 8 16 0 15 0 15 -8 16 -16 15 -15 16 -22 8 -29 0 rrcurveto
          endchar
        </CharString>
        <CharString name="eth">
          0 601 150 rmoveto
          -57 0 -47 14 -39 29 -39 28 -29 37 -19 47 -20 47 -10 50 0 54 0 81 20 62 40 45 39 44 58 22 77 0 27 0 29 -2 30 -5 68 -11 54 -32 39 -54 22 -35 11 -48 0 -63 rrcurveto
          0 -47 -9 -47 -19 -47 -19 -48 -28 -40 -37 -32 -38 -33 -47 -16 -57 0 rrcurveto
          38 1027 rmoveto
          64 -43 50 -57 36 -71 33 -69 16 -55 0 -42 0 -18 -6 -9 -12 0 -5 0 -4 1 -4 3 -29 20 -36 17 -43 15 -44 14 -46 7 -48 0 -75 0 -67 -14 -60 -29 -61 -29 -48 -44 -35 -61 rrcurveto
          -36 -61 -18 -78 0 -95 0 -95 17 -85 33 -77 33 -77 49 -62 65 -45 65 -45 81 -23 97 0 93 0 80 23 65 46 65 46 50 72 35 99 34 98 17 127 0 157 0 157 -25 138 -49 119 rrcurveto
          -44 107 -65 86 -86 64 rrcurveto
          46 46 rlineto
          19 21 9 22 0 23 0 23 -9 20 -18 19 -19 18 -22 9 -23 0 -23 0 -21 -9 -20 -18 rrcurveto
          -87 -87 rlineto
          -70 23 -80 11 -88 0 rrcurveto
          -39 hlineto
          -24 0 -20 -9 -17 -18 -17 -18 -8 -20 0 -23 0 -25 8 -20 17 -17 16 -17 20 -10 25 -1 34 0 41 -3 50 -5 rrcurveto
          -69 -69 rlineto
          -18 -20 -9 -21 0 -23 0 -23 9 -22 18 -20 19 -17 20 -9 23 0 23 0 22 9 21 19 rrcurveto
          endchar
        </CharString>
        <CharString name="exclam">
          0 600 469 rmoveto
          21 0 19 8 16 15 16 15 9 19 1 23 rrcurveto
          25 805 rlineto
          0 29 -11 25 -21 21 -21 21 -25 11 -29 0 -29 0 -25 -11 -21 -21 -21 -22 -11 -25 0 -29 rrcurveto
          25 -804 rlineto
          1 -23 9 -19 16 -15 16 -15 19 -8 21 0 rrcurveto
          4 -499 rmoveto
          43 0 38 16 31 33 31 32 15 38 0 45 0 46 -15 39 -31 33 -31 32 -38 16 -43 0 -47 0 -39 -16 -31 -32 -31 -33 -16 -39 0 -46 0 -45 16 -38 31 -32 31 -33 39 -16 47 0 rrcurveto
          endchar
        </CharString>
        <CharString name="exclam_exclam">
          0 -400 469 rmoveto
          21 0 19 8 16 15 16 15 9 19 1 23 rrcurveto
          25 805 rlineto
          0 29 -11 25 -21 21 -21 21 -25 11 -29 0 -29 0 -25 -11 -21 -21 -21 -22 -11 -25 0 -29 rrcurveto
          25 -804 rlineto
          1 -23 9 -19 16 -15 16 -15 19 -8 21 0 rrcurveto
          804 -499 rmoveto
          43 0 38 16 31 33 31 32 15 38 0 45 0 46 -15 39 -31 33 -31 32 -38 16 -43 0 -47 0 -39 -16 -31 -32 -31 -33 -16 -39 0 -46 0 -45 16 -38 31 -32 31 -33 39 -16 47 0 rrcurveto
          -4 499 rmoveto
          21 0 19 8 16 15 16 15 9 19 1 23 rrcurveto
          25 805 rlineto
          0 29 -11 25 -21 21 -21 21 -25 11 -29 0 -29 0 -25 -11 -21 -21 -21 -22 -11 -25 0 -29 rrcurveto
          25 -804 rlineto
          1 -23 9 -19 16 -15 16 -15 19 -8 21 0 rrcurveto
          -796 -499 rmoveto
          43 0 38 16 31 33 31 32 15 38 0 45 0 46 -15 39 -31 33 -31 32 -38 16 -43 0 -47 0 -39 -16 -31 -32 -31 -33 -16 -39 0 -46 0 -45 16 -38 31 -32 31 -33 39 -16 47 0 rrcurveto
          endchar
        </CharString>
        <CharString name="exclamdown">
          0 600 502 rmoveto
          -21 0 -19 -8 -16 -15 -16 -15 -9 -19 -1 -23 rrcurveto
          -25 -804 rlineto
          0 -29 11 -25 21 -21 21 -22 25 -11 29 0 29 0 25 11 21 21 21 21 11 25 0 29 rrcurveto
          -25 805 rlineto
          -1 23 -9 19 -16 15 -16 15 -19 8 -21 0 rrcurveto
          4 499 rmoveto
          -47 0 -39 -16 -31 -32 -31 -33 -16 -38 0 -45 0 -46 16 -39 31 -32 31 -33 39 -16 47 0 43 0 38 16 31 33 31 32 15 39 0 46 0 45 -15 38 -31 33 -31 32 -38 16 -43 0 rrcurveto
          endchar
        </CharString>
        <CharString name="f">
          0 513 -30 rmoveto
          25 0 22 9 18 18 17 17 9 21 0 25 rrcurveto
          748 vlineto
          0 11 4 10 8 9 8 8 10 4 12 0 rrcurveto
          356 hlineto
          25 0 21 9 18 18 17 17 9 21 0 25 0 25 -9 21 -17 18 -18 17 -21 9 -25 0 rrcurveto
          -356 hlineto
          -12 0 -10 4 -8 8 -8 7 -4 8 0 9 rrcurveto
          102 vlineto
          0 48 16 42 32 37 31 37 42 18 51 0 rrcurveto
          208 hlineto
          25 0 21 9 18 18 17 17 9 21 0 25 0 25 -9 21 -17 18 -18 17 -21 9 -25 0 rrcurveto
          -246 hlineto
          -61 0 -54 -15 -47 -30 -47 -30 -38 -39 -27 -49 -27 -49 -14 -54 0 -58 rrcurveto
          -140 vlineto
          0 -9 -4 -8 -8 -7 -8 -8 -10 -4 -12 0 rrcurveto
          -145 hlineto
          -25 0 -21 -9 -17 -17 -18 -18 -9 -21 0 -25 0 -25 9 -21 18 -17 17 -18 21 -9 25 0 rrcurveto
          145 hlineto
          12 0 10 -4 8 -8 8 -9 4 -10 0 -11 rrcurveto
          -748 vlineto
          0 -25 9 -21 18 -17 17 -18 21 -9 25 0 rrcurveto
          endchar
        </CharString>
        <CharString name="five">
          0 542 -30 rmoveto
          139 0 110 41 81 83 77 83 42 102 7 120 2 26 1 27 0 27 0 246 -174 123 -347 0 rrcurveto
          -60 hlineto
          -13 0 -11 4 -10 9 -11 8 -5 10 0 11 rrcurveto
          304 vlineto
          0 11 5 10 11 9 11 9 11 4 12 0 rrcurveto
          464 hlineto
          24 0 20 9 17 17 17 17 8 20 0 23 0 24 -8 21 -17 17 -17 17 -20 8 -24 0 rrcurveto
          -600 hlineto
          -25 0 -22 -9 -19 -18 -19 -19 -9 -22 0 -26 rrcurveto
          -548 vlineto
          0 -25 10 -22 19 -19 19 -19 21 -9 25 0 rrcurveto
          163 hlineto
          124 0 92 -19 59 -38 59 -39 30 -50 0 -63 0 -23 -1 -21 -3 -20 -25 -165 -90 -83 -157 -3 -119 0 -78 6 -35 11 -17 5 -20 3 -21 0 -7 0 -11 -2 -14 -5 -14 -5 -13 -9 -11 -14 rrcurveto
          -12 -14 -6 -21 0 -28 0 -23 8 -19 16 -16 34 -33 120 -16 207 0 rrcurveto
          endchar
        </CharString>
        <CharString name="four">
          0 697 485 rmoveto
          -344 hlineto
          -13 1 -6 7 0 11 0 4 60 94 121 184 121 183 61 92 2 1 1 1 3 0 3 0 7 0 3 -4 0 -8 rrcurveto
          -547 vlineto
          -1 -13 -6 -6 -12 0 rrcurveto
          109 -515 rmoveto
          24 0 21 9 18 18 17 17 9 21 0 25 rrcurveto
          226 vlineto
          1 13 7 6 11 0 rrcurveto
          77 hlineto
          24 0 21 9 18 18 18 18 9 21 0 24 0 24 -9 21 -18 18 -18 18 -21 9 -24 0 rrcurveto
          -77 hlineto
          -13 1 -6 6 0 12 rrcurveto
          814 vlineto
          0 30 -11 26 -22 23 -22 22 -26 11 -31 0 -37 0 -31 -17 -26 -34 rrcurveto
          -579 -868 rlineto
          -14 -23 -7 -25 0 -25 0 -36 13 -31 26 -26 26 -27 31 -13 36 0 rrcurveto
          476 hlineto
          13 -1 6 -6 0 -12 rrcurveto
          -226 vlineto
          0 -25 9 -21 18 -17 17 -18 21 -9 25 0 rrcurveto
          endchar
        </CharString>
        <CharString name="fullblock">
          0 -600 vmoveto
          1200 2640 -1200 hlineto
          endchar
        </CharString>
        <CharString name="g">
          0 568 168 rmoveto
          -82 0 -63 30 -44 59 -44 59 -22 86 0 115 5 241 86 123 168 4 63 0 57 -23 51 -46 51 -46 25 -62 0 -78 rrcurveto
          -211 vlineto
          0 -61 -26 -59 -51 -56 -47 -50 -58 -25 -69 0 rrcurveto
          -4 -648 rmoveto
          130 0 105 38 80 75 80 75 40 104 0 131 rrcurveto
          1044 vlineto
          0 28 -8 23 -16 17 -16 17 -21 8 -25 0 -51 0 -29 -24 -8 -49 -4 -23 -8 -12 -11 0 -7 0 -7 4 -7 7 -61 64 -82 32 -101 0 -127 0 -99 -48 -71 -95 -71 -96 -36 -145 -1 -195 rrcurveto
          0 -158 37 -128 73 -97 73 -98 99 -49 125 0 86 0 71 23 56 46 13 11 13 6 11 0 20 0 10 -13 0 -25 rrcurveto
          -2 -133 rlineto
          0 -48 -21 -44 -42 -39 -42 -40 -63 -21 -85 -1 -63 0 -52 9 -41 19 -41 19 -42 29 -41 40 -16 15 -19 7 -21 0 -23 0 -23 -13 -22 -27 -12 -15 -6 -16 0 -19 0 -21 7 -19 15 -17 rrcurveto
          99 -109 133 -54 168 0 rrcurveto
          endchar
        </CharString>
        <CharString name="germandbls">
          0 724 -25 rmoveto
          70 0 65 14 58 28 59 28 47 42 35 55 36 54 17 67 0 80 0 69 -13 58 -27 46 -27 46 -34 39 -40 31 -40 31 -40 28 -40 25 -40 24 -33 25 -28 25 -27 25 -14 30 0 35 rrcurveto
          0 32 12 28 22 23 23 23 26 24 30 24 29 24 26 28 23 32 23 32 11 41 0 50 0 87 -34 71 -67 57 -67 56 -88 28 -110 0 -133 0 -103 -38 -75 -76 -74 -76 -37 -111 0 -146 rrcurveto
          -995 vlineto
          0 -54 44 -44 54 0 55 0 44 44 0 55 rrcurveto
          1007 vlineto
          0 101 19 72 38 43 38 43 55 22 73 0 45 0 36 -9 26 -16 26 -17 19 -21 11 -25 12 -25 5 -25 0 -24 0 -39 -11 -31 -23 -26 -23 -26 -26 -24 -30 -24 -30 -24 -26 -27 -23 -31 rrcurveto
          -22 -31 -11 -40 0 -49 0 -53 13 -44 26 -35 26 -36 33 -30 38 -26 rrcurveto
          117 -78 rlineto
          39 -25 32 -30 27 -34 26 -34 13 -42 0 -51 0 -68 -18 -51 -37 -33 -36 -34 -51 -17 -64 0 -28 0 -29 5 -30 8 -8 2 -7 3 -7 2 -9 3 -9 2 -8 0 -28 0 -27 -15 -14 -26 rrcurveto
          -7 -12 -3 -13 0 -13 0 -32 19 -30 33 -12 rrcurveto
          36 -12 rlineto
          43 -11 49 -6 54 0 rrcurveto
          endchar
        </CharString>
        <CharString name="grave">
          0 756 1020 rmoveto
          23 0 20 9 19 17 18 20 9 22 0 23 0 23 -9 21 -18 20 rrcurveto
          -308 308 rlineto
          -20 18 -21 9 -23 0 -23 0 -22 -9 -19 -18 -18 -19 -9 -20 0 -23 0 -23 9 -22 19 -21 rrcurveto
          307 -307 rlineto
          21 -19 22 -9 23 0 rrcurveto
          endchar
        </CharString>
        <CharString name="greater">
          0 255 147 rmoveto
          13 0 13 3 13 6 rrcurveto
          692 363 rlineto
          33 19 17 27 0 35 0 17 -4 15 -9 15 -9 15 -12 11 -16 8 rrcurveto
          -690 355 rlineto
          -14 7 -14 3 -13 0 -23 0 -21 -9 -18 -17 -18 -18 -9 -21 0 -24 0 -34 17 -28 35 -21 rrcurveto
          472 -250 rlineto
          11 -7 6 -8 0 -9 0 -11 -5 -8 -11 -7 rrcurveto
          -475 -254 rlineto
          -35 -21 -17 -28 0 -34 0 -24 9 -21 19 -18 18 -18 21 -9 24 0 rrcurveto
          endchar
        </CharString>
        <CharString name="greater_equal">
          0 -459 387 rmoveto
          11 0 13 3 15 6 rrcurveto
          1020 423 rlineto
          33 15 16 27 1 39 0 39 -17 27 -33 15 rrcurveto
          -1020 415 rlineto
          -17 7 -13 3 -11 0 -23 0 -21 -7 -18 -14 -18 -15 -9 -22 0 -31 0 -41 17 -28 35 -14 rrcurveto
          802 -310 rlineto
          11 -5 6 -8 0 -11 0 -13 -5 -9 -11 -4 rrcurveto
          -803 -314 rlineto
          -35 -14 -17 -28 0 -41 0 -31 10 -22 20 -15 19 -15 21 -7 21 0 rrcurveto
          3 -487 rmoveto
          10 0 11 3 12 5 rrcurveto
          1020 464 rlineto
          35 16 18 27 0 38 0 15 -3 13 -5 11 -16 35 -28 17 -40 0 -12 0 -12 -3 -11 -5 rrcurveto
          -1020 -464 rlineto
          -35 -15 -18 -27 0 -39 0 -26 7 -22 15 -17 14 -17 24 -9 34 0 rrcurveto
          endchar
        </CharString>
        <CharString name="greater_greater">
          0 -795 147 rmoveto
          13 0 13 3 13 6 rrcurveto
          692 363 rlineto
          33 19 17 27 0 35 0 17 -4 15 -9 15 -9 15 -12 11 -16 8 rrcurveto
          -690 355 rlineto
          -14 7 -14 3 -13 0 -23 0 -21 -9 -18 -17 -18 -18 -9 -21 0 -24 0 -34 17 -28 35 -21 rrcurveto
          472 -250 rlineto
          11 -7 6 -8 0 -9 0 -11 -5 -8 -11 -7 rrcurveto
          -475 -254 rlineto
          -35 -21 -17 -28 0 -34 0 -24 9 -21 19 -18 18 -18 21 -9 24 0 rrcurveto
          900 hmoveto
          13 0 13 3 13 6 rrcurveto
          692 363 rlineto
          33 19 17 27 0 35 0 17 -4 15 -9 15 -9 15 -12 11 -16 8 rrcurveto
          -690 355 rlineto
          -14 7 -14 3 -13 0 -23 0 -21 -9 -18 -17 -18 -18 -9 -21 0 -24 0 -34 17 -28 35 -21 rrcurveto
          472 -250 rlineto
          11 -7 6 -8 0 -9 0 -11 -5 -8 -11 -7 rrcurveto
          -475 -254 rlineto
          -35 -21 -17 -28 0 -34 0 -24 9 -21 19 -18 18 -18 21 -9 24 0 rrcurveto
          endchar
        </CharString>
        <CharString name="greater_greater_greater">
          0 -1845 147 rmoveto
          13 0 13 3 13 6 rrcurveto
          692 363 rlineto
          33 19 17 27 0 35 0 17 -4 15 -9 15 -9 15 -12 11 -16 8 rrcurveto
          -690 355 rlineto
          -14 7 -14 3 -13 0 -23 0 -21 -9 -18 -17 -18 -18 -9 -21 0 -24 0 -34 17 -28 35 -21 rrcurveto
          472 -250 rlineto
          11 -7 6 -8 0 -9 0 -11 -5 -8 -11 -7 rrcurveto
          -475 -254 rlineto
          -35 -21 -17 -28 0 -34 0 -24 9 -21 19 -18 18 -18 21 -9 24 0 rrcurveto
          1800 hmoveto
          13 0 13 3 13 6 rrcurveto
          692 363 rlineto
          33 19 17 27 0 35 0 17 -4 15 -9 15 -9 15 -12 11 -16 8 rrcurveto
          -690 355 rlineto
          -14 7 -14 3 -13 0 -23 0 -21 -9 -18 -17 -18 -18 -9 -21 0 -24 0 -34 17 -28 35 -21 rrcurveto
          472 -250 rlineto
          11 -7 6 -8 0 -9 0 -11 -5 -8 -11 -7 rrcurveto
          -475 -254 rlineto
          -35 -21 -17 -28 0 -34 0 -24 9 -21 19 -18 18 -18 21 -9 24 0 rrcurveto
          -900 hmoveto
          13 0 13 3 13 6 rrcurveto
          692 363 rlineto
          33 19 17 27 0 35 0 17 -4 15 -9 15 -9 15 -12 11 -16 8 rrcurveto
          -690 355 rlineto
          -14 7 -14 3 -13 0 -23 0 -21 -9 -18 -17 -18 -18 -9 -21 0 -24 0 -34 17 -28 35 -21 rrcurveto
          472 -250 rlineto
          11 -7 6 -8 0 -9 0 -11 -5 -8 -11 -7 rrcurveto
          -475 -254 rlineto
          -35 -21 -17 -28 0 -34 0 -24 9 -21 19 -18 18 -18 21 -9 24 0 rrcurveto
          endchar
        </CharString>
        <CharString name="guillemotleft">
          0 517 124 rmoveto
          14 0 14 4 12 8 22 14 13 24 0 24 0 13 -4 14 -8 12 rrcurveto
          -205 323 rlineto
          -8 12 -4 14 0 14 0 13 4 14 8 12 rrcurveto
          205 324 rlineto
          8 13 4 13 0 14 0 24 -12 24 -22 14 -13 8 -14 4 -13 0 -22 0 -20 -9 -15 -18 rrcurveto
          -273 -330 rlineto
          -28 -34 -15 -43 0 -44 0 -44 15 -44 29 -34 rrcurveto
          272 -327 rlineto
          15 -17 20 -9 21 0 rrcurveto
          437 hmoveto
          14 0 13 3 12 8 rrcurveto
          1 vlineto
          22 14 13 24 0 24 0 13 -4 14 -8 12 rrcurveto
          -205 323 rlineto
          -8 12 -4 14 0 14 0 13 4 14 8 12 rrcurveto
          205 324 rlineto
          8 13 4 13 0 14 0 24 -13 24 -22 14 -12 8 -14 4 -14 0 -21 0 -20 -9 -15 -18 rrcurveto
          -275 -330 rlineto
          -28 -34 -16 -43 0 -44 0 -44 16 -44 29 -34 rrcurveto
          274 -327 rlineto
          15 -17 21 -9 21 0 rrcurveto
          endchar
        </CharString>
        <CharString name="guillemotright">
          0 685 124 rmoveto
          21 0 21 9 15 17 rrcurveto
          272 327 rlineto
          29 34 15 44 0 44 0 44 -15 43 -28 34 rrcurveto
          -273 330 rlineto
          -15 18 -21 9 -21 0 -14 0 -14 -4 -12 -8 -22 -14 -12 -24 0 -24 0 -14 4 -13 8 -13 rrcurveto
          205 -324 rlineto
          8 -12 4 -14 0 -13 0 -14 -4 -14 -8 -12 rrcurveto
          -205 -323 rlineto
          -8 -12 -4 -14 0 -13 0 -24 12 -24 23 -14 12 -8 14 -4 13 0 rrcurveto
          -436 hmoveto
          21 0 21 9 15 17 rrcurveto
          274 327 rlineto
          29 34 16 44 0 44 0 44 -16 43 -28 34 rrcurveto
          -275 330 rlineto
          -15 18 -21 9 -21 0 -13 0 -14 -4 -12 -8 -23 -14 -12 -24 0 -24 0 -14 4 -13 8 -13 rrcurveto
          205 -324 rlineto
          8 -12 4 -14 0 -13 0 -14 -4 -14 -8 -12 rrcurveto
          -205 -323 rlineto
          -8 -12 -4 -14 0 -13 0 -24 12 -24 23 -14 rrcurveto
          -1 vlineto
          12 -8 13 -3 14 0 rrcurveto
          endchar
        </CharString>
        <CharString name="h">
          0 939 -30 rmoveto
          29 0 22 9 15 17 15 17 7 23 0 28 rrcurveto
          581 vlineto
          0 156 -32 112 -64 68 -59 66 -87 33 -115 0 -97 -1 -92 -47 -87 -91 -8 -8 -7 -4 -5 0 -10 0 -5 8 0 16 rrcurveto
          481 vlineto
          0 27 -9 23 -18 19 -19 18 -21 9 -25 0 -25 0 -21 -9 -18 -18 -19 -19 -9 -23 0 -27 rrcurveto
          -1370 vlineto
          0 -28 9 -23 17 -17 17 -17 22 -9 27 0 29 0 22 9 15 17 15 17 7 23 0 28 rrcurveto
          548 vlineto
          0 89 37 70 73 51 59 39 60 20 61 1 132 0 67 -83 3 -166 rrcurveto
          -569 vlineto
          0 -28 9 -23 17 -17 17 -17 22 -9 27 0 rrcurveto
          endchar
        </CharString>
        <CharString name="hyphen">
          0 840 510 rmoveto
          25 0 21 9 18 18 17 17 9 21 0 25 0 25 -9 21 -17 18 -18 17 -21 9 -25 0 rrcurveto
          -480 hlineto
          -25 0 -21 -9 -17 -17 -18 -18 -9 -21 0 -25 0 -25 9 -21 18 -17 17 -18 21 -9 25 0 rrcurveto
          endchar
        </CharString>
        <CharString name="hyphenminus">
          0 940 510 rmoveto
          25 0 21 9 18 18 17 17 9 21 0 25 0 25 -9 21 -17 18 -18 17 -21 9 -25 0 rrcurveto
          -680 hlineto
          -25 0 -21 -9 -17 -17 -18 -18 -9 -21 0 -25 0 -25 9 -21 18 -17 17 -18 21 -9 25 0 rrcurveto
          endchar
        </CharString>
        <CharString name="i">
          0 1015 -3 rmoveto
          23 0 21 9 19 17 19 17 9 21 0 27 0 30 -9 23 -19 17 -19 16 -21 8 -23 0 rrcurveto
          -241 hlineto
          -28 0 -14 15 0 29 rrcurveto
          616 vlineto
          0 52 -18 44 -36 37 -37 37 -43 18 -51 0 rrcurveto
          -283 hlineto
          -23 0 -21 -8 -17 -17 -17 -17 -9 -23 0 -28 0 -27 9 -22 18 -17 17 -17 20 -9 23 0 rrcurveto
          199 hlineto
          24 0 21 -8 18 -17 17 -17 9 -22 0 -27 rrcurveto
          -528 vlineto
          0 -29 -15 -15 -29 0 rrcurveto
          -242 hlineto
          -21 0 -19 -8 -19 -16 -19 -17 -9 -23 0 -30 0 -27 9 -21 19 -17 19 -17 19 -9 21 0 rrcurveto
          323 1258 rmoveto
          39 0 33 14 29 29 28 29 14 34 0 41 0 41 -14 35 -28 29 -29 29 -33 14 -39 0 -41 0 -34 -14 -27 -29 -28 -29 -14 -35 0 -41 0 -41 14 -34 28 -29 27 -29 34 -14 41 0 rrcurveto
          endchar
        </CharString>
        <CharString name="i_alt">
          0 815 -30 rmoveto
          191 0 96 44 0 89 0 20 -5 17 -9 13 -9 13 -11 10 -13 5 -13 5 -12 3 -11 0 -9 0 -11 -3 -12 -7 -36 -19 -51 -10 -66 0 -111 0 -56 89 0 177 rrcurveto
          10 416 rlineto
          0 57 -18 48 -37 37 -37 37 -50 19 -62 0 rrcurveto
          -242 hlineto
          -24 0 -21 -8 -18 -17 -18 -17 -9 -23 0 -29 0 -27 9 -21 18 -15 18 -15 21 -8 24 0 rrcurveto
          158 hlineto
          36 0 27 -9 18 -19 18 -19 9 -25 0 -31 rrcurveto
          -9 -375 rlineto
          0 -268 109 -134 218 0 rrcurveto
          -251 1285 rmoveto
          39 0 33 14 29 29 28 29 14 34 0 41 0 41 -14 35 -28 29 -29 29 -33 14 -39 0 -41 0 -34 -14 -27 -29 -28 -29 -14 -35 0 -41 0 -41 14 -34 28 -29 27 -29 34 -14 41 0 rrcurveto
          endchar
        </CharString>
        <CharString name="iacute">
          0 1015 -3 rmoveto
          23 0 21 9 19 17 19 17 9 21 0 27 0 30 -9 23 -19 17 -19 16 -21 8 -23 0 rrcurveto
          -241 hlineto
          -28 0 -14 15 0 29 rrcurveto
          616 vlineto
          0 52 -18 44 -36 37 -37 37 -43 18 -51 0 rrcurveto
          -283 hlineto
          -23 0 -21 -8 -17 -17 -17 -17 -9 -23 0 -28 0 -27 9 -22 18 -17 17 -17 20 -9 23 0 rrcurveto
          199 hlineto
          24 0 21 -8 18 -17 17 -17 9 -22 0 -27 rrcurveto
          -528 vlineto
          0 -29 -15 -15 -29 0 rrcurveto
          -242 hlineto
          -21 0 -19 -8 -19 -16 -19 -17 -9 -23 0 -30 0 -27 9 -21 19 -17 19 -17 19 -9 21 0 rrcurveto
          195 1268 rmoveto
          8 0 8 2 8 3 rrcurveto
          283 109 rlineto
          35 14 21 33 0 35 0 16 -5 15 -8 15 -17 27 -29 15 -30 0 -15 0 -15 -4 -14 -8 rrcurveto
          -261 -153 rlineto
          -21 -12 -11 -21 0 -22 0 -10 3 -10 5 -10 11 -21 21 -13 23 0 rrcurveto
          endchar
        </CharString>
        <CharString name="iacute_alt">
          0 461 1265 rmoveto
          8 0 8 2 8 3 rrcurveto
          283 109 rlineto
          35 14 21 33 0 35 0 16 -5 15 -8 15 -17 27 -29 15 -30 0 -15 0 -15 -4 -14 -8 rrcurveto
          -261 -153 rlineto
          -21 -12 -11 -21 0 -22 0 -10 3 -10 5 -10 11 -21 21 -13 23 0 rrcurveto
          354 -1295 rmoveto
          191 0 96 44 0 89 0 20 -5 17 -9 13 -9 13 -11 10 -13 5 -13 5 -12 3 -11 0 -9 0 -11 -3 -12 -7 -36 -19 -51 -10 -66 0 -111 0 -56 89 0 177 rrcurveto
          10 416 rlineto
          0 57 -18 48 -37 37 -37 37 -50 19 -62 0 rrcurveto
          -242 hlineto
          -24 0 -21 -8 -18 -17 -18 -17 -9 -23 0 -29 0 -27 9 -21 18 -15 18 -15 21 -8 24 0 rrcurveto
          158 hlineto
          36 0 27 -9 18 -19 18 -19 9 -25 0 -31 rrcurveto
          -9 -375 rlineto
          0 -268 109 -134 218 0 rrcurveto
          endchar
        </CharString>
        <CharString name="icircumflex">
          0 1015 -3 rmoveto
          23 0 21 9 19 17 19 17 9 21 0 27 0 30 -9 23 -19 17 -19 16 -21 8 -23 0 rrcurveto
          -241 hlineto
          -28 0 -14 15 0 29 rrcurveto
          616 vlineto
          0 52 -18 44 -36 37 -37 37 -43 18 -51 0 rrcurveto
          -283 hlineto
          -23 0 -21 -8 -17 -17 -17 -17 -9 -23 0 -28 0 -27 9 -22 18 -17 17 -17 20 -9 23 0 rrcurveto
          199 hlineto
          24 0 21 -8 18 -17 17 -17 9 -22 0 -27 rrcurveto
          -528 vlineto
          0 -29 -15 -15 -29 0 rrcurveto
          -242 hlineto
          -21 0 -19 -8 -19 -16 -19 -17 -9 -23 0 -30 0 -27 9 -21 19 -17 19 -17 19 -9 21 0 rrcurveto
          87 1278 rmoveto
          12 0 13 4 11 7 rrcurveto
          176 113 rlineto
          11 7 12 4 13 0 12 0 12 -4 11 -7 rrcurveto
          178 -113 rlineto
          11 -7 12 -3 12 0 19 0 18 8 13 15 11 13 6 15 0 15 0 19 -9 19 -15 13 rrcurveto
          -176 144 rlineto
          -32 27 -41 15 -42 0 -41 0 -41 -15 -32 -26 rrcurveto
          -177 -144 rlineto
          -16 -13 -8 -19 0 -19 0 -16 6 -16 11 -13 13 -15 18 -8 19 0 rrcurveto
          endchar
        </CharString>
        <CharString name="icircumflex_alt">
          0 353 1275 rmoveto
          12 0 13 4 11 7 rrcurveto
          176 113 rlineto
          11 7 12 4 13 0 12 0 12 -4 11 -7 rrcurveto
          178 -113 rlineto
          11 -7 12 -3 12 0 19 0 18 8 13 15 11 13 6 15 0 15 0 19 -9 19 -15 13 rrcurveto
          -176 144 rlineto
          -32 27 -41 15 -42 0 -41 0 -41 -15 -32 -26 rrcurveto
          -177 -144 rlineto
          -16 -13 -8 -19 0 -19 0 -16 6 -16 11 -13 13 -15 18 -8 19 0 rrcurveto
          462 -1305 rmoveto
          191 0 96 44 0 89 0 20 -5 17 -9 13 -9 13 -11 10 -13 5 -13 5 -12 3 -11 0 -9 0 -11 -3 -12 -7 -36 -19 -51 -10 -66 0 -111 0 -56 89 0 177 rrcurveto
          10 416 rlineto
          0 57 -18 48 -37 37 -37 37 -50 19 -62 0 rrcurveto
          -242 hlineto
          -24 0 -21 -8 -18 -17 -18 -17 -9 -23 0 -29 0 -27 9 -21 18 -15 18 -15 21 -8 24 0 rrcurveto
          158 hlineto
          36 0 27 -9 18 -19 18 -19 9 -25 0 -31 rrcurveto
          -9 -375 rlineto
          0 -268 109 -134 218 0 rrcurveto
          endchar
        </CharString>
        <CharString name="idieresis">
          0 1015 -3 rmoveto
          23 0 21 9 19 17 19 17 9 21 0 27 0 30 -9 23 -19 17 -19 16 -21 8 -23 0 rrcurveto
          -241 hlineto
          -28 0 -14 15 0 29 rrcurveto
          616 vlineto
          0 52 -18 44 -36 37 -37 37 -43 18 -51 0 rrcurveto
          -283 hlineto
          -23 0 -21 -8 -17 -17 -17 -17 -9 -23 0 -28 0 -27 9 -22 18 -17 17 -17 20 -9 23 0 rrcurveto
          199 hlineto
          24 0 21 -8 18 -17 17 -17 9 -22 0 -27 rrcurveto
          -528 vlineto
          0 -29 -15 -15 -29 0 rrcurveto
          -242 hlineto
          -21 0 -19 -8 -19 -16 -19 -17 -9 -23 0 -30 0 -27 9 -21 19 -17 19 -17 19 -9 21 0 rrcurveto
          119 1276 rmoveto
          34 0 28 12 23 22 23 23 12 28 0 33 0 34 -12 29 -23 22 -23 23 -28 11 -34 0 -35 0 -29 -11 -23 -23 -23 -22 -12 -29 0 -34 0 -33 12 -28 23 -23 23 -22 29 -12 35 0 rrcurveto
          431 hmoveto
          35 0 29 12 23 22 23 23 12 28 0 33 0 34 -12 29 -23 22 -23 23 -29 11 -35 0 -34 0 -28 -11 -23 -23 -24 -22 -11 -29 0 -34 0 -33 11 -28 24 -23 23 -22 28 -12 34 0 rrcurveto
          endchar
        </CharString>
        <CharString name="idieresis_alt">
          0 385 1273 rmoveto
          34 0 28 12 23 22 23 23 12 28 0 33 0 34 -12 29 -23 22 -23 23 -28 11 -34 0 -35 0 -29 -11 -23 -23 -23 -22 -12 -29 0 -34 0 -33 12 -28 23 -23 23 -22 29 -12 35 0 rrcurveto
          431 hmoveto
          35 0 29 12 23 22 23 23 12 28 0 33 0 34 -12 29 -23 22 -23 23 -29 11 -35 0 -34 0 -28 -11 -23 -23 -24 -22 -11 -29 0 -34 0 -33 11 -28 24 -23 23 -22 28 -12 34 0 rrcurveto
          -1 -1303 rmoveto
          191 0 96 44 0 89 0 20 -5 17 -9 13 -9 13 -11 10 -13 5 -13 5 -12 3 -11 0 -9 0 -11 -3 -12 -7 -36 -19 -51 -10 -66 0 -111 0 -56 89 0 177 rrcurveto
          10 416 rlineto
          0 57 -18 48 -37 37 -37 37 -50 19 -62 0 rrcurveto
          -242 hlineto
          -24 0 -21 -8 -18 -17 -18 -17 -9 -23 0 -29 0 -27 9 -21 18 -15 18 -15 21 -8 24 0 rrcurveto
          158 hlineto
          36 0 27 -9 18 -19 18 -19 9 -25 0 -31 rrcurveto
          -9 -375 rlineto
          0 -268 109 -134 218 0 rrcurveto
          endchar
        </CharString>
        <CharString name="igrave">
          0 1015 -3 rmoveto
          23 0 21 9 19 17 19 17 9 21 0 27 0 30 -9 23 -19 17 -19 16 -21 8 -23 0 rrcurveto
          -241 hlineto
          -28 0 -14 15 0 29 rrcurveto
          616 vlineto
          0 52 -18 44 -36 37 -37 37 -43 18 -51 0 rrcurveto
          -283 hlineto
          -23 0 -21 -8 -17 -17 -17 -17 -9 -23 0 -28 0 -27 9 -22 18 -17 17 -17 20 -9 23 0 rrcurveto
          199 hlineto
          24 0 21 -8 18 -17 17 -17 9 -22 0 -27 rrcurveto
          -528 vlineto
          0 -29 -15 -15 -29 0 rrcurveto
          -242 hlineto
          -21 0 -19 -8 -19 -16 -19 -17 -9 -23 0 -30 0 -27 9 -21 19 -17 19 -17 19 -9 21 0 rrcurveto
          495 1268 rmoveto
          22 0 22 13 11 21 5 10 3 10 0 10 0 22 -12 21 -20 12 rrcurveto
          -261 153 rlineto
          -14 8 -15 4 -15 0 -30 0 -29 -15 -17 -27 -9 -15 -4 -15 0 -16 0 -35 21 -33 35 -14 rrcurveto
          283 -109 rlineto
          8 -3 8 -2 8 0 rrcurveto
          endchar
        </CharString>
        <CharString name="igrave_alt">
          0 761 1265 rmoveto
          22 0 22 13 11 21 5 10 3 10 0 10 0 22 -12 21 -20 12 rrcurveto
          -261 153 rlineto
          -14 8 -15 4 -15 0 -30 0 -29 -15 -17 -27 -9 -15 -4 -15 0 -16 0 -35 21 -33 35 -14 rrcurveto
          283 -109 rlineto
          8 -3 8 -2 8 0 rrcurveto
          54 -1295 rmoveto
          191 0 96 44 0 89 0 20 -5 17 -9 13 -9 13 -11 10 -13 5 -13 5 -12 3 -11 0 -9 0 -11 -3 -12 -7 -36 -19 -51 -10 -66 0 -111 0 -56 89 0 177 rrcurveto
          10 416 rlineto
          0 57 -18 48 -37 37 -37 37 -50 19 -62 0 rrcurveto
          -242 hlineto
          -24 0 -21 -8 -18 -17 -18 -17 -9 -23 0 -29 0 -27 9 -21 18 -15 18 -15 21 -8 24 0 rrcurveto
          158 hlineto
          36 0 27 -9 18 -19 18 -19 9 -25 0 -31 rrcurveto
          -9 -375 rlineto
          0 -268 109 -134 218 0 rrcurveto
          endchar
        </CharString>
        <CharString name="j">
          0 466 -480 rmoveto
          130 0 105 38 80 75 77 69 40 93 2 116 rrcurveto
          930 vlineto
          0 51 -18 44 -35 38 -35 37 -42 19 -49 0 rrcurveto
          -370 hlineto
          -25 0 -21 -9 -17 -19 -17 -19 -9 -22 0 -25 0 -25 9 -22 17 -18 17 -19 21 -9 25 0 rrcurveto
          285 hlineto
          26 0 21 -8 15 -17 15 -17 7 -20 0 -24 rrcurveto
          -1 -872 rlineto
          0 -48 -21 -44 -42 -39 -42 -40 -63 -21 -85 -1 -37 0 -36 9 -35 19 -35 19 -39 29 -41 40 -16 15 -19 7 -21 0 -23 0 -23 -13 -22 -27 -12 -15 -6 -16 0 -19 0 -21 7 -19 15 -17 rrcurveto
          98 -109 114 -54 131 0 rrcurveto
          294 1739 rmoveto
          38 0 33 14 28 29 27 29 14 34 0 41 0 39 -14 34 -27 29 -28 28 -33 14 -38 0 -39 0 -34 -14 -27 -28 -27 -29 -14 -34 0 -39 0 -41 14 -34 27 -29 27 -29 34 -14 39 0 rrcurveto
          endchar
        </CharString>
        <CharString name="k">
          0 987 -30 rmoveto
          64 1 32 31 0 59 0 21 -5 18 -10 14 rrcurveto
          -318 460 rlineto
          -10 14 -5 14 0 13 0 19 8 18 17 18 rrcurveto
          229 254 rlineto
          17 19 9 22 0 25 0 27 -9 21 -18 17 -19 17 -23 8 -27 0 -27 0 -24 -13 -23 -25 rrcurveto
          -392 -421 rlineto
          -13 -15 -14 -7 -14 0 -19 0 -10 17 0 34 rrcurveto
          784 vlineto
          0 27 -9 22 -17 19 -18 19 -22 9 -27 0 -24 0 -21 -9 -17 -18 -17 -18 -9 -22 0 -27 rrcurveto
          -1366 vlineto
          0 -29 8 -24 17 -19 17 -19 22 -9 28 0 27 0 21 10 17 19 16 19 8 24 0 28 rrcurveto
          148 vlineto
          0 35 14 32 27 28 rrcurveto
          130 138 rlineto
          7 7 11 3 15 0 11 0 11 -7 9 -13 rrcurveto
          283 -425 rlineto
          20 -31 29 -15 37 0 rrcurveto
          endchar
        </CharString>
        <CharString name="l">
          0 815 -30 rmoveto
          107 1 72 25 38 47 13 17 7 20 0 23 0 20 -5 17 -9 13 -9 13 -11 10 -13 5 -13 5 -12 3 -11 0 -9 0 -11 -3 -12 -7 -33 -19 -34 -10 -36 0 -128 0 -64 96 0 192 rrcurveto
          885 vlineto
          0 62 -18 50 -37 38 -37 38 -50 19 -62 0 rrcurveto
          -217 hlineto
          -24 0 -21 -8 -18 -17 -18 -17 -9 -23 0 -29 0 -27 9 -21 18 -15 18 -15 21 -8 24 0 rrcurveto
          133 hlineto
          36 0 27 -10 18 -19 18 -20 9 -27 0 -34 rrcurveto
          -838 vlineto
          1 -288 118 -144 234 0 rrcurveto
          endchar
        </CharString>
        <CharString name="lamda-grek">
          0 223 1530 rmoveto
          -60 0 -30 -27 0 -55 0 -58 35 -29 71 0 71 0 59 -30 49 -60 56 -71 28 -60 0 -49 0 -13 -2 -13 -4 -12 -235 -651 -118 -330 0 -9 0 -25 9 -21 19 -19 18 -19 22 -9 25 0 rrcurveto
          44 0 30 20 15 41 rrcurveto
          254 718 rlineto
          3 9 7 5 11 0 11 0 8 -5 3 -9 rrcurveto
          254 -718 rlineto
          15 -41 30 -20 44 0 25 0 22 9 19 19 18 19 9 21 0 25 0 9 -113 330 -226 651 -68 183 -64 120 -60 57 -85 78 -101 39 -118 0 rrcurveto
          endchar
        </CharString>
        <CharString name="left_arrow_double_long">
          0 -1683 51 rmoveto
          25 0 21 9 18 18 17 17 9 21 0 25 0 24 -9 21 -18 19 -19 19 -19 19 -19 19 -5 6 -3 6 0 7 0 8 3 7 6 6 6 6 7 3 7 0 rrcurveto
          2496 hlineto
          23 0 21 9 19 18 18 17 9 21 0 25 0 25 -9 22 -18 17 -18 17 -21 9 -24 0 rrcurveto
          -2544 hlineto
          -24 0 -22 -9 -19 -18 rrcurveto
          -32 -33 rlineto
          -7 -6 -7 -3 -8 0 -8 0 -7 3 -7 6 rrcurveto
          -147 146 rlineto
          -6 7 -3 7 0 8 0 8 3 7 6 6 rrcurveto
          149 149 rlineto
          7 6 7 3 8 0 8 0 7 -3 6 -6 rrcurveto
          33 -33 rlineto
          19 -17 22 -9 23 0 rrcurveto
          2543 hlineto
          23 0 21 9 19 18 18 17 9 21 0 25 0 25 -9 22 -18 17 -18 17 -21 9 -24 0 rrcurveto
          -2494 hlineto
          -7 0 -7 3 -5 6 -6 5 -3 7 0 7 0 4 1 4 1 3 1 3 20 22 40 39 17 21 9 21 0 22 0 25 -9 22 -17 17 -18 17 -21 9 -25 0 -22 0 -21 -9 -20 -17 rrcurveto
          -457 -458 rlineto
          -18 -19 -9 -21 0 -24 0 -24 9 -22 18 -19 rrcurveto
          457 -457 rlineto
          20 -17 21 -9 22 0 rrcurveto
          endchar
        </CharString>
        <CharString name="left_arrow_double_long_alt">
          0 840 890 rmoveto
          -2562 hlineto
          103 103 rlineto
          17 21 9 21 0 22 0 25 -9 22 -17 17 -18 17 -21 9 -25 0 -22 0 -21 -9 -20 -17 rrcurveto
          -457 -458 rlineto
          -18 -19 -9 -21 0 -24 0 -24 9 -22 18 -19 rrcurveto
          457 -457 rlineto
          20 -17 21 -9 22 0 25 0 21 9 18 18 17 17 9 21 0 25 0 24 -9 21 -18 19 rrcurveto
          -106 106 rlineto
          2566 hlineto
          23 0 21 9 19 18 18 17 9 21 0 25 0 25 -9 22 -18 17 -18 17 -21 9 -24 0 rrcurveto
          -2746 hlineto
          -86 86 rlineto
          -6 7 -3 7 0 8 0 8 3 7 6 6 rrcurveto
          90 90 rlineto
          2742 hlineto
          23 0 21 9 19 18 18 17 9 21 0 25 0 25 -9 22 -18 17 -18 17 -21 9 -24 0 rrcurveto
          endchar
        </CharString>
        <CharString name="left_arrow_single">
          0 -581 478 rmoveto
          -8 0 -7 3 -7 6 rrcurveto
          -89 88 rlineto
          -6 7 -3 7 0 8 0 8 3 7 6 6 rrcurveto
          89 89 rlineto
          7 6 7 3 8 0 8 0 7 -3 7 -6 rrcurveto
          88 -89 rlineto
          7 -6 3 -7 0 -8 0 -8 -3 -7 -7 -7 rrcurveto
          -88 -88 rlineto
          -7 -6 -7 -3 -8 0 rrcurveto
          198 -427 rmoveto
          25 0 22 9 17 17 17 17 9 22 0 25 0 22 -9 21 -17 20 rrcurveto
          -113 113 rlineto
          -6 7 -3 7 0 8 0 8 3 7 6 7 rrcurveto
          113 117 rlineto
          9 9 13 7 15 7 15 6 14 3 12 0 rrcurveto
          1181 hlineto
          25 0 21 9 18 18 17 17 9 21 0 25 0 25 -9 21 -17 18 -18 17 -21 9 -25 0 rrcurveto
          -1180 hlineto
          -13 0 -13 3 -15 7 -15 6 -13 7 -9 9 rrcurveto
          -114 114 rlineto
          -6 7 -3 7 0 8 0 7 3 7 6 7 rrcurveto
          113 113 rlineto
          17 20 9 21 0 23 0 27 -9 22 -18 17 -19 17 -21 8 -23 0 -22 0 -21 -9 -20 -17 rrcurveto
          -457 -459 rlineto
          -18 -19 -9 -21 0 -24 0 -23 9 -21 18 -21 rrcurveto
          457 -457 rlineto
          20 -17 21 -8 22 0 rrcurveto
          endchar
        </CharString>
        <CharString name="left_arrow_single_alt">
          0 -483 51 rmoveto
          26 0 21 8 17 18 18 17 8 21 0 26 0 22 -8 21 -18 20 rrcurveto
          -266 266 rlineto
          -5 5 -2 6 0 5 0 12 9 12 14 0 rrcurveto
          1509 hlineto
          25 0 21 8 18 18 18 18 8 21 0 25 0 24 -8 21 -18 18 -18 18 -21 9 -25 0 rrcurveto
          -1503 hlineto
          -14 0 -9 11 0 13 0 5 2 6 5 5 rrcurveto
          260 262 rlineto
          18 20 8 21 0 23 0 26 -9 22 -18 17 -18 17 -21 9 -24 0 -22 0 -21 -9 -20 -17 rrcurveto
          -457 -459 rlineto
          -18 -19 -9 -21 0 -24 0 -23 9 -22 18 -20 rrcurveto
          457 -457 rlineto
          20 -17 21 -8 22 0 rrcurveto
          endchar
        </CharString>
        <CharString name="left_right_arrow_double">
          0 523 422 rmoveto
          -8 0 -7 3 -7 6 rrcurveto
          -32 33 rlineto
          -19 18 -22 9 -24 0 rrcurveto
          -2008 hlineto
          -24 0 -22 -9 -19 -18 rrcurveto
          -32 -33 rlineto
          -7 -6 -7 -3 -8 0 -8 0 -7 3 -7 6 rrcurveto
          -147 146 rlineto
          -6 7 -3 7 0 8 0 8 3 7 6 6 rrcurveto
          149 149 rlineto
          7 6 7 3 8 0 8 0 7 -3 6 -6 rrcurveto
          33 -33 rlineto
          20 -17 21 -9 23 0 rrcurveto
          2006 hlineto
          23 0 22 9 19 17 rrcurveto
          33 33 rlineto
          6 6 7 3 8 0 8 0 7 -3 7 -6 rrcurveto
          149 -149 rlineto
          6 -6 3 -7 0 -8 0 -8 -3 -7 -6 -7 rrcurveto
          -147 -146 rlineto
          -7 -6 -7 -3 -8 0 rrcurveto
          -140 -371 rmoveto
          22 0 21 9 20 17 rrcurveto
          457 457 rlineto
          18 19 9 22 0 24 0 24 -9 21 -18 19 rrcurveto
          -457 458 rlineto
          -20 17 -21 9 -22 0 -25 0 -21 -9 -17 -17 -18 -17 -9 -22 0 -25 0 -22 9 -21 17 -21 40 -39 20 -22 1 -3 1 -3 1 -4 0 -4 0 -7 -3 -7 -5 -5 -6 -6 -7 -3 -7 0 rrcurveto
          -1908 hlineto
          -7 0 -7 3 -5 6 -6 5 -3 7 0 7 0 9 3 7 5 5 rrcurveto
          55 54 rlineto
          17 21 9 21 0 22 0 25 -9 22 -17 17 -18 17 -21 9 -25 0 -22 0 -21 -9 -20 -17 rrcurveto
          -457 -458 rlineto
          -18 -19 -9 -21 0 -24 0 -24 9 -22 18 -19 rrcurveto
          457 -457 rlineto
          20 -17 21 -9 22 0 25 0 21 9 18 18 17 17 9 21 0 25 0 24 -9 21 -18 19 -19 19 -19 19 -19 19 -5 6 -3 6 0 7 0 8 3 7 7 6 6 6 6 3 7 0 rrcurveto
          1912 hlineto
          7 0 7 -3 6 -6 6 -6 3 -7 0 -8 0 -7 -3 -6 -5 -6 -19 -19 -19 -19 -18 -19 -19 -19 -9 -21 0 -24 0 -25 9 -21 18 -17 17 -18 21 -9 25 0 rrcurveto
          endchar
        </CharString>
        <CharString name="left_right_arrow_double_alt">
          0 606 491 rmoveto
          -2412 hlineto
          -86 86 rlineto
          -6 7 -3 7 0 8 0 8 3 7 6 6 rrcurveto
          90 90 rlineto
          2404 hlineto
          90 -90 rlineto
          6 -6 3 -7 0 -8 0 -8 -3 -7 -6 -7 rrcurveto
          -270 313 rmoveto
          -2044 hlineto
          103 103 rlineto
          17 21 9 21 0 22 0 25 -9 22 -17 17 -18 17 -21 9 -25 0 -22 0 -21 -9 -20 -17 rrcurveto
          -457 -458 rlineto
          -18 -19 -9 -21 0 -24 0 -24 9 -22 18 -19 rrcurveto
          457 -457 rlineto
          20 -17 21 -9 22 0 25 0 21 9 18 18 17 17 9 21 0 25 0 24 -9 21 -18 19 rrcurveto
          -106 106 rlineto
          2052 hlineto
          -61 -61 -35 -36 -9 -9 -19 -19 -9 -21 0 -24 0 -25 9 -21 18 -17 17 -18 21 -9 25 0 22 0 21 9 20 17 rrcurveto
          457 457 rlineto
          18 19 9 22 0 24 0 24 -9 21 -18 19 rrcurveto
          -457 458 rlineto
          -20 17 -21 9 -22 0 -25 0 -21 -9 -17 -17 -18 -17 -9 -22 0 -25 0 -22 9 -21 17 -21 rrcurveto
          endchar
        </CharString>
        <CharString name="left_right_arrow_double_long">
          0 523 422 rmoveto
          -8 0 -7 3 -7 6 rrcurveto
          -32 33 rlineto
          -19 18 -22 9 -24 0 rrcurveto
          -3208 hlineto
          -24 0 -22 -9 -19 -18 rrcurveto
          -32 -33 rlineto
          -7 -6 -7 -3 -8 0 -8 0 -7 3 -7 6 rrcurveto
          -147 146 rlineto
          -6 7 -3 7 0 8 0 8 3 7 6 6 rrcurveto
          149 149 rlineto
          7 6 7 3 8 0 8 0 7 -3 6 -6 rrcurveto
          33 -33 rlineto
          20 -17 21 -9 23 0 rrcurveto
          3206 hlineto
          23 0 22 9 19 17 rrcurveto
          33 33 rlineto
          6 6 7 3 8 0 8 0 7 -3 7 -6 rrcurveto
          149 -149 rlineto
          6 -6 3 -7 0 -8 0 -8 -3 -7 -6 -7 rrcurveto
          -147 -146 rlineto
          -7 -6 -7 -3 -8 0 rrcurveto
          -140 -371 rmoveto
          22 0 21 9 20 17 rrcurveto
          457 457 rlineto
          18 19 9 22 0 24 0 24 -9 21 -18 19 rrcurveto
          -457 458 rlineto
          -20 17 -21 9 -22 0 -25 0 -21 -9 -17 -17 -18 -17 -9 -22 0 -25 0 -22 9 -21 17 -21 40 -39 20 -22 1 -3 1 -3 1 -4 0 -4 0 -7 -3 -7 -5 -5 -6 -6 -7 -3 -7 0 rrcurveto
          -3108 hlineto
          -7 0 -7 3 -5 6 -6 5 -3 7 0 7 0 9 3 7 5 5 rrcurveto
          55 54 rlineto
          17 21 9 21 0 22 0 25 -9 22 -17 17 -18 17 -21 9 -25 0 -22 0 -21 -9 -20 -17 rrcurveto
          -457 -458 rlineto
          -18 -19 -9 -21 0 -24 0 -24 9 -22 18 -19 rrcurveto
          457 -457 rlineto
          20 -17 21 -9 22 0 25 0 21 9 18 18 17 17 9 21 0 25 0 24 -9 21 -18 19 -19 19 -19 19 -19 19 -5 6 -3 6 0 7 0 8 3 7 7 6 6 6 6 3 7 0 rrcurveto
          3112 hlineto
          7 0 7 -3 6 -6 6 -6 3 -7 0 -8 0 -7 -3 -6 -5 -6 -19 -19 -19 -19 -18 -19 -19 -19 -9 -21 0 -24 0 -25 9 -21 18 -17 17 -18 21 -9 25 0 rrcurveto
          endchar
        </CharString>
        <CharString name="left_right_arrow_double_long_alt">
          0 -2826 311 rmoveto
          3252 hlineto
          -61 -61 -35 -36 -9 -9 -19 -19 -9 -21 0 -24 0 -25 9 -21 18 -17 17 -18 21 -9 25 0 22 0 21 9 20 17 rrcurveto
          457 457 rlineto
          18 19 9 22 0 24 0 24 -9 21 -18 19 rrcurveto
          -457 458 rlineto
          -20 17 -21 9 -22 0 -25 0 -21 -9 -17 -17 -18 -17 -9 -22 0 -25 0 -22 9 -21 17 -21 rrcurveto
          103 -103 rlineto
          -3244 hlineto
          103 103 rlineto
          17 21 9 21 0 22 0 25 -9 22 -17 17 -18 17 -21 9 -25 0 -22 0 -21 -9 -20 -17 rrcurveto
          -457 -458 rlineto
          -18 -19 -9 -21 0 -24 0 -24 9 -22 18 -19 rrcurveto
          457 -457 rlineto
          20 -17 21 -9 22 0 25 0 21 9 18 18 17 17 9 21 0 25 0 24 -9 21 -18 19 rrcurveto
          3326 286 rmoveto
          -3612 hlineto
          -86 86 rlineto
          -6 7 -3 7 0 8 0 8 3 7 6 6 rrcurveto
          90 90 rlineto
          3604 hlineto
          90 -90 rlineto
          6 -6 3 -7 0 -8 0 -8 -3 -7 -6 -7 rrcurveto
          endchar
        </CharString>
        <CharString name="left_right_arrow_single">
          0 -1781 478 rmoveto
          -8 0 -7 3 -7 6 rrcurveto
          -89 88 rlineto
          -6 7 -3 7 0 8 0 8 3 7 6 6 rrcurveto
          89 89 rlineto
          7 6 7 3 8 0 8 0 7 -3 7 -6 rrcurveto
          88 -89 rlineto
          7 -6 3 -7 0 -8 0 -8 -3 -7 -7 -7 rrcurveto
          -88 -88 rlineto
          -7 -6 -7 -3 -8 0 rrcurveto
          2362 hmoveto
          -8 0 -7 3 -7 6 rrcurveto
          -88 88 rlineto
          -7 7 -3 7 0 8 0 8 3 7 7 6 rrcurveto
          88 89 rlineto
          7 6 7 3 8 0 8 0 7 -3 7 -6 rrcurveto
          89 -89 rlineto
          6 -6 3 -7 0 -8 0 -8 -3 -7 -6 -7 rrcurveto
          -89 -88 rlineto
          -7 -6 -7 -3 -8 0 rrcurveto
          -2022 32 rmoveto
          1682 hlineto
          12 0 14 -3 15 -6 15 -7 13 -7 9 -9 rrcurveto
          113 -117 rlineto
          6 -7 3 -7 0 -8 0 -8 -3 -7 -6 -7 rrcurveto
          -113 -113 rlineto
          -17 -20 -9 -21 0 -22 0 -25 9 -22 17 -17 17 -17 22 -9 25 0 22 0 21 8 20 17 rrcurveto
          457 457 rlineto
          18 18 9 22 0 25 0 24 -9 21 -18 19 rrcurveto
          -457 459 rlineto
          -20 17 -21 9 -22 0 -23 0 -21 -8 -18 -17 -19 -17 -9 -22 0 -27 0 -23 9 -21 17 -20 rrcurveto
          113 -113 rlineto
          6 -7 3 -7 0 -7 0 -8 -3 -7 -6 -7 rrcurveto
          -114 -114 rlineto
          -9 -9 -12 -7 -15 -6 -15 -7 -14 -3 -13 0 rrcurveto
          -1680 hlineto
          -13 0 -13 3 -15 7 -15 6 -13 7 -9 9 rrcurveto
          -114 114 rlineto
          -6 7 -3 7 0 8 0 7 3 7 6 7 rrcurveto
          113 113 rlineto
          17 20 9 21 0 23 0 27 -9 22 -18 17 -19 17 -21 8 -23 0 -22 0 -21 -9 -20 -17 rrcurveto
          -457 -459 rlineto
          -18 -19 -9 -21 0 -24 0 -23 9 -21 18 -21 rrcurveto
          457 -457 rlineto
          20 -17 21 -8 22 0 25 0 22 9 17 17 17 17 9 22 0 25 0 22 -9 21 -17 20 rrcurveto
          -113 113 rlineto
          -6 7 -3 7 0 8 0 8 3 7 6 7 rrcurveto
          113 117 rlineto
          9 9 13 7 15 7 15 6 14 3 12 0 rrcurveto
          endchar
        </CharString>
        <CharString name="left_right_arrow_single_alt">
          0 563 690 rmoveto
          -2326 hlineto
          -7 0 -5 2 -4 5 -5 5 -2 5 0 7 0 5 2 6 5 5 rrcurveto
          260 262 rlineto
          17 20 9 21 0 23 0 26 -9 22 -18 17 -18 17 -21 9 -24 0 -22 0 -21 -9 -20 -17 rrcurveto
          -457 -459 rlineto
          -18 -19 -9 -21 0 -24 0 -23 9 -21 18 -21 rrcurveto
          457 -457 rlineto
          20 -17 21 -8 22 0 26 0 21 9 17 17 17 17 9 21 0 26 0 22 -9 21 -17 20 rrcurveto
          -266 266 rlineto
          -5 5 -2 6 0 5 0 6 2 6 4 5 4 5 6 2 7 0 rrcurveto
          2338 hlineto
          7 0 6 -2 4 -5 4 -5 2 -6 0 -6 0 -5 -2 -6 -5 -5 rrcurveto
          -266 -266 rlineto
          -17 -20 -9 -21 0 -22 0 -26 9 -21 17 -17 17 -17 21 -9 26 0 22 0 21 8 20 17 rrcurveto
          457 457 rlineto
          18 21 9 21 0 23 0 24 -9 21 -18 19 rrcurveto
          -457 459 rlineto
          -20 17 -21 9 -22 0 -24 0 -21 -9 -18 -17 -18 -17 -9 -22 0 -26 0 -23 9 -21 17 -20 rrcurveto
          260 -262 rlineto
          5 -5 2 -6 0 -5 0 -7 -2 -5 -4 -5 -5 -5 -5 -2 -7 0 rrcurveto
          endchar
        </CharString>
        <CharString name="left_right_arrow_single_long">
          0 -2981 478 rmoveto
          -8 0 -7 3 -7 6 rrcurveto
          -88 88 rlineto
          -7 7 -3 7 0 8 0 8 3 7 7 6 rrcurveto
          88 89 rlineto
          7 6 7 3 8 0 8 0 7 -3 7 -6 rrcurveto
          89 -89 rlineto
          6 -6 3 -7 0 -8 0 -8 -3 -7 -6 -7 rrcurveto
          -89 -88 rlineto
          -7 -6 -7 -3 -8 0 rrcurveto
          3562 hmoveto
          -8 0 -7 3 -7 6 rrcurveto
          -89 88 rlineto
          -6 7 -3 7 0 8 0 8 3 7 6 6 rrcurveto
          89 89 rlineto
          7 6 7 3 8 0 8 0 7 -3 7 -6 rrcurveto
          88 -89 rlineto
          7 -6 3 -7 0 -8 0 -8 -3 -7 -7 -7 rrcurveto
          -88 -88 rlineto
          -7 -6 -7 -3 -8 0 rrcurveto
          -198 -427 rmoveto
          22 0 21 8 20 17 rrcurveto
          457 457 rlineto
          18 21 9 21 0 23 0 24 -9 21 -18 19 rrcurveto
          -457 459 rlineto
          -20 17 -21 9 -22 0 -23 0 -21 -8 -18 -17 -19 -17 -9 -22 0 -27 0 -23 9 -21 17 -20 rrcurveto
          113 -113 rlineto
          6 -7 3 -7 0 -7 0 -8 -3 -7 -6 -7 rrcurveto
          -114 -114 rlineto
          -9 -9 -12 -7 -15 -6 -15 -7 -14 -3 -13 0 rrcurveto
          -2880 hlineto
          -13 0 -13 3 -15 7 -15 6 -13 7 -9 9 rrcurveto
          -114 114 rlineto
          -6 7 -3 7 0 8 0 7 3 7 6 7 rrcurveto
          113 113 rlineto
          17 20 9 21 0 23 0 27 -9 22 -18 17 -19 17 -21 8 -23 0 -22 0 -21 -9 -20 -17 rrcurveto
          -457 -459 rlineto
          -18 -19 -9 -21 0 -24 0 -23 9 -21 18 -21 rrcurveto
          457 -457 rlineto
          20 -17 21 -8 22 0 25 0 22 9 17 17 17 17 9 22 0 25 0 22 -9 21 -17 20 rrcurveto
          -113 113 rlineto
          -6 7 -3 7 0 8 0 8 3 7 6 7 rrcurveto
          113 117 rlineto
          9 9 13 7 15 7 15 6 14 3 12 0 rrcurveto
          2881 hlineto
          13 0 14 -3 15 -6 15 -7 12 -7 9 -9 rrcurveto
          114 -117 rlineto
          6 -7 3 -7 0 -8 0 -8 -3 -7 -6 -7 rrcurveto
          -113 -113 rlineto
          -17 -20 -9 -21 0 -22 0 -25 9 -22 17 -17 17 -17 22 -9 25 0 rrcurveto
          endchar
        </CharString>
</ttFont>
